<svg xmlns="http://www.w3.org/2000/svg" viewBox="0 0 254.4 78.2"><defs><style>.cls-1{fill:#598ea4;}.cls-2{fill:#fff;}.cls-3{fill:#d7e8f0;}.cls-4{fill:none;stroke:#598ea4;stroke-miterlimit:10;stroke-width:3px;}</style></defs><g id="Layer_2" data-name="Layer 2"><g id="Layer_1-2" data-name="Layer 1"><g id="Share"><path class="cls-1" d="M247.4,78.2H7a7,7,0,0,1-7-7V7A7,7,0,0,1,7,0H247.4a7,7,0,0,1,7,7V71.2A7,7,0,0,1,247.4,78.2Z"/><path class="cls-2" d="M38.2,23.1c0,10-1.4,12.9-8.5,12.9H23.1V11h6.6c7.1,0,8.5,2.9,8.5,12.9Zm-5.6.8c0-8.1-.6-8.4-4-8.4v16c3.4,0,4-.3,4-8.4Z"/><path class="cls-2" d="M45.8,20.8h4.3v4.9H45.8v5.5h6.1v4.9H40.3v-25H51.9V16H45.8Z"/><path class="cls-2" d="M59.6,31.1h5.7V36H54V11h5.6Z"/><path class="cls-2" d="M72.9,20.8h4.3v4.9H72.9v5.5H79v4.9H67.4v-25H79V16H72.9Z"/><path class="cls-2" d="M97.9,11V36H92.3L86.6,23.6V36H81V11h5.5l5.8,13.1V11Z"/><path class="cls-2" d="M122.9,24.7,121.1,36h-3.5l-1.9-11.3V36h-5.5V11h5.9l3.3,13.1L122.6,11h5.9V36h-5.6V24.7Z"/><path class="cls-2" d="M136.1,20.8h4.3v4.9h-4.3v5.5h6.1v4.9H130.6v-25h11.6V16h-6.1Z"/><path class="cls-2" d="M154.9,36h-5.6V15.9h-5V11h15.6v4.9h-5Z"/><path class="cls-2" d="M40.5,41l-6,25H28.9l-6-25h5.9l2.8,16.8L34.4,41Z"/><path class="cls-2" d="M48.2,56.6V66H42.6V41h5.6c6.5,0,8.8,2.4,8.8,7.6,0,2.9-.5,5-2.1,6,2.9,2.3,1.9,8.5,2.6,11.4H51.9c-.5-2.5.5-7.2-1.7-9.4Zm0-3.7c2.7,0,3.3-.7,3.3-3.5s-.6-3.9-3.3-3.9Z"/><path class="cls-2" d="M65.2,41V66H59.6V41Z"/><path class="cls-2" d="M72.9,50.8h4.3v4.9H72.9v5.5H79v4.9H67.4v-25H79V46H72.9Z"/><path class="cls-2" d="M97.9,41V66H92.3L86.6,53.6V66H81V41h5.5l5.8,13.1V41Z"/><path class="cls-2" d="M115.1,53.1c0,10-1.4,12.9-8.5,12.9H100V41h6.6c7.1,0,8.5,2.9,8.5,12.9Zm-5.6.8c0-8.1-.6-8.4-4-8.4v16c3.4,0,4-.3,4-8.4Z"/><path class="cls-2" d="M122.7,50.8H127v4.9h-4.3v5.5h6.1v4.9H117.2v-25h11.6V46h-6.1Z"/><path class="cls-2" d="M147.8,41V66h-5.6l-5.7-12.4V66h-5.6V41h5.5l5.8,13.1V41Z"/><circle class="cls-3" cx="208.1" cy="38.5" r="27.6"/><rect class="cls-1" x="204.5" y="28.7" width="7.2" height="22.4"/><polygon class="cls-1" points="219 29.6 208.1 14.6 197.3 29.7 219 29.6"/><path class="cls-4" d="M214.7,33.8H218a2.65,2.65,0,0,1,2.6,2.6V54a2.65,2.65,0,0,1-2.6,2.6H198.4a2.65,2.65,0,0,1-2.6-2.6V36.4a2.65,2.65,0,0,1,2.6-2.6h2.9"/></g></g></g></svg>