<svg xmlns="http://www.w3.org/2000/svg" viewBox="0 0 876.5 448.9"><defs><style>.cls-1{fill:#eee;}.cls-2{fill:none;}.cls-3{fill:#d68e0d;}.cls-4,.cls-5{isolation:isolate;}.cls-5{font-size:24px;font-family:Scaffold-SemiBold, Scaffold;font-weight:600;}.cls-5,.cls-8{fill:#ba4c33;}.cls-6{letter-spacing:-0.03em;}.cls-7{letter-spacing:0em;}</style></defs><g id="Layer_2" data-name="Layer 2"><g id="Layer_1-2" data-name="Layer 1"><g id="BUTTON"><path class="cls-1" d="M862.9,448.9H13.7A13.66,13.66,0,0,1,0,435.2V13.7A13.66,13.66,0,0,1,13.7,0H862.8a13.66,13.66,0,0,1,13.7,13.7V435.3A13.61,13.61,0,0,1,862.9,448.9Z"/><rect class="cls-2" x="42.2" y="46.3" width="738" height="215.8"/><path class="cls-3" d="M72.7,46.3V94.1H62V75.3H54.8V94.1H44.1V46.3H54.8V66.1H62V46.3Z"/><path class="cls-3" d="M87.3,65h8.2v9.3H87.3V84.8H98.9v9.3H76.7V46.3H98.9v9.3H87.3Z"/><path class="cls-3" d="M113.6,84.8h10.9v9.3H102.9V46.3h10.7V84.8Z"/><path class="cls-3" d="M139.2,94.1H128.5V46.3h10.7c12.5,0,16.9,5.9,16.9,16.6,0,10.1-4.4,15.9-16.9,15.9Zm0-23.8c5.2,0,6.2-2,6.2-7.4s-1.1-8-6.2-8Z"/><path class="cls-3" d="M207.9,46.3V94.1H197.3V75.3h-7.2V94.1H179.4V46.3h10.7V66.1h7.2V46.3Z"/><path class="cls-3" d="M222.6,65h8.2v9.3h-8.2V84.8h11.6v9.3H212V46.3h22.2v9.3H222.6Z"/><path class="cls-3" d="M258.5,94.1H247.8V55.6h-9.6V46.3H268v9.3h-9.6V94.1Z"/><path class="cls-3" d="M303.4,59.5c0,8.4,15.3,7.9,15.3,21.8,0,8-1.2,13.6-13.5,13.6-11.5,0-13.7-7.3-13.7-17.2h11.7c0,4.3,0,7.8,2.1,7.8,1.6,0,1.9-1.7,1.9-4.4,0-8.8-15-7.7-15-22,0-9.8,2.8-13.7,13.7-13.7,9.8,0,13.3,6.8,13.3,16.6H307.5c0-5.8-.3-7.3-1.9-7.3S303.4,55.6,303.4,59.5Z"/><path class="cls-3" d="M355.3,46.3V94.1H344.6l-11-23.7V94.1H322.9V46.3h10.6l11.1,25v-25Z"/><path class="cls-3" d="M370,65h8.2v9.3H370V84.8h11.6v9.3H359.4V46.3h22.2v9.3H370Z"/><path class="cls-3" d="M396.3,65h8.2v9.3h-8.2V84.8h11.6v9.3H385.7V46.3h22.2v9.3H396.3Z"/><path class="cls-3" d="M432,72.9V46.3h10.9V72.9c0,18.7-3.1,22-15.5,22s-15.5-3.4-15.5-22V46.3h10.9V72.9c0,10.6.6,13.3,4.6,13.3S432,83.4,432,72.9Z"/><path class="cls-3" d="M497,46.3,487,94.1H476.3l-4.4-24.4-4.4,24.4H456.8l-10-47.8h11.3l4,28.9,5.4-28.9h8.6l5.4,28.9,4.1-28.9Z"/><path class="cls-3" d="M511.7,84.8h10.9v9.3H501V46.3h10.7Z"/><path class="cls-3" d="M546.8,72.9V46.3h10.9V72.9c0,18.7-3.1,22-15.5,22s-15.5-3.4-15.5-22V46.3h10.9V72.9c0,10.6.6,13.3,4.6,13.3S546.8,83.4,546.8,72.9Z"/><path class="cls-3" d="M572.3,46.3V94.1H561.6V46.3Z"/><path class="cls-3" d="M587,94.1H576.3V46.3H587c12.5,0,16.9,5.9,16.9,16.6,0,10.1-4.4,15.9-16.9,15.9Zm0-23.8c5.2,0,6.2-2,6.2-7.4s-1.1-8-6.2-8Z"/><path class="cls-3" d="M625.2,46.3l10.7,47.8H625.3l-1.2-7.3h-8.4l-1.2,7.3H603.8l10.7-47.8Zm-8.1,31.8h5.5l-2.7-16.8Z"/><path class="cls-3" d="M661.3,46.3,672,94.1H661.3l-1.2-7.3h-8.4l-1.2,7.3H639.8l10.7-47.8Zm-8.1,31.8h5.5L656,61.3Z"/><path class="cls-3" d="M686.7,76.1v18H676V46.3h10.7c12.5,0,16.9,4.6,16.9,14.6,0,5.5-1,9.5-4.1,11.4,5.6,4.4,3.6,16.3,5,21.8H693.8c-.9-4.7.9-13.9-3.3-18Zm0-7.1c5.2,0,6.2-1.3,6.2-6.7s-1.1-7.4-6.2-7.4Z"/><path class="cls-3" d="M737.4,69.4c0,19.2-2.6,24.7-16.2,24.7H708.5V46.3h12.7c13.6,0,16.2,5.5,16.2,24.7ZM726.8,71c0-15.5-1.1-16.1-7.6-16.1V85.5c6.5,0,7.6-.5,7.6-16.1Z"/><path class="cls-3" d="M742.1,85.2h8.8V94h-8.8Z"/><rect class="cls-2" x="42.2" y="133.8" width="738" height="213"/><g class="cls-4"><text class="cls-5" transform="translate(42.19 150.62)">Door de tempratuur stijging als gevolg van de klimaatverandering, daalt het oppervlakte van </text><text class="cls-5" transform="translate(42.19 179.42)">het leefgebied drastisch, en zal het sneeuwluipaard later nog alleen maar in gevangenschap </text><text class="cls-5" transform="translate(42.19 208.22)">kunnen leven. </text><text class="cls-5" transform="translate(42.19 265.82)">Wil jij dit tegengaan? Doneer of adopteer nu een sneeuwluipaard via het Snowleopard <tspan class="cls-6" x="675.94" y="0">T</tspan><tspan class="cls-7" x="684.51" y="0">rust.</tspan></text><text class="cls-5" transform="translate(42.19 294.62)">Of Deel dit nu met jouw vrienden, om hun ook te informeren over de problemen. </text></g><path class="cls-8" d="M43.3,150.6V133.8h5.3a3.62,3.62,0,0,1,2.7,1,3.47,3.47,0,0,1,1,2.7V147a3.62,3.62,0,0,1-1,2.7,3.47,3.47,0,0,1-2.7,1H43.3Zm5.9-2.7a1.37,1.37,0,0,0,.4-1.1v-9a1.25,1.25,0,0,0-.4-1.1,1.37,1.37,0,0,0-1.1-.4H46v12.1h2.1A3.7,3.7,0,0,0,49.2,147.9Z"/><path class="cls-8" d="M57.5,150.8a3.47,3.47,0,0,1-2.7-1,3.7,3.7,0,0,1-1-2.7v-5a3.45,3.45,0,0,1,3.7-3.7h.7a3.62,3.62,0,0,1,2.7,1,3.7,3.7,0,0,1,1,2.7v5a3.62,3.62,0,0,1-1,2.7,3.7,3.7,0,0,1-2.7,1Zm1.4-2.6a1.53,1.53,0,0,0,.4-1v-5.1a1.05,1.05,0,0,0-.4-1,1.78,1.78,0,0,0-1-.4h-.2a1.16,1.16,0,0,0-1,.4,1.78,1.78,0,0,0-.4,1v5.1a1.37,1.37,0,0,0,1.4,1.4h.2A1.53,1.53,0,0,0,58.9,148.2Z"/><path class="cls-8" d="M66.9,150.8a3.47,3.47,0,0,1-2.7-1,3.7,3.7,0,0,1-1-2.7v-5a3.45,3.45,0,0,1,3.7-3.7h.7a3.62,3.62,0,0,1,2.7,1,3.7,3.7,0,0,1,1,2.7v5a3.62,3.62,0,0,1-1,2.7,3.7,3.7,0,0,1-2.7,1Zm1.5-2.6a1.53,1.53,0,0,0,.4-1v-5.1a1.05,1.05,0,0,0-.4-1,1.78,1.78,0,0,0-1-.4h-.2a1.16,1.16,0,0,0-1,.4,1.78,1.78,0,0,0-.4,1v5.1a1.37,1.37,0,0,0,1.4,1.4h.2A1.53,1.53,0,0,0,68.4,148.2Z"/><path class="cls-8" d="M73,150.6v-12h2.5v2q.45-2.1,1.8-2.1h.1a.9.9,0,0,1,.5.1v2.7a2.25,2.25,0,0,0-.7-.1h-.1a1.15,1.15,0,0,0-1.1.6,2.12,2.12,0,0,0-.4,1.4v7.5H73Z"/><path class="cls-8" d="M85.6,150.8a2.6,2.6,0,0,1-2.7-2.9v-6.5a2.82,2.82,0,0,1,.7-2.1,2.72,2.72,0,0,1,2-.7h.2a2.26,2.26,0,0,1,1.5.5,4.15,4.15,0,0,1,1.1,1.2V134h2.5v16.8H88.3v-1.5a2.54,2.54,0,0,1-1.1,1.2,3,3,0,0,1-1.5.5h-.1Zm2.3-2.7a1.66,1.66,0,0,0,.5-1.2v-4.6a1.46,1.46,0,0,0-.5-1.2,1.39,1.39,0,0,0-1.1-.5h-.1c-.9,0-1.3.4-1.3,1.3v5.3c0,.9.4,1.3,1.3,1.3h.1A1.19,1.19,0,0,0,87.9,148.1Z"/><path class="cls-8" d="M96.2,150.8a3.47,3.47,0,0,1-2.7-1,3.7,3.7,0,0,1-1-2.7v-5a3.45,3.45,0,0,1,3.7-3.7h.7a3.62,3.62,0,0,1,2.7,1,3.7,3.7,0,0,1,1,2.7V145H95.1v2.3a1.28,1.28,0,0,0,.4,1,1.16,1.16,0,0,0,1,.4h.2a1.16,1.16,0,0,0,1-.4,1.53,1.53,0,0,0,.4-1v-.7h2.5v.5a3.62,3.62,0,0,1-1,2.7,3.7,3.7,0,0,1-2.7,1Zm.2-10.3a1.16,1.16,0,0,0-1,.4,1.78,1.78,0,0,0-.4,1v1.7h3v-1.7a1.16,1.16,0,0,0-.4-1,1.78,1.78,0,0,0-1-.4Z"/><path class="cls-8" d="M109.4,150.8a2.09,2.09,0,0,1-2.4-2.3v-7.7h-1.6v-2.2H107v-2.1h2.5v2.2h2.1v2.2h-2.1v6.8a.9.9,0,0,0,1,1h.1a3.08,3.08,0,0,0,1-.1v2.1a8.08,8.08,0,0,1-1.6.1Z"/><path class="cls-8" d="M116.6,150.8a3.47,3.47,0,0,1-2.7-1,3.7,3.7,0,0,1-1-2.7v-5a3.45,3.45,0,0,1,3.7-3.7h.7a3.62,3.62,0,0,1,2.7,1,3.7,3.7,0,0,1,1,2.7V145h-5.5v2.3a1.28,1.28,0,0,0,.4,1,1.16,1.16,0,0,0,1,.4h.2a1.16,1.16,0,0,0,1-.4,1.53,1.53,0,0,0,.4-1v-.7H121v.5a3.62,3.62,0,0,1-1,2.7,3.7,3.7,0,0,1-2.7,1Zm.2-10.3a1.16,1.16,0,0,0-1,.4,1.78,1.78,0,0,0-.4,1v1.7h3v-1.7a1.16,1.16,0,0,0-.4-1,1.78,1.78,0,0,0-1-.4Z"/><path class="cls-8" d="M133.2,150.6V142c0-.9-.4-1.3-1.2-1.3h-.1a1.39,1.39,0,0,0-1,.5,1.66,1.66,0,0,0-.5,1.2v8.3h-2.5v-8.6c0-.9-.4-1.3-1.2-1.3h-.1a1.39,1.39,0,0,0-1,.5,1.66,1.66,0,0,0-.5,1.2v8.3h-2.5v-12h2.5v1.5a2.94,2.94,0,0,1,1-1.2,3,3,0,0,1,1.5-.5h.1a2.46,2.46,0,0,1,2.5,1.6,2.54,2.54,0,0,1,1.1-1.2,3,3,0,0,1,1.6-.5h.1a2.56,2.56,0,0,1,1.9.8,2.82,2.82,0,0,1,.7,2.1v9.3h-2.4Z"/><path class="cls-8" d="M142.7,150.8a2.26,2.26,0,0,1-1.5-.5,2.34,2.34,0,0,1-1-1.2v5.1h-2.5V138.6h2.5v1.5a2.94,2.94,0,0,1,1-1.2,3,3,0,0,1,1.5-.5h.2a2.72,2.72,0,0,1,2,.7,2.82,2.82,0,0,1,.7,2.1v6.5a2.6,2.6,0,0,1-2.7,2.9h-.2Zm.4-3.5V142c0-.9-.4-1.3-1.3-1.3h-.1a1.17,1.17,0,0,0-1.1.5,1.66,1.66,0,0,0-.5,1.2V147a1.46,1.46,0,0,0,.5,1.2,1.43,1.43,0,0,0,1.1.5h.1A1.28,1.28,0,0,0,143.1,147.3Z"/><path class="cls-8" d="M147.4,150.6v-12h2.5v2q.45-2.1,1.8-2.1h.1a.9.9,0,0,1,.5.1v2.7a2.25,2.25,0,0,0-.7-.1h-.1a1.15,1.15,0,0,0-1.1.6,2.12,2.12,0,0,0-.4,1.4v7.5h-2.6Z"/><path class="cls-8" d="M156.1,150.8a2.6,2.6,0,0,1-2.7-2.9v-.8a3.83,3.83,0,0,1,.5-1.9,2.07,2.07,0,0,1,1.4-1l2.7-.7a1.18,1.18,0,0,0,.9-1.2V142a1.16,1.16,0,0,0-.4-1,1.78,1.78,0,0,0-1-.4h-.2a1.16,1.16,0,0,0-1,.4,1.78,1.78,0,0,0-.4,1v.4h-2.6v-.2a3.45,3.45,0,0,1,3.7-3.7h.7a3.62,3.62,0,0,1,2.7,1,3.7,3.7,0,0,1,1,2.7v8.5h-2.5v-1.5a2.54,2.54,0,0,1-1.1,1.2,3,3,0,0,1-1.5.5h-.2Zm2.3-2.6a1.37,1.37,0,0,0,.4-1.1v-2.7a1.27,1.27,0,0,1-.9.7l-1.2.3c-.6.2-.8.6-.8,1.3v.7c0,.9.4,1.3,1.3,1.3h.1A1.27,1.27,0,0,0,158.4,148.2Z"/><path class="cls-8" d="M166.5,150.8a2.09,2.09,0,0,1-2.4-2.3v-7.7h-1.6v-2.2h1.6v-2.1h2.5v2.2h2.1v2.2h-2.1v6.8a.9.9,0,0,0,1,1h.1a3.08,3.08,0,0,0,1-.1v2.1a8.08,8.08,0,0,1-1.6.1Z"/><path class="cls-8" d="M173,150.8a2.6,2.6,0,0,1-2.7-2.9v-9.3h2.5v8.6c0,.9.4,1.3,1.3,1.3h.1a1.61,1.61,0,0,0,1.1-.5,1.66,1.66,0,0,0,.5-1.2v-8.3h2.5v12h-2.5V149a2.54,2.54,0,0,1-1.1,1.2,3,3,0,0,1-1.5.5H173Z"/><path class="cls-8" d="M182.9,150.8a2.6,2.6,0,0,1-2.7-2.9v-9.3h2.5v8.6c0,.9.4,1.3,1.3,1.3h.1a1.61,1.61,0,0,0,1.1-.5,1.66,1.66,0,0,0,.5-1.2v-8.3h2.5v12h-2.5V149a2.54,2.54,0,0,1-1.1,1.2,3,3,0,0,1-1.5.5h-.2Z"/><path class="cls-8" d="M190.2,150.6v-12h2.5v2q.45-2.1,1.8-2.1h.1a.9.9,0,0,1,.5.1v2.7a2.25,2.25,0,0,0-.7-.1h-.1a1.15,1.15,0,0,0-1.1.6,2.12,2.12,0,0,0-.4,1.4v7.5h-2.6Z"/><path class="cls-8" d="M203.6,150.8a4.34,4.34,0,0,1-2.7-.8,2.87,2.87,0,0,1-1-2.2v-1.2h2.5v1a1,1,0,0,0,.4.9,1.49,1.49,0,0,0,1,.3h.2c.9,0,1.4-.4,1.4-1.2v-.8a1.2,1.2,0,0,0-1-1.3l-2.3-.6c-1.5-.4-2.2-1.2-2.2-2.5v-1a2.57,2.57,0,0,1,1-2.2,4.14,4.14,0,0,1,2.7-.8h.7a4.55,4.55,0,0,1,2.7.8,2.87,2.87,0,0,1,1,2.2v.8h-2.5v-.7c0-.8-.5-1.2-1.4-1.2h-.2a1.49,1.49,0,0,0-1,.3,1.27,1.27,0,0,0-.4.9v.6c0,.6.3.9.9,1.1l2.3.6c1.5.4,2.2,1.2,2.2,2.5v1.4a2.57,2.57,0,0,1-1,2.2,4.14,4.14,0,0,1-2.7.8h-.6Z"/><path class="cls-8" d="M213,150.8a2.09,2.09,0,0,1-2.4-2.3v-7.7H209v-2.2h1.6v-2.1h2.5v2.2h2.1v2.2h-2.1v6.8a.9.9,0,0,0,1,1h.1a3.08,3.08,0,0,0,1-.1v2.1a8.08,8.08,0,0,1-1.6.1Z"/><path class="cls-8" d="M216.8,137.2v-3.3h2.5v3.3Zm0,13.4v-12h2.5v12Z"/><path class="cls-8" d="M220.8,154.4a5.7,5.7,0,0,1-1.3-.1v-1.8a2.81,2.81,0,0,0,.8.1h.1a.9.9,0,0,0,1-1V138.7h2.5v13.2a2.35,2.35,0,0,1-.7,1.9,3,3,0,0,1-2,.7h-.4Zm.5-17.2v-3.3h2.5v3.3Z"/><path class="cls-8" d="M228.2,149.6a2.6,2.6,0,0,1-2.7-2.9v-5.3a2.82,2.82,0,0,1,.7-2.1,2.72,2.72,0,0,1,2-.7h.2a2.26,2.26,0,0,1,1.5.5,4.15,4.15,0,0,1,1.1,1.2v-1.5h2.5v12.3a3,3,0,0,1-1,2.5,3.67,3.67,0,0,1-2.7.9h-.7a3.83,3.83,0,0,1-2.7-.9,3.38,3.38,0,0,1-1-2.5v-.3h2.5v.5a1.16,1.16,0,0,0,.4,1,1.53,1.53,0,0,0,1,.4h.2a1.16,1.16,0,0,0,1-.4,1.53,1.53,0,0,0,.4-1v-3.2a2.54,2.54,0,0,1-1.1,1.2,3,3,0,0,1-1.5.5h-.1Zm2.3-2.7a1.66,1.66,0,0,0,.5-1.2v-3.4a1.46,1.46,0,0,0-.5-1.2,1.39,1.39,0,0,0-1.1-.5h-.1c-.9,0-1.3.4-1.3,1.3V146c0,.9.4,1.3,1.3,1.3h.1A1.11,1.11,0,0,0,230.5,146.9Z"/><path class="cls-8" d="M235.5,137.2v-3.3H238v3.3Zm0,13.4v-12H238v12Z"/><path class="cls-8" d="M245.4,150.6V142c0-.9-.4-1.3-1.3-1.3H244a1.17,1.17,0,0,0-1.1.5,1.66,1.66,0,0,0-.5,1.2v8.3h-2.5v-12h2.5v1.5a2.94,2.94,0,0,1,1-1.2,2.69,2.69,0,0,1,1.5-.5h.2a2.72,2.72,0,0,1,2,.7,2.82,2.82,0,0,1,.7,2.1v9.3Z"/><path class="cls-8" d="M252.4,149.6a2.6,2.6,0,0,1-2.7-2.9v-5.3a2.82,2.82,0,0,1,.7-2.1,2.72,2.72,0,0,1,2-.7h.2a2.26,2.26,0,0,1,1.5.5,4.15,4.15,0,0,1,1.1,1.2v-1.5h2.5v12.3a3,3,0,0,1-1,2.5,3.67,3.67,0,0,1-2.7.9h-.7a3.83,3.83,0,0,1-2.7-.9,3.38,3.38,0,0,1-1-2.5v-.3h2.5v.5a1.16,1.16,0,0,0,.4,1,1.53,1.53,0,0,0,1,.4h.2a1.16,1.16,0,0,0,1-.4,1.53,1.53,0,0,0,.4-1v-3.2a2.54,2.54,0,0,1-1.1,1.2,3,3,0,0,1-1.5.5h-.1Zm2.3-2.7a1.66,1.66,0,0,0,.5-1.2v-3.4a1.46,1.46,0,0,0-.5-1.2,1.39,1.39,0,0,0-1.1-.5h-.1c-.9,0-1.3.4-1.3,1.3V146c0,.9.4,1.3,1.3,1.3h.1A1.19,1.19,0,0,0,254.7,146.9Z"/><path class="cls-8" d="M266,150.8a2.6,2.6,0,0,1-2.7-2.9v-.8a3.83,3.83,0,0,1,.5-1.9,2.07,2.07,0,0,1,1.4-1l2.7-.7a1.18,1.18,0,0,0,.9-1.2V142a1.16,1.16,0,0,0-.4-1,1.78,1.78,0,0,0-1-.4h-.2a1.16,1.16,0,0,0-1,.4,1.78,1.78,0,0,0-.4,1v.4h-2.5v-.2a3.45,3.45,0,0,1,3.7-3.7h.7a3.62,3.62,0,0,1,2.7,1,3.7,3.7,0,0,1,1,2.7v8.5h-2.5v-1.5a2.54,2.54,0,0,1-1.1,1.2,3,3,0,0,1-1.5.5H266Zm2.3-2.6a1.37,1.37,0,0,0,.4-1.1v-2.7a1.27,1.27,0,0,1-.9.7l-1.2.3c-.6.2-.8.6-.8,1.3v.7c0,.9.4,1.3,1.3,1.3h.1A1.27,1.27,0,0,0,268.3,148.2Z"/><path class="cls-8" d="M273.1,150.6V133.8h2.5v16.8Z"/><path class="cls-8" d="M281,150.8a4.34,4.34,0,0,1-2.7-.8,2.87,2.87,0,0,1-1-2.2v-1.2h2.5v1a1,1,0,0,0,.4.9,1.49,1.49,0,0,0,1,.3h.2c.9,0,1.4-.4,1.4-1.2v-.8a1.2,1.2,0,0,0-1-1.3l-2.3-.6c-1.5-.4-2.2-1.2-2.2-2.5v-1a2.57,2.57,0,0,1,1-2.2,4.14,4.14,0,0,1,2.7-.8h.7a4.55,4.55,0,0,1,2.7.8,2.87,2.87,0,0,1,1,2.2v.8h-2.5v-.7c0-.8-.5-1.2-1.4-1.2h-.2a1.49,1.49,0,0,0-1,.3,1.27,1.27,0,0,0-.4.9v.6c0,.6.3.9.9,1.1l2.3.6c1.5.4,2.2,1.2,2.2,2.5v1.4a2.57,2.57,0,0,1-1,2.2,4.14,4.14,0,0,1-2.7.8H281Z"/><path class="cls-8" d="M293.4,149.6a2.6,2.6,0,0,1-2.7-2.9v-5.3a2.82,2.82,0,0,1,.7-2.1,2.72,2.72,0,0,1,2-.7h.2a2.26,2.26,0,0,1,1.5.5,4.15,4.15,0,0,1,1.1,1.2v-1.5h2.5v12.3a3,3,0,0,1-1,2.5,3.67,3.67,0,0,1-2.7.9h-.7a3.83,3.83,0,0,1-2.7-.9,3.38,3.38,0,0,1-1-2.5v-.3h2.5v.5a1.16,1.16,0,0,0,.4,1,1.53,1.53,0,0,0,1,.4h.2a1.16,1.16,0,0,0,1-.4,1.53,1.53,0,0,0,.4-1v-3.2a2.54,2.54,0,0,1-1.1,1.2,3,3,0,0,1-1.5.5h-.1Zm2.3-2.7a1.66,1.66,0,0,0,.5-1.2v-3.4a1.46,1.46,0,0,0-.5-1.2,1.39,1.39,0,0,0-1.1-.5h-.1c-.9,0-1.3.4-1.3,1.3V146c0,.9.4,1.3,1.3,1.3h.1A1.19,1.19,0,0,0,295.7,146.9Z"/><path class="cls-8" d="M304,150.8a3.47,3.47,0,0,1-2.7-1,3.7,3.7,0,0,1-1-2.7v-5a3.45,3.45,0,0,1,3.7-3.7h.7a3.62,3.62,0,0,1,2.7,1,3.7,3.7,0,0,1,1,2.7V145h-5.5v2.3a1.28,1.28,0,0,0,.4,1,1.16,1.16,0,0,0,1,.4h.2a1.16,1.16,0,0,0,1-.4,1.53,1.53,0,0,0,.4-1v-.7h2.5v.5a3.62,3.62,0,0,1-1,2.7,3.7,3.7,0,0,1-2.7,1Zm.3-10.3a1.16,1.16,0,0,0-1,.4,1.78,1.78,0,0,0-.4,1v1.7h3v-1.7a1.16,1.16,0,0,0-.4-1,1.78,1.78,0,0,0-1-.4Z"/><path class="cls-8" d="M311.7,150.6l-2.5-12h2.5l1.8,10.1,1.8-10.1h2.6l-2.5,12Z"/><path class="cls-8" d="M322.3,150.8a3.47,3.47,0,0,1-2.7-1,3.7,3.7,0,0,1-1-2.7v-5a3.45,3.45,0,0,1,3.7-3.7h.7a3.62,3.62,0,0,1,2.7,1,3.7,3.7,0,0,1,1,2.7v5a3.62,3.62,0,0,1-1,2.7,3.7,3.7,0,0,1-2.7,1Zm1.5-2.6a1.53,1.53,0,0,0,.4-1v-5.1a1.05,1.05,0,0,0-.4-1,1.78,1.78,0,0,0-1-.4h-.2a1.16,1.16,0,0,0-1,.4,1.78,1.78,0,0,0-.4,1v5.1a1.37,1.37,0,0,0,1.4,1.4h.2A1.78,1.78,0,0,0,323.8,148.2Z"/><path class="cls-8" d="M328.4,150.6V133.8h2.5v16.8Z"/><path class="cls-8" d="M335.3,149.6a2.6,2.6,0,0,1-2.7-2.9v-5.3a2.82,2.82,0,0,1,.7-2.1,2.72,2.72,0,0,1,2-.7h.2a2.26,2.26,0,0,1,1.5.5,4.15,4.15,0,0,1,1.1,1.2v-1.5h2.5v12.3a3,3,0,0,1-1,2.5,3.67,3.67,0,0,1-2.7.9h-.6a3.83,3.83,0,0,1-2.7-.9,3.38,3.38,0,0,1-1-2.5v-.3h2.5v.5a1.16,1.16,0,0,0,.4,1,1.53,1.53,0,0,0,1,.4h.2a1.16,1.16,0,0,0,1-.4,1.53,1.53,0,0,0,.4-1v-3.2a2.54,2.54,0,0,1-1.1,1.2,3,3,0,0,1-1.5.5h-.2Zm2.3-2.7a1.66,1.66,0,0,0,.5-1.2v-3.4a1.46,1.46,0,0,0-.5-1.2,1.39,1.39,0,0,0-1.1-.5h-.1c-.9,0-1.3.4-1.3,1.3V146c0,.9.4,1.3,1.3,1.3h.1A1.11,1.11,0,0,0,337.6,146.9Z"/><path class="cls-8" d="M348,150.6l-2.5-12H348l1.8,10.1,1.8-10.1h2.6l-2.5,12Z"/><path class="cls-8" d="M357.7,150.8a2.6,2.6,0,0,1-2.7-2.9v-.8a3.83,3.83,0,0,1,.5-1.9,2.07,2.07,0,0,1,1.4-1l2.7-.7a1.18,1.18,0,0,0,.9-1.2V142a1.16,1.16,0,0,0-.4-1,1.78,1.78,0,0,0-1-.4h-.2a1.16,1.16,0,0,0-1,.4,1.78,1.78,0,0,0-.4,1v.4H355v-.2a3.45,3.45,0,0,1,3.7-3.7h.7a3.62,3.62,0,0,1,2.7,1,3.7,3.7,0,0,1,1,2.7v8.5h-2.5v-1.5a2.54,2.54,0,0,1-1.1,1.2,3,3,0,0,1-1.5.5h-.3Zm2.3-2.6a1.37,1.37,0,0,0,.4-1.1v-2.7a1.27,1.27,0,0,1-.9.7l-1.2.3c-.6.2-.8.6-.8,1.3v.7c0,.9.4,1.3,1.3,1.3h.1A1.27,1.27,0,0,0,360,148.2Z"/><path class="cls-8" d="M370.3,150.6V142c0-.9-.4-1.3-1.3-1.3h-.1a1.17,1.17,0,0,0-1.1.5,1.66,1.66,0,0,0-.5,1.2v8.3h-2.5v-12h2.5v1.5a2.94,2.94,0,0,1,1-1.2,2.69,2.69,0,0,1,1.5-.5h.2a2.72,2.72,0,0,1,2,.7,2.82,2.82,0,0,1,.7,2.1v9.3Z"/><path class="cls-8" d="M381.1,150.8a2.6,2.6,0,0,1-2.7-2.9v-6.5a2.82,2.82,0,0,1,.7-2.1,2.72,2.72,0,0,1,2-.7h.2a2.26,2.26,0,0,1,1.5.5,4.15,4.15,0,0,1,1.1,1.2V134h2.5v16.8h-2.5v-1.5a2.54,2.54,0,0,1-1.1,1.2,3,3,0,0,1-1.5.5h-.2Zm2.3-2.7a1.66,1.66,0,0,0,.5-1.2v-4.6a1.46,1.46,0,0,0-.5-1.2,1.39,1.39,0,0,0-1.1-.5h-.1c-.9,0-1.3.4-1.3,1.3v5.3c0,.9.4,1.3,1.3,1.3h.1A1.19,1.19,0,0,0,383.4,148.1Z"/><path class="cls-8" d="M391.7,150.8a3.47,3.47,0,0,1-2.7-1,3.7,3.7,0,0,1-1-2.7v-5a3.45,3.45,0,0,1,3.7-3.7h.7a3.62,3.62,0,0,1,2.7,1,3.7,3.7,0,0,1,1,2.7V145h-5.5v2.3a1.28,1.28,0,0,0,.4,1,1.16,1.16,0,0,0,1,.4h.2a1.16,1.16,0,0,0,1-.4,1.53,1.53,0,0,0,.4-1v-.7h2.5v.5a3.62,3.62,0,0,1-1,2.7,3.7,3.7,0,0,1-2.7,1Zm.3-10.3a1.16,1.16,0,0,0-1,.4,1.78,1.78,0,0,0-.4,1v1.7h3v-1.7a1.16,1.16,0,0,0-.4-1,1.78,1.78,0,0,0-1-.4Z"/><path class="cls-8" d="M407.3,150.6a3.58,3.58,0,0,1-.4-1.9V147a1.53,1.53,0,0,0-1.7-1.7h-1v5.3h-2.5V133.8h2.5v9.6h.9l2.4-4.8H410l-2.6,5.2a2.37,2.37,0,0,1,1.5.9,2.79,2.79,0,0,1,.6,1.8v2.3a9,9,0,0,0,.2,1.8Z"/><path class="cls-8" d="M411.4,150.6V133.8h2.5v16.8Z"/><path class="cls-8" d="M415.9,137.2v-3.3h2.5v3.3Zm0,13.4v-12h2.5v12Z"/><path class="cls-8" d="M430.9,150.6V142c0-.9-.4-1.3-1.2-1.3h-.1a1.39,1.39,0,0,0-1,.5,1.66,1.66,0,0,0-.5,1.2v8.3h-2.5v-8.6c0-.9-.4-1.3-1.2-1.3h-.1a1.39,1.39,0,0,0-1,.5,1.66,1.66,0,0,0-.5,1.2v8.3h-2.5v-12h2.5v1.5a2.94,2.94,0,0,1,1-1.2,3,3,0,0,1,1.5-.5h.1a2.46,2.46,0,0,1,2.5,1.6A2.54,2.54,0,0,1,429,139a3,3,0,0,1,1.6-.5h.1a2.56,2.56,0,0,1,1.9.8,2.82,2.82,0,0,1,.7,2.1v9.3h-2.4Z"/><path class="cls-8" d="M437.8,150.8a2.6,2.6,0,0,1-2.7-2.9v-.8a3.83,3.83,0,0,1,.5-1.9,2.07,2.07,0,0,1,1.4-1l2.7-.7a1.18,1.18,0,0,0,.9-1.2V142a1.16,1.16,0,0,0-.4-1,1.78,1.78,0,0,0-1-.4H439a1.16,1.16,0,0,0-1,.4,1.78,1.78,0,0,0-.4,1v.4h-2.5v-.2a3.45,3.45,0,0,1,3.7-3.7h.7a3.62,3.62,0,0,1,2.7,1,3.7,3.7,0,0,1,1,2.7v8.5h-2.5v-1.5a2.54,2.54,0,0,1-1.1,1.2,3,3,0,0,1-1.5.5h-.3Zm2.4-2.6a1.37,1.37,0,0,0,.4-1.1v-2.7a1.27,1.27,0,0,1-.9.7l-1.2.3c-.6.2-.8.6-.8,1.3v.7c0,.9.4,1.3,1.3,1.3h.1A1.27,1.27,0,0,0,440.2,148.2Z"/><path class="cls-8" d="M447.5,150.8a2.6,2.6,0,0,1-2.7-2.9v-.8a3.83,3.83,0,0,1,.5-1.9,2.07,2.07,0,0,1,1.4-1l2.7-.7a1.18,1.18,0,0,0,.9-1.2V142a1.16,1.16,0,0,0-.4-1,1.78,1.78,0,0,0-1-.4h-.2a1.16,1.16,0,0,0-1,.4,1.78,1.78,0,0,0-.4,1v.4h-2.5v-.2a3.47,3.47,0,0,1,1-2.7,3.7,3.7,0,0,1,2.7-1h.7a3.62,3.62,0,0,1,2.7,1,3.47,3.47,0,0,1,1,2.7v8.5h-2.5v-1.5a2.54,2.54,0,0,1-1.1,1.2,3,3,0,0,1-1.5.5h-.3Zm2.3-2.6a1.37,1.37,0,0,0,.4-1.1v-2.7a1.27,1.27,0,0,1-.9.7l-1.2.3c-.6.2-.8.6-.8,1.3v.7c0,.9.4,1.3,1.3,1.3h.1A1.27,1.27,0,0,0,449.8,148.2Z"/><path class="cls-8" d="M457.9,150.8a2.09,2.09,0,0,1-2.4-2.3v-7.7h-1.6v-2.2h1.6v-2.1H458v2.2h2.1v2.2H458v6.8a.9.9,0,0,0,1,1h.1a3.08,3.08,0,0,0,1-.1v2.1a8.08,8.08,0,0,1-1.6.1Z"/><path class="cls-8" d="M463.3,150.6l-2.5-12h2.5l1.8,10.1,1.8-10.1h2.6l-2.5,12Z"/><path class="cls-8" d="M473.8,150.8a3.47,3.47,0,0,1-2.7-1,3.7,3.7,0,0,1-1-2.7v-5a3.45,3.45,0,0,1,3.7-3.7h.7a3.62,3.62,0,0,1,2.7,1,3.47,3.47,0,0,1,1,2.7V145h-5.5v2.3a1.28,1.28,0,0,0,.4,1,1.16,1.16,0,0,0,1,.4h.2a1.16,1.16,0,0,0,1-.4,1.53,1.53,0,0,0,.4-1v-.7h2.5v.5a3.62,3.62,0,0,1-1,2.7,3.7,3.7,0,0,1-2.7,1Zm.3-10.3a1.16,1.16,0,0,0-1,.4,1.78,1.78,0,0,0-.4,1v1.7h3v-1.7a1.16,1.16,0,0,0-.4-1,1.78,1.78,0,0,0-1-.4Z"/><path class="cls-8" d="M479.9,150.6v-12h2.5v2q.45-2.1,1.8-2.1h.1a.9.9,0,0,1,.5.1v2.7a2.25,2.25,0,0,0-.7-.1H484a1.15,1.15,0,0,0-1.1.6,2.12,2.12,0,0,0-.4,1.4v7.5h-2.6Z"/><path class="cls-8" d="M488.6,150.8a2.6,2.6,0,0,1-2.7-2.9v-.8a3.83,3.83,0,0,1,.5-1.9,2.07,2.07,0,0,1,1.4-1l2.7-.7a1.18,1.18,0,0,0,.9-1.2V142a1.16,1.16,0,0,0-.4-1,1.78,1.78,0,0,0-1-.4h-.2a1.16,1.16,0,0,0-1,.4,1.78,1.78,0,0,0-.4,1v.4h-2.5v-.2a3.45,3.45,0,0,1,3.7-3.7h.7a3.62,3.62,0,0,1,2.7,1,3.47,3.47,0,0,1,1,2.7v8.5h-2.5v-1.5a2.54,2.54,0,0,1-1.1,1.2,3,3,0,0,1-1.5.5h-.3Zm2.4-2.6a1.37,1.37,0,0,0,.4-1.1v-2.7a1.27,1.27,0,0,1-.9.7l-1.2.3c-.6.2-.8.6-.8,1.3v.7c0,.9.4,1.3,1.3,1.3h.1A1.39,1.39,0,0,0,491,148.2Z"/><path class="cls-8" d="M501.3,150.6V142c0-.9-.4-1.3-1.3-1.3h-.1a1.17,1.17,0,0,0-1.1.5,1.66,1.66,0,0,0-.5,1.2v8.3h-2.5v-12h2.5v1.5a2.94,2.94,0,0,1,1-1.2,2.69,2.69,0,0,1,1.5-.5h.2a2.72,2.72,0,0,1,2,.7,2.82,2.82,0,0,1,.7,2.1v9.3Z"/><path class="cls-8" d="M508.2,150.8a2.6,2.6,0,0,1-2.7-2.9v-6.5a2.82,2.82,0,0,1,.7-2.1,2.72,2.72,0,0,1,2-.7h.2a2.26,2.26,0,0,1,1.5.5,3.18,3.18,0,0,1,1.1,1.2V134h2.5v16.8H511v-1.5a2.54,2.54,0,0,1-1.1,1.2,3,3,0,0,1-1.5.5h-.2Zm2.3-2.7a1.66,1.66,0,0,0,.5-1.2v-4.6a1.46,1.46,0,0,0-.5-1.2,1.39,1.39,0,0,0-1.1-.5h-.1c-.9,0-1.3.4-1.3,1.3v5.3c0,.9.4,1.3,1.3,1.3h.1A1.19,1.19,0,0,0,510.5,148.1Z"/><path class="cls-8" d="M518.8,150.8a3.47,3.47,0,0,1-2.7-1,3.7,3.7,0,0,1-1-2.7v-5a3.45,3.45,0,0,1,3.7-3.7h.7a3.62,3.62,0,0,1,2.7,1,3.7,3.7,0,0,1,1,2.7V145h-5.5v2.3a1.28,1.28,0,0,0,.4,1,1.16,1.16,0,0,0,1,.4h.2a1.16,1.16,0,0,0,1-.4,1.53,1.53,0,0,0,.4-1v-.7h2.5v.5a3.62,3.62,0,0,1-1,2.7,3.7,3.7,0,0,1-2.7,1Zm.3-10.3a1.16,1.16,0,0,0-1,.4,1.78,1.78,0,0,0-.4,1v1.7h3v-1.7a1.16,1.16,0,0,0-.4-1,1.78,1.78,0,0,0-1-.4Z"/><path class="cls-8" d="M524.9,150.6v-12h2.5v2q.45-2.1,1.8-2.1h.1a.9.9,0,0,1,.5.1v2.7a2.25,2.25,0,0,0-.7-.1H529a1.15,1.15,0,0,0-1.1.6,2.12,2.12,0,0,0-.4,1.4v7.5h-2.6Z"/><path class="cls-8" d="M531.1,137.2v-3.3h2.5v3.3Zm0,13.4v-12h2.5v12Z"/><path class="cls-8" d="M541.1,150.6V142c0-.9-.4-1.3-1.3-1.3h-.1a1.17,1.17,0,0,0-1.1.5,1.66,1.66,0,0,0-.5,1.2v8.3h-2.5v-12h2.5v1.5a2.94,2.94,0,0,1,1-1.2,2.69,2.69,0,0,1,1.5-.5h.2a2.72,2.72,0,0,1,2,.7,2.82,2.82,0,0,1,.7,2.1v9.3Z"/><path class="cls-8" d="M548.1,149.6a2.6,2.6,0,0,1-2.7-2.9v-5.3a2.82,2.82,0,0,1,.7-2.1,2.72,2.72,0,0,1,2-.7h.2a2.26,2.26,0,0,1,1.5.5,3.18,3.18,0,0,1,1.1,1.2v-1.5h2.5v12.3a3,3,0,0,1-1,2.5,3.67,3.67,0,0,1-2.7.9H549a3.83,3.83,0,0,1-2.7-.9,3.38,3.38,0,0,1-1-2.5v-.3h2.5v.5a1.16,1.16,0,0,0,.4,1,1.53,1.53,0,0,0,1,.4h.2a1.16,1.16,0,0,0,1-.4,1.53,1.53,0,0,0,.4-1v-3.2a2.54,2.54,0,0,1-1.1,1.2,3,3,0,0,1-1.5.5h-.1Zm2.3-2.7a1.66,1.66,0,0,0,.5-1.2v-3.4a1.46,1.46,0,0,0-.5-1.2,1.39,1.39,0,0,0-1.1-.5h-.1c-.9,0-1.3.4-1.3,1.3V146c0,.9.4,1.3,1.3,1.3h.1A1.19,1.19,0,0,0,550.4,146.9Z"/><path class="cls-8" d="M554.6,152h.8a.74.74,0,0,0,.8-.8v-.6h-1.1v-3.3h2.7v3.8a2.35,2.35,0,0,1-.6,1.7,2.71,2.71,0,0,1-1.9.6h-.7V152Z"/><path class="cls-8" d="M565.9,150.8a2.6,2.6,0,0,1-2.7-2.9v-6.5a2.82,2.82,0,0,1,.7-2.1,2.72,2.72,0,0,1,2-.7h.2a2.26,2.26,0,0,1,1.5.5,4.15,4.15,0,0,1,1.1,1.2V134h2.5v16.8h-2.5v-1.5a2.54,2.54,0,0,1-1.1,1.2,3,3,0,0,1-1.5.5h-.2Zm2.3-2.7a1.66,1.66,0,0,0,.5-1.2v-4.6a1.46,1.46,0,0,0-.5-1.2,1.61,1.61,0,0,0-1.1-.5H567c-.9,0-1.3.4-1.3,1.3v5.3c0,.9.4,1.3,1.3,1.3h.1A1.19,1.19,0,0,0,568.2,148.1Z"/><path class="cls-8" d="M575.6,150.8a2.6,2.6,0,0,1-2.7-2.9v-.8a3.83,3.83,0,0,1,.5-1.9,2.07,2.07,0,0,1,1.4-1l2.7-.7a1.18,1.18,0,0,0,.9-1.2V142a1.16,1.16,0,0,0-.4-1,1.78,1.78,0,0,0-1-.4h-.2a1.16,1.16,0,0,0-1,.4,1.78,1.78,0,0,0-.4,1v.4h-2.5v-.2a3.45,3.45,0,0,1,3.7-3.7h.7a3.62,3.62,0,0,1,2.7,1,3.7,3.7,0,0,1,1,2.7v8.5h-2.5v-1.5a2.54,2.54,0,0,1-1.1,1.2,3,3,0,0,1-1.5.5h-.3Zm2.3-2.6a1.37,1.37,0,0,0,.4-1.1v-2.7a1.27,1.27,0,0,1-.9.7l-1.2.3c-.6.2-.8.6-.8,1.3v.7c0,.9.4,1.3,1.3,1.3h.1A1.27,1.27,0,0,0,577.9,148.2Z"/><path class="cls-8" d="M585.2,150.8a2.6,2.6,0,0,1-2.7-2.9v-.8a3.83,3.83,0,0,1,.5-1.9,2.07,2.07,0,0,1,1.4-1l2.7-.7a1.18,1.18,0,0,0,.9-1.2V142a1.16,1.16,0,0,0-.4-1,1.78,1.78,0,0,0-1-.4h-.2a1.16,1.16,0,0,0-1,.4,1.78,1.78,0,0,0-.4,1v.4h-2.5v-.2a3.47,3.47,0,0,1,1-2.7,3.7,3.7,0,0,1,2.7-1h.7a3.62,3.62,0,0,1,2.7,1,3.47,3.47,0,0,1,1,2.7v8.5h-2.5v-1.5a2.54,2.54,0,0,1-1.1,1.2,3,3,0,0,1-1.5.5h-.3Zm2.3-2.6a1.37,1.37,0,0,0,.4-1.1v-2.7a1.27,1.27,0,0,1-.9.7l-1.2.3c-.6.2-.8.6-.8,1.3v.7c0,.9.4,1.3,1.3,1.3h.1A1.17,1.17,0,0,0,587.5,148.2Z"/><path class="cls-8" d="M592.3,150.6V133.8h2.5v16.8Z"/><path class="cls-8" d="M600.1,150.8a2.09,2.09,0,0,1-2.4-2.3v-7.7h-1.6v-2.2h1.6v-2.1h2.5v2.2h2.1v2.2h-2.1v6.8a.9.9,0,0,0,1,1h.1a3.08,3.08,0,0,0,1-.1v2.1a8.08,8.08,0,0,1-1.6.1Z"/><path class="cls-8" d="M613.2,150.6V142c0-.9-.4-1.3-1.3-1.3h-.1a1.17,1.17,0,0,0-1.1.5,1.66,1.66,0,0,0-.5,1.2v8.3h-2.5V133.9h2.5v6.3a2.94,2.94,0,0,1,1-1.2,2.69,2.69,0,0,1,1.5-.5h.2a2.72,2.72,0,0,1,2,.7,2.82,2.82,0,0,1,.7,2.1v9.3Z"/><path class="cls-8" d="M621.1,150.8a3.47,3.47,0,0,1-2.7-1,3.7,3.7,0,0,1-1-2.7v-5a3.47,3.47,0,0,1,1-2.7,3.7,3.7,0,0,1,2.7-1h.7a3.62,3.62,0,0,1,2.7,1,3.47,3.47,0,0,1,1,2.7V145H620v2.3a1.28,1.28,0,0,0,.4,1,1.16,1.16,0,0,0,1,.4h.2a1.16,1.16,0,0,0,1-.4,1.53,1.53,0,0,0,.4-1v-.7h2.5v.5a3.62,3.62,0,0,1-1,2.7,3.7,3.7,0,0,1-2.7,1Zm.2-10.3a1.16,1.16,0,0,0-1,.4,1.78,1.78,0,0,0-.4,1v1.7h3v-1.7a1.16,1.16,0,0,0-.4-1,1.78,1.78,0,0,0-1-.4Z"/><path class="cls-8" d="M630.5,150.8a2.09,2.09,0,0,1-2.4-2.3v-7.7h-1.6v-2.2h1.6v-2.1h2.5v2.2h2.1v2.2h-2.1v6.8a.9.9,0,0,0,1,1h.1a3.08,3.08,0,0,0,1-.1v2.1a8.08,8.08,0,0,1-1.6.1Z"/><path class="cls-8" d="M641.5,150.8a3.47,3.47,0,0,1-2.7-1,3.7,3.7,0,0,1-1-2.7v-5a3.45,3.45,0,0,1,3.7-3.7h.7a3.62,3.62,0,0,1,2.7,1,3.47,3.47,0,0,1,1,2.7v5a3.62,3.62,0,0,1-1,2.7,3.7,3.7,0,0,1-2.7,1Zm1.4-2.6a1.53,1.53,0,0,0,.4-1v-5.1a1.05,1.05,0,0,0-.4-1,1.78,1.78,0,0,0-1-.4h-.2a1.16,1.16,0,0,0-1,.4,1.78,1.78,0,0,0-.4,1v5.1a1.37,1.37,0,0,0,1.4,1.4h.2A1.53,1.53,0,0,0,642.9,148.2Z"/><path class="cls-8" d="M652.5,150.8a2.26,2.26,0,0,1-1.5-.5,2.34,2.34,0,0,1-1-1.2v5.1h-2.5V138.6H650v1.5a2.94,2.94,0,0,1,1-1.2,3,3,0,0,1,1.5-.5h.2a2.72,2.72,0,0,1,2,.7,2.82,2.82,0,0,1,.7,2.1v6.5a2.6,2.6,0,0,1-2.7,2.9h-.2Zm.5-3.5V142c0-.9-.4-1.3-1.3-1.3h-.1a1.17,1.17,0,0,0-1.1.5,1.66,1.66,0,0,0-.5,1.2V147a1.46,1.46,0,0,0,.5,1.2,1.43,1.43,0,0,0,1.1.5h.1A1.28,1.28,0,0,0,653,147.3Z"/><path class="cls-8" d="M662.3,150.8a2.26,2.26,0,0,1-1.5-.5,2.34,2.34,0,0,1-1-1.2v5.1h-2.5V138.6h2.5v1.5a2.94,2.94,0,0,1,1-1.2,3,3,0,0,1,1.5-.5h.2a2.72,2.72,0,0,1,2,.7,2.82,2.82,0,0,1,.7,2.1v6.5a2.6,2.6,0,0,1-2.7,2.9h-.2Zm.4-3.5V142c0-.9-.4-1.3-1.3-1.3h-.1a1.17,1.17,0,0,0-1.1.5,1.66,1.66,0,0,0-.5,1.2V147a1.46,1.46,0,0,0,.5,1.2,1.43,1.43,0,0,0,1.1.5h.1A1.28,1.28,0,0,0,662.7,147.3Z"/><path class="cls-8" d="M670.4,150.8a3.47,3.47,0,0,1-2.7-1,3.7,3.7,0,0,1-1-2.7v-5a3.45,3.45,0,0,1,3.7-3.7h.7a3.62,3.62,0,0,1,2.7,1,3.7,3.7,0,0,1,1,2.7V145h-5.5v2.3a1.28,1.28,0,0,0,.4,1,1.16,1.16,0,0,0,1,.4h.2a1.16,1.16,0,0,0,1-.4,1.53,1.53,0,0,0,.4-1v-.7h2.5v.5a3.62,3.62,0,0,1-1,2.7,3.7,3.7,0,0,1-2.7,1Zm.2-10.3a1.16,1.16,0,0,0-1,.4,1.78,1.78,0,0,0-.4,1v1.7h3v-1.7a1.16,1.16,0,0,0-.4-1,1.78,1.78,0,0,0-1-.4Z"/><path class="cls-8" d="M676.4,150.6v-12h2.5v2q.45-2.1,1.8-2.1h.1a.9.9,0,0,1,.5.1v2.7a2.25,2.25,0,0,0-.7-.1h-.1a1.15,1.15,0,0,0-1.1.6,2.12,2.12,0,0,0-.4,1.4v7.5h-2.6Z"/><path class="cls-8" d="M684.3,150.6l-2.5-12h2.5l1.8,10.1,1.8-10.1h2.6l-2.5,12Z"/><path class="cls-8" d="M691.4,150.6V133.8h2.5v16.8Z"/><path class="cls-8" d="M698.4,150.8a2.6,2.6,0,0,1-2.7-2.9v-.8a3.83,3.83,0,0,1,.5-1.9,2.07,2.07,0,0,1,1.4-1l2.7-.7a1.18,1.18,0,0,0,.9-1.2V142a1.16,1.16,0,0,0-.4-1,1.78,1.78,0,0,0-1-.4h-.2a1.16,1.16,0,0,0-1,.4,1.78,1.78,0,0,0-.4,1v.4h-2.5v-.2a3.47,3.47,0,0,1,1-2.7,3.7,3.7,0,0,1,2.7-1h.7a3.62,3.62,0,0,1,2.7,1,3.7,3.7,0,0,1,1,2.7v8.5h-2.5v-1.5a2.54,2.54,0,0,1-1.1,1.2,3,3,0,0,1-1.5.5h-.3Zm2.4-2.6a1.37,1.37,0,0,0,.4-1.1v-2.7a1.27,1.27,0,0,1-.9.7l-1.2.3c-.6.2-.8.6-.8,1.3v.7c0,.9.4,1.3,1.3,1.3h.1A1.39,1.39,0,0,0,700.8,148.2Z"/><path class="cls-8" d="M711.2,150.6a3.58,3.58,0,0,1-.4-1.9V147a1.53,1.53,0,0,0-1.7-1.7h-1v5.3h-2.5V133.8h2.5v9.6h.9l2.4-4.8h2.5l-2.6,5.2a2.37,2.37,0,0,1,1.5.9,2.79,2.79,0,0,1,.6,1.8v2.3a9,9,0,0,0,.2,1.8Z"/><path class="cls-8" d="M718.6,150.8a2.09,2.09,0,0,1-2.4-2.3v-7.7h-1.6v-2.2h1.6v-2.1h2.5v2.2h2.1v2.2h-2.1v6.8a.9.9,0,0,0,1,1h.1a3.08,3.08,0,0,0,1-.1v2.1a8.08,8.08,0,0,1-1.6.1Z"/><path class="cls-8" d="M725.7,150.8a3.47,3.47,0,0,1-2.7-1,3.7,3.7,0,0,1-1-2.7v-5a3.45,3.45,0,0,1,3.7-3.7h.7a3.62,3.62,0,0,1,2.7,1,3.7,3.7,0,0,1,1,2.7V145h-5.5v2.3a1.28,1.28,0,0,0,.4,1,1.16,1.16,0,0,0,1,.4h.2a1.16,1.16,0,0,0,1-.4,1.53,1.53,0,0,0,.4-1v-.7h2.5v.5a3.62,3.62,0,0,1-1,2.7,3.7,3.7,0,0,1-2.7,1Zm.3-10.3a1.16,1.16,0,0,0-1,.4,1.78,1.78,0,0,0-.4,1v1.7h3v-1.7a1.16,1.16,0,0,0-.4-1,1.78,1.78,0,0,0-1-.4Z"/><path class="cls-8" d="M737.3,150.6l-2.5-12h2.5l1.8,10.1,1.8-10.1h2.6l-2.5,12Z"/><path class="cls-8" d="M746.9,150.8a2.6,2.6,0,0,1-2.7-2.9v-.8a3.83,3.83,0,0,1,.5-1.9,2.07,2.07,0,0,1,1.4-1l2.7-.7a1.18,1.18,0,0,0,.9-1.2V142a1.16,1.16,0,0,0-.4-1,1.78,1.78,0,0,0-1-.4h-.2a1.16,1.16,0,0,0-1,.4,1.78,1.78,0,0,0-.4,1v.4h-2.5v-.2a3.45,3.45,0,0,1,3.7-3.7h.7a3.62,3.62,0,0,1,2.7,1,3.7,3.7,0,0,1,1,2.7v8.5h-2.5v-1.5a2.54,2.54,0,0,1-1.1,1.2,3,3,0,0,1-1.5.5h-.3Zm2.4-2.6a1.37,1.37,0,0,0,.4-1.1v-2.7a1.27,1.27,0,0,1-.9.7l-1.2.3c-.6.2-.8.6-.8,1.3v.7c0,.9.4,1.3,1.3,1.3h.1A1.39,1.39,0,0,0,749.3,148.2Z"/><path class="cls-8" d="M759.6,150.6V142c0-.9-.4-1.3-1.3-1.3h-.1a1.17,1.17,0,0,0-1.1.5,1.66,1.66,0,0,0-.5,1.2v8.3h-2.5v-12h2.5v1.5a2.94,2.94,0,0,1,1-1.2,2.69,2.69,0,0,1,1.5-.5h.2a2.72,2.72,0,0,1,2,.7,2.82,2.82,0,0,1,.7,2.1v9.3Z"/><path class="cls-8" d="M48.7,179.4v-8.6c0-.9-.4-1.3-1.3-1.3h-.1a1.17,1.17,0,0,0-1.1.5,1.66,1.66,0,0,0-.5,1.2v8.3H43.2V162.7h2.5V169a2.94,2.94,0,0,1,1-1.2,3,3,0,0,1,1.5-.5h.2a2.72,2.72,0,0,1,2,.7,2.82,2.82,0,0,1,.7,2.1v9.3Z"/><path class="cls-8" d="M56.5,179.6a3.47,3.47,0,0,1-2.7-1,3.7,3.7,0,0,1-1-2.7v-5a3.45,3.45,0,0,1,3.7-3.7h.7a3.62,3.62,0,0,1,2.7,1,3.7,3.7,0,0,1,1,2.7v2.9H55.4v2.3a1.28,1.28,0,0,0,.4,1,1.16,1.16,0,0,0,1,.4H57a1.16,1.16,0,0,0,1-.4,1.53,1.53,0,0,0,.4-1v-.7h2.5v.5a3.62,3.62,0,0,1-1,2.7,3.7,3.7,0,0,1-2.7,1Zm.3-10.3a1.16,1.16,0,0,0-1,.4,1.78,1.78,0,0,0-.4,1v1.7h3v-1.7a1.16,1.16,0,0,0-.4-1,1.78,1.78,0,0,0-1-.4Z"/><path class="cls-8" d="M65.9,179.6a2.09,2.09,0,0,1-2.4-2.3v-7.7H61.9v-2.2h1.6v-2.2H66v2.2h2.1v2.2H66v6.8a.9.9,0,0,0,1,1h.1a3.08,3.08,0,0,0,1-.1v2.1a8.08,8.08,0,0,1-1.6.1h-.6Z"/><path class="cls-8" d="M73.5,179.4V162.6H76v16.8Z"/><path class="cls-8" d="M81.4,179.6a3.47,3.47,0,0,1-2.7-1,3.7,3.7,0,0,1-1-2.7v-5a3.45,3.45,0,0,1,3.7-3.7h.7a3.62,3.62,0,0,1,2.7,1,3.7,3.7,0,0,1,1,2.7v2.9H80.3v2.3a1.28,1.28,0,0,0,.4,1,1.16,1.16,0,0,0,1,.4h.2a1.16,1.16,0,0,0,1-.4,1.53,1.53,0,0,0,.4-1v-.7h2.5v.5a3.62,3.62,0,0,1-1,2.7,3.7,3.7,0,0,1-2.7,1Zm.2-10.3a1.16,1.16,0,0,0-1,.4,1.78,1.78,0,0,0-.4,1v1.7h3v-1.7a1.16,1.16,0,0,0-.4-1,1.78,1.78,0,0,0-1-.4Z"/><path class="cls-8" d="M90.9,179.6a3.47,3.47,0,0,1-2.7-1,3.7,3.7,0,0,1-1-2.7v-5a3.45,3.45,0,0,1,3.7-3.7h.7a3.62,3.62,0,0,1,2.7,1,3.7,3.7,0,0,1,1,2.7v2.9H89.8v2.3a1.28,1.28,0,0,0,.4,1,1.16,1.16,0,0,0,1,.4h.2a1.16,1.16,0,0,0,1-.4,1.53,1.53,0,0,0,.4-1v-.7h2.5v.5a3.62,3.62,0,0,1-1,2.7,3.7,3.7,0,0,1-2.7,1Zm.2-10.3a1.16,1.16,0,0,0-1,.4,1.78,1.78,0,0,0-.4,1v1.7h3v-1.7a1.16,1.16,0,0,0-.4-1,1.78,1.78,0,0,0-1-.4Z"/><path class="cls-8" d="M97.9,179.4v-9.8H96.3v-2.2h1.6V165a2.35,2.35,0,0,1,.7-1.9,3,3,0,0,1,2-.7h.3a8.08,8.08,0,0,1,1.6.1v2.1c-.3,0-.6-.1-1-.1h-.1a.9.9,0,0,0-1,1v1.8h2.1v2.2h-2.1v9.8H97.9Z"/><path class="cls-8" d="M106.3,178.4a2.6,2.6,0,0,1-2.7-2.9v-5.3a2.82,2.82,0,0,1,.7-2.1,2.72,2.72,0,0,1,2-.7h.2a2.26,2.26,0,0,1,1.5.5,4.15,4.15,0,0,1,1.1,1.2v-1.5h2.5v12.3a3,3,0,0,1-1,2.5,3.67,3.67,0,0,1-2.7.9h-.7a3.83,3.83,0,0,1-2.7-.9,3.38,3.38,0,0,1-1-2.5v-.3H106v.5a1.16,1.16,0,0,0,.4,1,1.53,1.53,0,0,0,1,.4h.2a1.16,1.16,0,0,0,1-.4,1.53,1.53,0,0,0,.4-1v-3.2a2.54,2.54,0,0,1-1.1,1.2,3,3,0,0,1-1.5.5h-.1Zm2.3-2.7a1.66,1.66,0,0,0,.5-1.2v-3.4a1.46,1.46,0,0,0-.5-1.2,1.39,1.39,0,0,0-1.1-.5h-.1c-.9,0-1.3.4-1.3,1.3v4.1c0,.9.4,1.3,1.3,1.3h.1A1.19,1.19,0,0,0,108.6,175.7Z"/><path class="cls-8" d="M116.9,179.6a3.47,3.47,0,0,1-2.7-1,3.7,3.7,0,0,1-1-2.7v-5a3.45,3.45,0,0,1,3.7-3.7h.7a3.62,3.62,0,0,1,2.7,1,3.7,3.7,0,0,1,1,2.7v2.9h-5.5v2.3a1.28,1.28,0,0,0,.4,1,1.16,1.16,0,0,0,1,.4h.2a1.16,1.16,0,0,0,1-.4,1.53,1.53,0,0,0,.4-1v-.7h2.5v.5a3.62,3.62,0,0,1-1,2.7,3.7,3.7,0,0,1-2.7,1Zm.2-10.3a1.16,1.16,0,0,0-1,.4,1.78,1.78,0,0,0-.4,1v1.7h3v-1.7a1.16,1.16,0,0,0-.4-1,1.78,1.78,0,0,0-1-.4Z"/><path class="cls-8" d="M128,179.6a2.26,2.26,0,0,1-1.5-.5,2.34,2.34,0,0,1-1-1.2v1.5H123V162.6h2.5v6.3a2.94,2.94,0,0,1,1-1.2,3,3,0,0,1,1.5-.5h.2a2.72,2.72,0,0,1,2,.7,2.82,2.82,0,0,1,.7,2.1v6.5a2.6,2.6,0,0,1-2.7,2.9H128Zm.5-3.5v-5.3c0-.9-.4-1.3-1.3-1.3h-.1a1.17,1.17,0,0,0-1.1.5,1.66,1.66,0,0,0-.5,1.2v4.6a1.46,1.46,0,0,0,.5,1.2,1.43,1.43,0,0,0,1.1.5h.1A1.34,1.34,0,0,0,128.5,176.1Z"/><path class="cls-8" d="M132.7,166v-3.3h2.5V166Zm0,13.4v-12h2.5v12Z"/><path class="cls-8" d="M140.6,179.6a3.47,3.47,0,0,1-2.7-1,3.7,3.7,0,0,1-1-2.7v-5a3.45,3.45,0,0,1,3.7-3.7h.7a3.62,3.62,0,0,1,2.7,1,3.7,3.7,0,0,1,1,2.7v2.9h-5.5v2.3a1.28,1.28,0,0,0,.4,1,1.16,1.16,0,0,0,1,.4h.2a1.16,1.16,0,0,0,1-.4,1.53,1.53,0,0,0,.4-1v-.7H145v.5a3.62,3.62,0,0,1-1,2.7,3.7,3.7,0,0,1-2.7,1Zm.2-10.3a1.16,1.16,0,0,0-1,.4,1.78,1.78,0,0,0-.4,1v1.7h3v-1.7a1.16,1.16,0,0,0-.4-1,1.78,1.78,0,0,0-1-.4Z"/><path class="cls-8" d="M149.2,179.6a2.6,2.6,0,0,1-2.7-2.9v-6.5a2.82,2.82,0,0,1,.7-2.1,2.72,2.72,0,0,1,2-.7h.2a2.26,2.26,0,0,1,1.5.5,4.15,4.15,0,0,1,1.1,1.2v-6.3h2.5v16.8H152v-1.5a2.54,2.54,0,0,1-1.1,1.2,3,3,0,0,1-1.5.5h-.2Zm2.3-2.7a1.66,1.66,0,0,0,.5-1.2v-4.6a1.46,1.46,0,0,0-.5-1.2,1.39,1.39,0,0,0-1.1-.5h-.1c-.9,0-1.3.4-1.3,1.3V176c0,.9.4,1.3,1.3,1.3h.1A1.19,1.19,0,0,0,151.5,176.9Z"/><path class="cls-8" d="M162.7,179.6a2.6,2.6,0,0,1-2.7-2.9v-6.5a2.82,2.82,0,0,1,.7-2.1,2.72,2.72,0,0,1,2-.7h.2a2.26,2.26,0,0,1,1.5.5,4.15,4.15,0,0,1,1.1,1.2v-6.3H168v16.8h-2.5v-1.5a2.54,2.54,0,0,1-1.1,1.2,3,3,0,0,1-1.5.5h-.2Zm2.3-2.7a1.66,1.66,0,0,0,.5-1.2v-4.6a1.46,1.46,0,0,0-.5-1.2,1.39,1.39,0,0,0-1.1-.5h-.1c-.9,0-1.3.4-1.3,1.3V176c0,.9.4,1.3,1.3,1.3h.1A1.19,1.19,0,0,0,165,176.9Z"/><path class="cls-8" d="M169.9,179.4v-12h2.5v2q.45-2.1,1.8-2.1h.1a.9.9,0,0,1,.5.1v2.7a2.25,2.25,0,0,0-.7-.1H174a1.15,1.15,0,0,0-1.1.6,2.12,2.12,0,0,0-.4,1.4v7.5h-2.6Z"/><path class="cls-8" d="M178.7,179.6a2.6,2.6,0,0,1-2.7-2.9v-.8a3.83,3.83,0,0,1,.5-1.9,2.07,2.07,0,0,1,1.4-1l2.7-.7a1.18,1.18,0,0,0,.9-1.2v-.3a1.16,1.16,0,0,0-.4-1,1.78,1.78,0,0,0-1-.4h-.2a1.16,1.16,0,0,0-1,.4,1.78,1.78,0,0,0-.4,1v.4H176V171a3.45,3.45,0,0,1,3.7-3.7h.7a3.62,3.62,0,0,1,2.7,1,3.7,3.7,0,0,1,1,2.7v8.5h-2.5V178a2.54,2.54,0,0,1-1.1,1.2,3,3,0,0,1-1.5.5h-.3ZM181,177a1.37,1.37,0,0,0,.4-1.1v-2.7a1.27,1.27,0,0,1-.9.7l-1.2.3c-.6.2-.8.6-.8,1.3v.7c0,.9.4,1.3,1.3,1.3h.1A1.27,1.27,0,0,0,181,177Z"/><path class="cls-8" d="M189.2,179.6a4.34,4.34,0,0,1-2.7-.8,2.87,2.87,0,0,1-1-2.2v-1.2H188v1a1,1,0,0,0,.4.9,1.49,1.49,0,0,0,1,.3h.2c.9,0,1.4-.4,1.4-1.2v-.8a1.2,1.2,0,0,0-1-1.3l-2.3-.6c-1.5-.4-2.2-1.2-2.2-2.5v-1a2.57,2.57,0,0,1,1-2.2,4.14,4.14,0,0,1,2.7-.8h.7a4.55,4.55,0,0,1,2.7.8,2.87,2.87,0,0,1,1,2.2v.8h-2.5v-.7c0-.8-.5-1.2-1.4-1.2h-.2a1.49,1.49,0,0,0-1,.3,1.27,1.27,0,0,0-.4.9v.6c0,.6.3.9.9,1.1l2.3.6c1.5.4,2.2,1.2,2.2,2.5v1.4a2.57,2.57,0,0,1-1,2.2,4.14,4.14,0,0,1-2.7.8h-.6Z"/><path class="cls-8" d="M198.6,179.6a2.09,2.09,0,0,1-2.4-2.3v-7.7h-1.6v-2.2h1.6v-2.2h2.5v2.2h2.1v2.2h-2.1v6.8a.9.9,0,0,0,1,1h.1a3.08,3.08,0,0,0,1-.1v2.1a8.08,8.08,0,0,1-1.6.1h-.6Z"/><path class="cls-8" d="M202.3,166v-3.3h2.5V166Zm0,13.4v-12h2.5v12Z"/><path class="cls-8" d="M210.2,179.6a4.34,4.34,0,0,1-2.7-.8,2.87,2.87,0,0,1-1-2.2v-1.2H209v1a1,1,0,0,0,.4.9,1.49,1.49,0,0,0,1,.3h.2c.9,0,1.4-.4,1.4-1.2v-.8a1.2,1.2,0,0,0-1-1.3l-2.3-.6c-1.5-.4-2.2-1.2-2.2-2.5v-1a2.57,2.57,0,0,1,1-2.2,4.14,4.14,0,0,1,2.7-.8h.7a4.55,4.55,0,0,1,2.7.8,2.87,2.87,0,0,1,1,2.2v.8h-2.5v-.7c0-.8-.5-1.2-1.4-1.2h-.2a1.49,1.49,0,0,0-1,.3,1.27,1.27,0,0,0-.4.9v.6c0,.6.3.9.9,1.1l2.3.6c1.5.4,2.2,1.2,2.2,2.5v1.4a2.57,2.57,0,0,1-1,2.2,4.14,4.14,0,0,1-2.7.8h-.6Z"/><path class="cls-8" d="M219.7,179.6a3.47,3.47,0,0,1-2.7-1,3.7,3.7,0,0,1-1-2.7v-5a3.45,3.45,0,0,1,3.7-3.7h.7a3.62,3.62,0,0,1,2.7,1,3.7,3.7,0,0,1,1,2.7v.9h-2.5v-1a1.05,1.05,0,0,0-.4-1,1.78,1.78,0,0,0-1-.4H220a1.16,1.16,0,0,0-1,.4,1.78,1.78,0,0,0-.4,1v5.1a1.37,1.37,0,0,0,1.4,1.4h.2a1.16,1.16,0,0,0,1-.4,1.53,1.53,0,0,0,.4-1v-1.3h2.5v1.3a3.62,3.62,0,0,1-1,2.7,3.7,3.7,0,0,1-2.7,1Z"/><path class="cls-8" d="M231.1,179.4v-8.6c0-.9-.4-1.3-1.3-1.3h-.1a1.17,1.17,0,0,0-1.1.5,1.66,1.66,0,0,0-.5,1.2v8.3h-2.5V162.7h2.5V169a2.94,2.94,0,0,1,1-1.2,3,3,0,0,1,1.5-.5h.2a2.72,2.72,0,0,1,2,.7,2.82,2.82,0,0,1,.7,2.1v9.3Z"/><path class="cls-8" d="M234.8,180.8h.8a.74.74,0,0,0,.8-.8v-.6h-1.1v-3.3H238v3.8a2.35,2.35,0,0,1-.6,1.7,2.71,2.71,0,0,1-1.9.6h-.7Z"/><path class="cls-8" d="M247,179.6a3.47,3.47,0,0,1-2.7-1,3.7,3.7,0,0,1-1-2.7v-5a3.45,3.45,0,0,1,3.7-3.7h.7a3.62,3.62,0,0,1,2.7,1,3.7,3.7,0,0,1,1,2.7v2.9h-5.5v2.3a1.28,1.28,0,0,0,.4,1,1.16,1.16,0,0,0,1,.4h.2a1.16,1.16,0,0,0,1-.4,1.53,1.53,0,0,0,.4-1v-.7h2.5v.5a3.62,3.62,0,0,1-1,2.7,3.7,3.7,0,0,1-2.7,1Zm.3-10.3a1.16,1.16,0,0,0-1,.4,1.78,1.78,0,0,0-.4,1v1.7h3v-1.7a1.16,1.16,0,0,0-.4-1,1.78,1.78,0,0,0-1-.4Z"/><path class="cls-8" d="M258.6,179.4v-8.6c0-.9-.4-1.3-1.3-1.3h-.1a1.17,1.17,0,0,0-1.1.5,1.66,1.66,0,0,0-.5,1.2v8.3h-2.5v-12h2.5V169a2.94,2.94,0,0,1,1-1.2,3,3,0,0,1,1.5-.5h.2a2.72,2.72,0,0,1,2,.7,2.82,2.82,0,0,1,.7,2.1v9.3Z"/><path class="cls-8" d="M266.7,179.4v-2.2l3.6-7.6h-3.6v-2.2H273v2.2l-3.6,7.6H273v2.2Z"/><path class="cls-8" d="M277.2,179.6a2.6,2.6,0,0,1-2.7-2.9v-.8a3.83,3.83,0,0,1,.5-1.9,2.07,2.07,0,0,1,1.4-1l2.7-.7a1.18,1.18,0,0,0,.9-1.2v-.3a1.16,1.16,0,0,0-.4-1,1.78,1.78,0,0,0-1-.4h-.3a1.16,1.16,0,0,0-1,.4,1.78,1.78,0,0,0-.4,1v.4h-2.5V171a3.45,3.45,0,0,1,3.7-3.7h.7a3.62,3.62,0,0,1,2.7,1,3.7,3.7,0,0,1,1,2.7v8.5H280V178a2.54,2.54,0,0,1-1.1,1.2,3,3,0,0,1-1.5.5h-.2Zm2.3-2.6a1.37,1.37,0,0,0,.4-1.1v-2.7a1.27,1.27,0,0,1-.9.7l-1.2.3c-.6.2-.8.6-.8,1.3v.7c0,.9.4,1.3,1.3,1.3h.1A1.17,1.17,0,0,0,279.5,177Z"/><path class="cls-8" d="M284.3,179.4V162.6h2.5v16.8Z"/><path class="cls-8" d="M298.1,179.4v-8.6c0-.9-.4-1.3-1.3-1.3h-.1a1.17,1.17,0,0,0-1.1.5,1.66,1.66,0,0,0-.5,1.2v8.3h-2.5V162.7h2.5V169a2.94,2.94,0,0,1,1-1.2,3,3,0,0,1,1.5-.5h.2a2.72,2.72,0,0,1,2,.7,2.82,2.82,0,0,1,.7,2.1v9.3Z"/><path class="cls-8" d="M306,179.6a3.47,3.47,0,0,1-2.7-1,3.7,3.7,0,0,1-1-2.7v-5a3.45,3.45,0,0,1,3.7-3.7h.7a3.62,3.62,0,0,1,2.7,1,3.7,3.7,0,0,1,1,2.7v2.9h-5.5v2.3a1.28,1.28,0,0,0,.4,1,1.16,1.16,0,0,0,1,.4h.2a1.16,1.16,0,0,0,1-.4,1.53,1.53,0,0,0,.4-1v-.7h2.5v.5a3.62,3.62,0,0,1-1,2.7,3.7,3.7,0,0,1-2.7,1Zm.3-10.3a1.16,1.16,0,0,0-1,.4,1.78,1.78,0,0,0-.4,1v1.7h3v-1.7a1.16,1.16,0,0,0-.4-1,1.78,1.78,0,0,0-1-.4Z"/><path class="cls-8" d="M315.4,179.6a2.09,2.09,0,0,1-2.4-2.3v-7.7h-1.6v-2.2H313v-2.2h2.5v2.2h2.1v2.2h-2.1v6.8a.9.9,0,0,0,1,1h.1a3.08,3.08,0,0,0,1-.1v2.1a8.08,8.08,0,0,1-1.6.1h-.6Z"/><path class="cls-8" d="M326.4,179.6a4.34,4.34,0,0,1-2.7-.8,2.87,2.87,0,0,1-1-2.2v-1.2h2.5v1a1,1,0,0,0,.4.9,1.49,1.49,0,0,0,1,.3h.2c.9,0,1.4-.4,1.4-1.2v-.8a1.2,1.2,0,0,0-1-1.3l-2.3-.6c-1.5-.4-2.2-1.2-2.2-2.5v-1a2.57,2.57,0,0,1,1-2.2,4.14,4.14,0,0,1,2.7-.8h.7a4.55,4.55,0,0,1,2.7.8,2.87,2.87,0,0,1,1,2.2v.8h-2.5v-.7c0-.8-.5-1.2-1.4-1.2h-.2a1.49,1.49,0,0,0-1,.3,1.27,1.27,0,0,0-.4.9v.6c0,.6.3.9.9,1.1l2.3.6c1.5.4,2.2,1.2,2.2,2.5v1.4a2.57,2.57,0,0,1-1,2.2,4.14,4.14,0,0,1-2.7.8h-.6Z"/><path class="cls-8" d="M338,179.4v-8.6c0-.9-.4-1.3-1.3-1.3h-.1a1.17,1.17,0,0,0-1.1.5,1.66,1.66,0,0,0-.5,1.2v8.3h-2.5v-12H335V169a2.94,2.94,0,0,1,1-1.2,3,3,0,0,1,1.5-.5h.2a2.72,2.72,0,0,1,2,.7,2.82,2.82,0,0,1,.7,2.1v9.3Z"/><path class="cls-8" d="M345.8,179.6a3.47,3.47,0,0,1-2.7-1,3.7,3.7,0,0,1-1-2.7v-5a3.45,3.45,0,0,1,3.7-3.7h.7a3.62,3.62,0,0,1,2.7,1,3.7,3.7,0,0,1,1,2.7v2.9h-5.5v2.3a1.28,1.28,0,0,0,.4,1,1.16,1.16,0,0,0,1,.4h.2a1.16,1.16,0,0,0,1-.4,1.53,1.53,0,0,0,.4-1v-.7h2.5v.5a3.62,3.62,0,0,1-1,2.7,3.7,3.7,0,0,1-2.7,1Zm.3-10.3a1.16,1.16,0,0,0-1,.4,1.78,1.78,0,0,0-.4,1v1.7h3v-1.7a1.16,1.16,0,0,0-.4-1,1.78,1.78,0,0,0-1-.4Z"/><path class="cls-8" d="M355.3,179.6a3.47,3.47,0,0,1-2.7-1,3.7,3.7,0,0,1-1-2.7v-5a3.45,3.45,0,0,1,3.7-3.7h.7a3.62,3.62,0,0,1,2.7,1,3.7,3.7,0,0,1,1,2.7v2.9h-5.5v2.3a1.28,1.28,0,0,0,.4,1,1.16,1.16,0,0,0,1,.4h.2a1.16,1.16,0,0,0,1-.4,1.53,1.53,0,0,0,.4-1v-.7h2.5v.5a3.62,3.62,0,0,1-1,2.7,3.7,3.7,0,0,1-2.7,1Zm.3-10.3a1.16,1.16,0,0,0-1,.4,1.78,1.78,0,0,0-.4,1v1.7h3v-1.7a1.16,1.16,0,0,0-.4-1,1.78,1.78,0,0,0-1-.4Z"/><path class="cls-8" d="M364.1,179.6a2.6,2.6,0,0,1-2.7-2.9v-9.3h2.5V176c0,.9.4,1.3,1.3,1.3h.1a1.61,1.61,0,0,0,1.1-.5,1.66,1.66,0,0,0,.5-1.2v-8.3h2.5v12h-2.5v-1.5a2.54,2.54,0,0,1-1.1,1.2,3,3,0,0,1-1.5.5h-.2Z"/><path class="cls-8" d="M379.2,179.4l-1.6-7.6-1.7,7.6h-3l-2.5-12h2.5l1.8,9.2,1.6-9.2h2.2l1.6,9.2,1.8-9.2h2.5l-2.5,12Z"/><path class="cls-8" d="M385.7,179.4V162.6h2.5v16.8Z"/><path class="cls-8" d="M392.9,179.6a2.6,2.6,0,0,1-2.7-2.9v-9.3h2.5V176c0,.9.4,1.3,1.3,1.3h.1a1.61,1.61,0,0,0,1.1-.5,1.66,1.66,0,0,0,.5-1.2v-8.3h2.5v12h-2.5v-1.5a2.54,2.54,0,0,1-1.1,1.2,3,3,0,0,1-1.5.5h-.2Z"/><path class="cls-8" d="M400.2,166v-3.3h2.5V166Zm0,13.4v-12h2.5v12Z"/><path class="cls-8" d="M409.7,179.6a2.26,2.26,0,0,1-1.5-.5,2.34,2.34,0,0,1-1-1.2V183h-2.5V167.4h2.5v1.5a2.94,2.94,0,0,1,1-1.2,3,3,0,0,1,1.5-.5h.2a2.72,2.72,0,0,1,2,.7,2.82,2.82,0,0,1,.7,2.1v6.5a2.6,2.6,0,0,1-2.7,2.9h-.2Zm.5-3.5v-5.3c0-.9-.4-1.3-1.3-1.3h-.1a1.17,1.17,0,0,0-1.1.5,1.66,1.66,0,0,0-.5,1.2v4.6a1.46,1.46,0,0,0,.5,1.2,1.43,1.43,0,0,0,1.1.5h.1A1.34,1.34,0,0,0,410.2,176.1Z"/><path class="cls-8" d="M416.9,179.6a2.6,2.6,0,0,1-2.7-2.9v-.8a3.83,3.83,0,0,1,.5-1.9,2.07,2.07,0,0,1,1.4-1l2.7-.7a1.18,1.18,0,0,0,.9-1.2v-.3a1.16,1.16,0,0,0-.4-1,1.78,1.78,0,0,0-1-.4h-.2a1.16,1.16,0,0,0-1,.4,1.78,1.78,0,0,0-.4,1v.4h-2.5V171a3.45,3.45,0,0,1,3.7-3.7h.7a3.62,3.62,0,0,1,2.7,1,3.7,3.7,0,0,1,1,2.7v8.5h-2.5V178a2.54,2.54,0,0,1-1.1,1.2,3,3,0,0,1-1.5.5h-.3Zm2.3-2.6a1.37,1.37,0,0,0,.4-1.1v-2.7a1.27,1.27,0,0,1-.9.7l-1.2.3c-.6.2-.8.6-.8,1.3v.7c0,.9.4,1.3,1.3,1.3h.1A1.27,1.27,0,0,0,419.2,177Z"/><path class="cls-8" d="M426.5,179.6a2.6,2.6,0,0,1-2.7-2.9v-.8a3.83,3.83,0,0,1,.5-1.9,2.07,2.07,0,0,1,1.4-1l2.7-.7a1.18,1.18,0,0,0,.9-1.2v-.3a1.16,1.16,0,0,0-.4-1,1.78,1.78,0,0,0-1-.4h-.2a1.16,1.16,0,0,0-1,.4,1.78,1.78,0,0,0-.4,1v.4h-2.5V171a3.45,3.45,0,0,1,3.7-3.7h.7a3.62,3.62,0,0,1,2.7,1,3.7,3.7,0,0,1,1,2.7v8.5h-2.6V178a2.54,2.54,0,0,1-1.1,1.2,3,3,0,0,1-1.5.5h-.2Zm2.3-2.6a1.37,1.37,0,0,0,.4-1.1v-2.7a1.27,1.27,0,0,1-.9.7l-1.2.3c-.6.2-.8.6-.8,1.3v.7c0,.9.4,1.3,1.3,1.3h.1A1.27,1.27,0,0,0,428.8,177Z"/><path class="cls-8" d="M433.6,179.4v-12h2.5v2q.45-2.1,1.8-2.1h.1a.9.9,0,0,1,.5.1v2.7a2.25,2.25,0,0,0-.7-.1h-.1a1.15,1.15,0,0,0-1.1.6,2.12,2.12,0,0,0-.4,1.4v7.5h-2.6Z"/><path class="cls-8" d="M442.3,179.6a2.6,2.6,0,0,1-2.7-2.9v-6.5a2.82,2.82,0,0,1,.7-2.1,2.72,2.72,0,0,1,2-.7h.2a2.26,2.26,0,0,1,1.5.5,4.15,4.15,0,0,1,1.1,1.2v-6.3h2.5v16.8h-2.5v-1.5a2.54,2.54,0,0,1-1.1,1.2,3,3,0,0,1-1.5.5h-.2Zm2.3-2.7a1.66,1.66,0,0,0,.5-1.2v-4.6a1.46,1.46,0,0,0-.5-1.2,1.61,1.61,0,0,0-1.1-.5h-.1c-.9,0-1.3.4-1.3,1.3V176c0,.9.4,1.3,1.3,1.3h.1A1.11,1.11,0,0,0,444.6,176.9Z"/><path class="cls-8" d="M453.4,179.4V162.6h2.5v16.8Z"/><path class="cls-8" d="M460.4,179.6a2.6,2.6,0,0,1-2.7-2.9v-.8a3.83,3.83,0,0,1,.5-1.9,2.07,2.07,0,0,1,1.4-1l2.7-.7a1.18,1.18,0,0,0,.9-1.2v-.3a1.16,1.16,0,0,0-.4-1,1.78,1.78,0,0,0-1-.4h-.2a1.16,1.16,0,0,0-1,.4,1.78,1.78,0,0,0-.4,1v.4h-2.5V171a3.47,3.47,0,0,1,1-2.7,3.7,3.7,0,0,1,2.7-1h.7a3.62,3.62,0,0,1,2.7,1,3.47,3.47,0,0,1,1,2.7v8.5h-2.5V178a2.54,2.54,0,0,1-1.1,1.2,3,3,0,0,1-1.5.5h-.3Zm2.3-2.6a1.37,1.37,0,0,0,.4-1.1v-2.7a1.27,1.27,0,0,1-.9.7l-1.2.3c-.6.2-.8.6-.8,1.3v.7c0,.9.4,1.3,1.3,1.3h.1A1.27,1.27,0,0,0,462.7,177Z"/><path class="cls-8" d="M470.8,179.6a2.09,2.09,0,0,1-2.4-2.3v-7.7h-1.6v-2.2h1.6v-2.2h2.5v2.2H473v2.2h-2.1v6.8a.9.9,0,0,0,1,1h.1a3.08,3.08,0,0,0,1-.1v2.1a8.08,8.08,0,0,1-1.6.1h-.6Z"/><path class="cls-8" d="M478,179.6a3.47,3.47,0,0,1-2.7-1,3.7,3.7,0,0,1-1-2.7v-5a3.45,3.45,0,0,1,3.7-3.7h.7a3.62,3.62,0,0,1,2.7,1,3.7,3.7,0,0,1,1,2.7v2.9h-5.5v2.3a1.28,1.28,0,0,0,.4,1,1.16,1.16,0,0,0,1,.4h.2a1.16,1.16,0,0,0,1-.4,1.53,1.53,0,0,0,.4-1v-.7h2.5v.5a3.62,3.62,0,0,1-1,2.7,3.7,3.7,0,0,1-2.7,1Zm.2-10.3a1.16,1.16,0,0,0-1,.4,1.78,1.78,0,0,0-.4,1v1.7h3v-1.7a1.16,1.16,0,0,0-.4-1,1.78,1.78,0,0,0-1-.4Z"/><path class="cls-8" d="M484,179.4v-12h2.5v2q.45-2.1,1.8-2.1h.1a.9.9,0,0,1,.5.1v2.7a2.25,2.25,0,0,0-.7-.1h-.1a1.15,1.15,0,0,0-1.1.6,2.12,2.12,0,0,0-.4,1.4v7.5H484Z"/><path class="cls-8" d="M499.6,179.4v-8.6c0-.9-.4-1.3-1.3-1.3h-.1a1.17,1.17,0,0,0-1.1.5,1.66,1.66,0,0,0-.5,1.2v8.3h-2.5v-12h2.5V169a2.94,2.94,0,0,1,1-1.2,3,3,0,0,1,1.5-.5h.2a2.72,2.72,0,0,1,2,.7,2.82,2.82,0,0,1,.7,2.1v9.3Z"/><path class="cls-8" d="M507.5,179.6a3.47,3.47,0,0,1-2.7-1,3.7,3.7,0,0,1-1-2.7v-5a3.45,3.45,0,0,1,3.7-3.7h.7a3.62,3.62,0,0,1,2.7,1,3.47,3.47,0,0,1,1,2.7v5a3.62,3.62,0,0,1-1,2.7,3.7,3.7,0,0,1-2.7,1ZM509,177a1.53,1.53,0,0,0,.4-1v-5.1a1.05,1.05,0,0,0-.4-1,1.78,1.78,0,0,0-1-.4h-.2a1.16,1.16,0,0,0-1,.4,1.78,1.78,0,0,0-.4,1V176a1.37,1.37,0,0,0,1.4,1.4h.2A1.78,1.78,0,0,0,509,177Z"/><path class="cls-8" d="M516,178.4a2.6,2.6,0,0,1-2.7-2.9v-5.3a2.82,2.82,0,0,1,.7-2.1,2.72,2.72,0,0,1,2-.7h.2a2.26,2.26,0,0,1,1.5.5,4.15,4.15,0,0,1,1.1,1.2v-1.5h2.5v12.3a3,3,0,0,1-1,2.5,3.67,3.67,0,0,1-2.7.9h-.7a3.83,3.83,0,0,1-2.7-.9,3.38,3.38,0,0,1-1-2.5v-.3h2.5v.5a1.16,1.16,0,0,0,.4,1,1.53,1.53,0,0,0,1,.4h.2a1.16,1.16,0,0,0,1-.4,1.53,1.53,0,0,0,.4-1v-3.2a2.54,2.54,0,0,1-1.1,1.2,3,3,0,0,1-1.5.5H516Zm2.3-2.7a1.66,1.66,0,0,0,.5-1.2v-3.4a1.46,1.46,0,0,0-.5-1.2,1.61,1.61,0,0,0-1.1-.5h-.1c-.9,0-1.3.4-1.3,1.3v4.1c0,.9.4,1.3,1.3,1.3h.1A1.11,1.11,0,0,0,518.3,175.7Z"/><path class="cls-8" d="M529.6,179.6a2.6,2.6,0,0,1-2.7-2.9v-.8a3.83,3.83,0,0,1,.5-1.9,2.07,2.07,0,0,1,1.4-1l2.7-.7a1.18,1.18,0,0,0,.9-1.2v-.3a1.16,1.16,0,0,0-.4-1,1.78,1.78,0,0,0-1-.4h-.2a1.16,1.16,0,0,0-1,.4,1.78,1.78,0,0,0-.4,1v.4h-2.5V171a3.45,3.45,0,0,1,3.7-3.7h.7a3.62,3.62,0,0,1,2.7,1,3.47,3.47,0,0,1,1,2.7v8.5h-2.5V178a2.54,2.54,0,0,1-1.1,1.2,3,3,0,0,1-1.5.5h-.3Zm2.3-2.6a1.37,1.37,0,0,0,.4-1.1v-2.7a1.27,1.27,0,0,1-.9.7l-1.2.3c-.6.2-.8.6-.8,1.3v.7c0,.9.4,1.3,1.3,1.3h.1A1.27,1.27,0,0,0,531.9,177Z"/><path class="cls-8" d="M536.7,179.4V162.6h2.5v16.8Z"/><path class="cls-8" d="M541.2,179.4V162.6h2.5v16.8Z"/><path class="cls-8" d="M549.1,179.6a3.47,3.47,0,0,1-2.7-1,3.7,3.7,0,0,1-1-2.7v-5a3.47,3.47,0,0,1,1-2.7,3.7,3.7,0,0,1,2.7-1h.7a3.62,3.62,0,0,1,2.7,1,3.47,3.47,0,0,1,1,2.7v2.9H548v2.3a1.28,1.28,0,0,0,.4,1,1.16,1.16,0,0,0,1,.4h.2a1.16,1.16,0,0,0,1-.4,1.53,1.53,0,0,0,.4-1v-.7h2.5v.5a3.62,3.62,0,0,1-1,2.7,3.7,3.7,0,0,1-2.7,1Zm.2-10.3a1.16,1.16,0,0,0-1,.4,1.78,1.78,0,0,0-.4,1v1.7h3v-1.7a1.16,1.16,0,0,0-.4-1,1.78,1.78,0,0,0-1-.4Z"/><path class="cls-8" d="M558.6,179.6a3.47,3.47,0,0,1-2.7-1,3.7,3.7,0,0,1-1-2.7v-5a3.45,3.45,0,0,1,3.7-3.7h.7a3.62,3.62,0,0,1,2.7,1,3.7,3.7,0,0,1,1,2.7v2.9h-5.5v2.3a1.28,1.28,0,0,0,.4,1,1.16,1.16,0,0,0,1,.4h.2a1.16,1.16,0,0,0,1-.4,1.53,1.53,0,0,0,.4-1v-.7H563v.5a3.62,3.62,0,0,1-1,2.7,3.7,3.7,0,0,1-2.7,1Zm.2-10.3a1.16,1.16,0,0,0-1,.4,1.78,1.78,0,0,0-.4,1v1.7h3v-1.7a1.16,1.16,0,0,0-.4-1,1.78,1.78,0,0,0-1-.4Z"/><path class="cls-8" d="M570.2,179.4v-8.6c0-.9-.4-1.3-1.3-1.3h-.1a1.17,1.17,0,0,0-1.1.5,1.66,1.66,0,0,0-.5,1.2v8.3h-2.5v-12h2.5V169a2.94,2.94,0,0,1,1-1.2,3,3,0,0,1,1.5-.5h.2a2.72,2.72,0,0,1,2,.7,2.82,2.82,0,0,1,.7,2.1v9.3Z"/><path class="cls-8" d="M589,179.4v-8.6c0-.9-.4-1.3-1.2-1.3h-.1a1.39,1.39,0,0,0-1,.5,1.66,1.66,0,0,0-.5,1.2v8.3h-2.5v-8.6c0-.9-.4-1.3-1.2-1.3h-.1a1.39,1.39,0,0,0-1,.5,1.66,1.66,0,0,0-.5,1.2v8.3h-2.5v-12h2.5v1.5a2.94,2.94,0,0,1,1-1.2,3,3,0,0,1,1.5-.5h.1A2.46,2.46,0,0,1,586,169a2.54,2.54,0,0,1,1.1-1.2,3,3,0,0,1,1.6-.5h.1a2.56,2.56,0,0,1,1.9.8,2.82,2.82,0,0,1,.7,2.1v9.3H589Z"/><path class="cls-8" d="M596,179.6a2.6,2.6,0,0,1-2.7-2.9v-.8a3.83,3.83,0,0,1,.5-1.9,2.07,2.07,0,0,1,1.4-1l2.7-.7a1.18,1.18,0,0,0,.9-1.2v-.3a1.16,1.16,0,0,0-.4-1,1.78,1.78,0,0,0-1-.4h-.2a1.16,1.16,0,0,0-1,.4,1.78,1.78,0,0,0-.4,1v.4h-2.5V171a3.45,3.45,0,0,1,3.7-3.7h.7a3.62,3.62,0,0,1,2.7,1,3.7,3.7,0,0,1,1,2.7v8.5h-2.5V178a2.54,2.54,0,0,1-1.1,1.2,3,3,0,0,1-1.5.5H596Zm2.3-2.6a1.37,1.37,0,0,0,.4-1.1v-2.7a1.27,1.27,0,0,1-.9.7l-1.2.3c-.6.2-.8.6-.8,1.3v.7c0,.9.4,1.3,1.3,1.3h.1A1.27,1.27,0,0,0,598.3,177Z"/><path class="cls-8" d="M605.6,179.6a2.6,2.6,0,0,1-2.7-2.9v-.8a3.83,3.83,0,0,1,.5-1.9,2.07,2.07,0,0,1,1.4-1l2.7-.7a1.18,1.18,0,0,0,.9-1.2v-.3a1.16,1.16,0,0,0-.4-1,1.78,1.78,0,0,0-1-.4h-.2a1.16,1.16,0,0,0-1,.4,1.78,1.78,0,0,0-.4,1v.4h-2.5V171a3.47,3.47,0,0,1,1-2.7,3.7,3.7,0,0,1,2.7-1h.7a3.62,3.62,0,0,1,2.7,1,3.47,3.47,0,0,1,1,2.7v8.5h-2.5V178a2.54,2.54,0,0,1-1.1,1.2,3,3,0,0,1-1.5.5h-.3Zm2.3-2.6a1.37,1.37,0,0,0,.4-1.1v-2.7a1.27,1.27,0,0,1-.9.7l-1.2.3c-.6.2-.8.6-.8,1.3v.7c0,.9.4,1.3,1.3,1.3h.1A1.27,1.27,0,0,0,607.9,177Z"/><path class="cls-8" d="M612.7,179.4v-12h2.5v2q.45-2.1,1.8-2.1h.1a.9.9,0,0,1,.5.1v2.7a2.25,2.25,0,0,0-.7-.1h-.1a1.15,1.15,0,0,0-1.1.6,2.12,2.12,0,0,0-.4,1.4v7.5h-2.6Z"/><path class="cls-8" d="M622.8,166v-3.3h2.5V166Zm0,13.4v-12h2.5v12Z"/><path class="cls-8" d="M632.7,179.4v-8.6c0-.9-.4-1.3-1.3-1.3h-.1a1.17,1.17,0,0,0-1.1.5,1.66,1.66,0,0,0-.5,1.2v8.3h-2.5v-12h2.5V169a2.94,2.94,0,0,1,1-1.2,2.69,2.69,0,0,1,1.5-.5h.2a2.72,2.72,0,0,1,2,.7,2.82,2.82,0,0,1,.7,2.1v9.3Z"/><path class="cls-8" d="M643.5,178.4a2.6,2.6,0,0,1-2.7-2.9v-5.3a2.82,2.82,0,0,1,.7-2.1,2.72,2.72,0,0,1,2-.7h.2a2.26,2.26,0,0,1,1.5.5,3.18,3.18,0,0,1,1.1,1.2v-1.5h2.5v12.3a3,3,0,0,1-1,2.5,3.67,3.67,0,0,1-2.7.9h-.7a3.83,3.83,0,0,1-2.7-.9,3.38,3.38,0,0,1-1-2.5v-.3h2.5v.5a1.16,1.16,0,0,0,.4,1,1.53,1.53,0,0,0,1,.4h.2a1.16,1.16,0,0,0,1-.4,1.53,1.53,0,0,0,.4-1v-3.2a2.54,2.54,0,0,1-1.1,1.2,3,3,0,0,1-1.5.5h-.1Zm2.3-2.7a1.66,1.66,0,0,0,.5-1.2v-3.4a1.46,1.46,0,0,0-.5-1.2,1.39,1.39,0,0,0-1.1-.5h-.1c-.9,0-1.3.4-1.3,1.3v4.1c0,.9.4,1.3,1.3,1.3h.1A1.11,1.11,0,0,0,645.8,175.7Z"/><path class="cls-8" d="M654.2,179.6a3.47,3.47,0,0,1-2.7-1,3.7,3.7,0,0,1-1-2.7v-5a3.45,3.45,0,0,1,3.7-3.7h.7a3.62,3.62,0,0,1,2.7,1,3.7,3.7,0,0,1,1,2.7v2.9h-5.5v2.3a1.28,1.28,0,0,0,.4,1,1.16,1.16,0,0,0,1,.4h.2a1.16,1.16,0,0,0,1-.4,1.53,1.53,0,0,0,.4-1v-.7h2.5v.5a3.62,3.62,0,0,1-1,2.7,3.7,3.7,0,0,1-2.7,1Zm.2-10.3a1.16,1.16,0,0,0-1,.4,1.78,1.78,0,0,0-.4,1v1.7h3v-1.7a1.16,1.16,0,0,0-.4-1,1.78,1.78,0,0,0-1-.4Z"/><path class="cls-8" d="M661.9,179.4l-2.5-12h2.5l1.8,10.1,1.8-10.1h2.6l-2.5,12Z"/><path class="cls-8" d="M671.5,179.6a2.6,2.6,0,0,1-2.7-2.9v-.8a3.83,3.83,0,0,1,.5-1.9,2.07,2.07,0,0,1,1.4-1l2.7-.7a1.18,1.18,0,0,0,.9-1.2v-.3a1.16,1.16,0,0,0-.4-1,1.78,1.78,0,0,0-1-.4h-.2a1.16,1.16,0,0,0-1,.4,1.78,1.78,0,0,0-.4,1v.4h-2.5V171a3.45,3.45,0,0,1,3.7-3.7h.7a3.62,3.62,0,0,1,2.7,1,3.7,3.7,0,0,1,1,2.7v8.5h-2.5V178a2.54,2.54,0,0,1-1.1,1.2,3,3,0,0,1-1.5.5h-.3Zm2.4-2.6a1.37,1.37,0,0,0,.4-1.1v-2.7a1.27,1.27,0,0,1-.9.7l-1.2.3c-.6.2-.8.6-.8,1.3v.7c0,.9.4,1.3,1.3,1.3h.1A1.39,1.39,0,0,0,673.9,177Z"/><path class="cls-8" d="M684.1,179.4v-8.6c0-.9-.4-1.3-1.3-1.3h-.1a1.17,1.17,0,0,0-1.1.5,1.66,1.66,0,0,0-.5,1.2v8.3h-2.5v-12h2.5V169a2.94,2.94,0,0,1,1-1.2,2.69,2.69,0,0,1,1.5-.5h.2a2.72,2.72,0,0,1,2,.7,2.82,2.82,0,0,1,.7,2.1v9.3Z"/><path class="cls-8" d="M691.1,178.4a2.6,2.6,0,0,1-2.7-2.9v-5.3a2.82,2.82,0,0,1,.7-2.1,2.72,2.72,0,0,1,2-.7h.2a2.26,2.26,0,0,1,1.5.5,3.18,3.18,0,0,1,1.1,1.2v-1.5h2.5v12.3a3,3,0,0,1-1,2.5,3.67,3.67,0,0,1-2.7.9H692a3.83,3.83,0,0,1-2.7-.9,3.38,3.38,0,0,1-1-2.5v-.3h2.5v.5a1.16,1.16,0,0,0,.4,1,1.53,1.53,0,0,0,1,.4h.2a1.16,1.16,0,0,0,1-.4,1.53,1.53,0,0,0,.4-1v-3.2a2.54,2.54,0,0,1-1.1,1.2,3,3,0,0,1-1.5.5h-.1Zm2.3-2.7a1.66,1.66,0,0,0,.5-1.2v-3.4a1.46,1.46,0,0,0-.5-1.2,1.39,1.39,0,0,0-1.1-.5h-.1c-.9,0-1.3.4-1.3,1.3v4.1c0,.9.4,1.3,1.3,1.3h.1A1.19,1.19,0,0,0,693.4,175.7Z"/><path class="cls-8" d="M701.7,179.6a3.47,3.47,0,0,1-2.7-1,3.7,3.7,0,0,1-1-2.7v-5a3.45,3.45,0,0,1,3.7-3.7h.7a3.62,3.62,0,0,1,2.7,1,3.7,3.7,0,0,1,1,2.7v2.9h-5.5v2.3a1.28,1.28,0,0,0,.4,1,1.16,1.16,0,0,0,1,.4h.2a1.16,1.16,0,0,0,1-.4,1.53,1.53,0,0,0,.4-1v-.7h2.5v.5a3.62,3.62,0,0,1-1,2.7,3.7,3.7,0,0,1-2.7,1Zm.3-10.3a1.16,1.16,0,0,0-1,.4,1.78,1.78,0,0,0-.4,1v1.7h3v-1.7a1.16,1.16,0,0,0-.4-1,1.78,1.78,0,0,0-1-.4Z"/><path class="cls-8" d="M713.3,179.4v-8.6c0-.9-.4-1.3-1.3-1.3h-.1a1.17,1.17,0,0,0-1.1.5,1.66,1.66,0,0,0-.5,1.2v8.3h-2.5v-12h2.5V169a2.94,2.94,0,0,1,1-1.2,2.69,2.69,0,0,1,1.5-.5h.2a2.72,2.72,0,0,1,2,.7,2.82,2.82,0,0,1,.7,2.1v9.3Z"/><path class="cls-8" d="M721.2,179.6a4.34,4.34,0,0,1-2.7-.8,2.87,2.87,0,0,1-1-2.2v-1.2H720v1a1,1,0,0,0,.4.9,1.49,1.49,0,0,0,1,.3h.2c.9,0,1.4-.4,1.4-1.2v-.8a1.2,1.2,0,0,0-1-1.3l-2.3-.6c-1.5-.4-2.2-1.2-2.2-2.5v-1a2.57,2.57,0,0,1,1-2.2,4.14,4.14,0,0,1,2.7-.8h.7a4.55,4.55,0,0,1,2.7.8,2.87,2.87,0,0,1,1,2.2v.8h-2.5v-.7c0-.8-.5-1.2-1.4-1.2h-.2a1.49,1.49,0,0,0-1,.3,1.27,1.27,0,0,0-.4.9v.6c0,.6.3.9.9,1.1l2.3.6c1.5.4,2.2,1.2,2.2,2.5v1.4a2.57,2.57,0,0,1-1,2.2,4.14,4.14,0,0,1-2.7.8h-.6Z"/><path class="cls-8" d="M730.7,179.6a3.47,3.47,0,0,1-2.7-1,3.7,3.7,0,0,1-1-2.7v-5a3.45,3.45,0,0,1,3.7-3.7h.7a3.62,3.62,0,0,1,2.7,1,3.7,3.7,0,0,1,1,2.7v.9h-2.5v-1a1.05,1.05,0,0,0-.4-1,1.78,1.78,0,0,0-1-.4H731a1.16,1.16,0,0,0-1,.4,1.78,1.78,0,0,0-.4,1v5.1a1.37,1.37,0,0,0,1.4,1.4h.2a1.16,1.16,0,0,0,1-.4,1.53,1.53,0,0,0,.4-1v-1.3h2.5v1.3a3.62,3.62,0,0,1-1,2.7,3.7,3.7,0,0,1-2.7,1Z"/><path class="cls-8" d="M742.1,179.4v-8.6c0-.9-.4-1.3-1.3-1.3h-.1a1.17,1.17,0,0,0-1.1.5,1.66,1.66,0,0,0-.5,1.2v8.3h-2.5V162.7h2.5V169a2.94,2.94,0,0,1,1-1.2,2.69,2.69,0,0,1,1.5-.5h.2a2.72,2.72,0,0,1,2,.7,2.82,2.82,0,0,1,.7,2.1v9.3Z"/><path class="cls-8" d="M749,179.6a2.6,2.6,0,0,1-2.7-2.9v-.8a3.83,3.83,0,0,1,.5-1.9,2.07,2.07,0,0,1,1.4-1l2.7-.7a1.18,1.18,0,0,0,.9-1.2v-.3a1.16,1.16,0,0,0-.4-1,1.78,1.78,0,0,0-1-.4h-.2a1.16,1.16,0,0,0-1,.4,1.78,1.78,0,0,0-.4,1v.4h-2.5V171a3.45,3.45,0,0,1,3.7-3.7h.7a3.62,3.62,0,0,1,2.7,1,3.7,3.7,0,0,1,1,2.7v8.5h-2.5V178a2.54,2.54,0,0,1-1.1,1.2,3,3,0,0,1-1.5.5H749Zm2.3-2.6a1.37,1.37,0,0,0,.4-1.1v-2.7a1.27,1.27,0,0,1-.9.7l-1.2.3c-.6.2-.8.6-.8,1.3v.7c0,.9.4,1.3,1.3,1.3h.1A1.17,1.17,0,0,0,751.3,177Z"/><path class="cls-8" d="M761.2,179.6a2.26,2.26,0,0,1-1.5-.5,2.81,2.81,0,0,1-1-1.2V183h-2.5V167.4h2.5v1.5a2.94,2.94,0,0,1,1-1.2,2.69,2.69,0,0,1,1.5-.5h.2a2.72,2.72,0,0,1,2,.7,2.82,2.82,0,0,1,.7,2.1v6.5a2.6,2.6,0,0,1-2.7,2.9h-.2Zm.4-3.5v-5.3c0-.9-.4-1.3-1.3-1.3h-.1a1.17,1.17,0,0,0-1.1.5,1.66,1.66,0,0,0-.5,1.2v4.6a1.46,1.46,0,0,0,.5,1.2,1.43,1.43,0,0,0,1.1.5h.1A1.28,1.28,0,0,0,761.6,176.1Z"/><path class="cls-8" d="M48.8,208.2a3.58,3.58,0,0,1-.4-1.9v-1.7a1.53,1.53,0,0,0-1.7-1.7h-1v5.3H43.2V191.4h2.5V201h.9l2.4-4.8h2.5l-2.6,5.2a2.37,2.37,0,0,1,1.5.9,2.79,2.79,0,0,1,.6,1.8v2.3a9,9,0,0,0,.2,1.8Z"/><path class="cls-8" d="M55.6,208.4a2.6,2.6,0,0,1-2.7-2.9v-9.3h2.5v8.6c0,.9.4,1.3,1.3,1.3h.1a1.61,1.61,0,0,0,1.1-.5,1.66,1.66,0,0,0,.5-1.2v-8.3h2.5v12H58.4v-1.5a2.54,2.54,0,0,1-1.1,1.2,3,3,0,0,1-1.5.5h-.2Z"/><path class="cls-8" d="M68.4,208.2v-8.6c0-.9-.4-1.3-1.3-1.3H67a1.17,1.17,0,0,0-1.1.5,1.66,1.66,0,0,0-.5,1.2v8.3H62.9v-12h2.5v1.5a2.94,2.94,0,0,1,1-1.2,3,3,0,0,1,1.5-.5h.2a2.72,2.72,0,0,1,2,.7,2.82,2.82,0,0,1,.7,2.1v9.3Z"/><path class="cls-8" d="M78.3,208.2v-8.6c0-.9-.4-1.3-1.3-1.3h-.1a1.17,1.17,0,0,0-1.1.5,1.66,1.66,0,0,0-.5,1.2v8.3H72.8v-12h2.5v1.5a2.94,2.94,0,0,1,1-1.2,3,3,0,0,1,1.5-.5H78a2.72,2.72,0,0,1,2,.7,2.82,2.82,0,0,1,.7,2.1v9.3Z"/><path class="cls-8" d="M86.2,208.4a3.47,3.47,0,0,1-2.7-1,3.7,3.7,0,0,1-1-2.7v-5a3.45,3.45,0,0,1,3.7-3.7h.7a3.62,3.62,0,0,1,2.7,1,3.7,3.7,0,0,1,1,2.7v2.9H85.1v2.3a1.28,1.28,0,0,0,.4,1,1.16,1.16,0,0,0,1,.4h.2a1.16,1.16,0,0,0,1-.4,1.53,1.53,0,0,0,.4-1v-.7h2.5v.5a3.62,3.62,0,0,1-1,2.7,3.7,3.7,0,0,1-2.7,1Zm.2-10.3a1.16,1.16,0,0,0-1,.4,1.78,1.78,0,0,0-.4,1v1.7h3v-1.7a1.16,1.16,0,0,0-.4-1,1.78,1.78,0,0,0-1-.4Z"/><path class="cls-8" d="M97.8,208.2v-8.6c0-.9-.4-1.3-1.3-1.3h-.2a1.17,1.17,0,0,0-1.1.5,1.66,1.66,0,0,0-.5,1.2v8.3H92.3v-12h2.5v1.5a2.94,2.94,0,0,1,1-1.2,3,3,0,0,1,1.5-.5h.2a2.72,2.72,0,0,1,2,.7,2.82,2.82,0,0,1,.7,2.1v9.3Z"/><path class="cls-8" d="M106.1,208.2V191.4h2.5v16.8Z"/><path class="cls-8" d="M114,208.4a3.47,3.47,0,0,1-2.7-1,3.7,3.7,0,0,1-1-2.7v-5A3.45,3.45,0,0,1,114,196h.7a3.62,3.62,0,0,1,2.7,1,3.7,3.7,0,0,1,1,2.7v2.9h-5.5v2.3a1.28,1.28,0,0,0,.4,1,1.16,1.16,0,0,0,1,.4h.2a1.16,1.16,0,0,0,1-.4,1.53,1.53,0,0,0,.4-1v-.7h2.5v.5a3.62,3.62,0,0,1-1,2.7,3.7,3.7,0,0,1-2.7,1Zm.2-10.3a1.16,1.16,0,0,0-1,.4,1.78,1.78,0,0,0-.4,1v1.7h3v-1.7a1.16,1.16,0,0,0-.4-1,1.78,1.78,0,0,0-1-.4Z"/><path class="cls-8" d="M121.6,208.2l-2.5-12h2.5l1.8,10.1,1.8-10.1h2.6l-2.5,12Z"/><path class="cls-8" d="M132.2,208.4a3.47,3.47,0,0,1-2.7-1,3.7,3.7,0,0,1-1-2.7v-5a3.45,3.45,0,0,1,3.7-3.7h.7a3.62,3.62,0,0,1,2.7,1,3.7,3.7,0,0,1,1,2.7v2.9h-5.5v2.3a1.28,1.28,0,0,0,.4,1,1.16,1.16,0,0,0,1,.4h.2a1.16,1.16,0,0,0,1-.4,1.53,1.53,0,0,0,.4-1v-.7h2.5v.5a3.62,3.62,0,0,1-1,2.7,3.7,3.7,0,0,1-2.7,1Zm.3-10.3a1.16,1.16,0,0,0-1,.4,1.78,1.78,0,0,0-.4,1v1.7h3v-1.7a1.16,1.16,0,0,0-.4-1,1.78,1.78,0,0,0-1-.4Z"/><path class="cls-8" d="M143.8,208.2v-8.6c0-.9-.4-1.3-1.3-1.3h-.1a1.17,1.17,0,0,0-1.1.5,1.66,1.66,0,0,0-.5,1.2v8.3h-2.5v-12h2.5v1.5a2.94,2.94,0,0,1,1-1.2,3,3,0,0,1,1.5-.5h.2a2.72,2.72,0,0,1,2,.7,2.82,2.82,0,0,1,.7,2.1v9.3Z"/><path class="cls-8" d="M148,208.2v-3.3h2.7v3.3Z"/><path class="cls-8" d="M53,265.8l-2.1-11.9-2.1,11.9H45.6L42.3,249h2.8l2.3,12.6,2-12.6h2.7l2,12.6L56.5,249h2.8L56,265.8Z"/><path class="cls-8" d="M60.7,252.4v-3.3h2.5v3.3Zm0,13.4v-12h2.5v12Z"/><path class="cls-8" d="M65.2,265.8V249h2.5v16.8Z"/><path class="cls-8" d="M73,269.6a5.7,5.7,0,0,1-1.3-.1v-1.8a2.81,2.81,0,0,0,.8.1h.1a.9.9,0,0,0,1-1V253.9h2.5v13.2a2.35,2.35,0,0,1-.7,1.9,3,3,0,0,1-2,.7H73Zm.5-17.2v-3.3H76v3.3Z"/><path class="cls-8" d="M78,252.4v-3.3h2.5v3.3Zm0,13.4v-12h2.5v12Z"/><path class="cls-8" d="M82,269.6a5.7,5.7,0,0,1-1.3-.1v-1.8a2.81,2.81,0,0,0,.8.1h.1a.9.9,0,0,0,1-1V253.9h2.5v13.2a2.35,2.35,0,0,1-.7,1.9,3,3,0,0,1-2,.7H82Zm.5-17.2v-3.3H85v3.3Z"/><path class="cls-8" d="M93.3,266a2.6,2.6,0,0,1-2.7-2.9v-6.5a2.82,2.82,0,0,1,.7-2.1,2.72,2.72,0,0,1,2-.7h.2a2.26,2.26,0,0,1,1.5.5,3.18,3.18,0,0,1,1.1,1.2v-6.3h2.5V266H96.1v-1.5a2.54,2.54,0,0,1-1.1,1.2,3,3,0,0,1-1.5.5h-.2Zm2.3-2.7a1.66,1.66,0,0,0,.5-1.2v-4.6a1.46,1.46,0,0,0-.5-1.2,1.61,1.61,0,0,0-1.1-.5h-.1c-.9,0-1.3.4-1.3,1.3v5.3c0,.9.4,1.3,1.3,1.3h.1A1.19,1.19,0,0,0,95.6,263.3Z"/><path class="cls-8" d="M100.5,252.4v-3.3H103v3.3Zm0,13.4v-12H103v12Z"/><path class="cls-8" d="M108.3,266a2.09,2.09,0,0,1-2.4-2.3V256h-1.6v-2.2h1.6v-2.2h2.5v2.2h2.1V256h-2.1v6.8a.9.9,0,0,0,1,1h.1a3.08,3.08,0,0,0,1-.1v2.1a8.08,8.08,0,0,1-1.6.1h-.6Z"/><path class="cls-8" d="M119.2,266a2.09,2.09,0,0,1-2.4-2.3V256h-1.6v-2.2h1.6v-2.2h2.5v2.2h2.1V256h-2.1v6.8a.9.9,0,0,0,1,1h.1a3.08,3.08,0,0,0,1-.1v2.1a8.08,8.08,0,0,1-1.6.1h-.6Z"/><path class="cls-8" d="M126.4,266a3.45,3.45,0,0,1-3.7-3.7v-5a3.47,3.47,0,0,1,1-2.7,3.7,3.7,0,0,1,2.7-1h.7a3.62,3.62,0,0,1,2.7,1,3.7,3.7,0,0,1,1,2.7v2.9h-5.5v2.3a1.28,1.28,0,0,0,.4,1,1.16,1.16,0,0,0,1,.4h.2a1.16,1.16,0,0,0,1-.4,1.53,1.53,0,0,0,.4-1v-.7h2.5v.5a3.62,3.62,0,0,1-1,2.7,3.7,3.7,0,0,1-2.7,1Zm.2-10.3a1.16,1.16,0,0,0-1,.4,1.78,1.78,0,0,0-.4,1v1.7h3v-1.7a1.16,1.16,0,0,0-.4-1,1.78,1.78,0,0,0-1-.4Z"/><path class="cls-8" d="M134.9,264.8a2.6,2.6,0,0,1-2.7-2.9v-5.3a2.82,2.82,0,0,1,.7-2.1,2.72,2.72,0,0,1,2-.7h.2a2.26,2.26,0,0,1,1.5.5,3.18,3.18,0,0,1,1.1,1.2V254h2.5v12.3a3,3,0,0,1-1,2.5,3.67,3.67,0,0,1-2.7.9h-.7a3.83,3.83,0,0,1-2.7-.9,3.38,3.38,0,0,1-1-2.5V266h2.5v.5a1.16,1.16,0,0,0,.4,1,1.53,1.53,0,0,0,1,.4h.2a1.16,1.16,0,0,0,1-.4,1.53,1.53,0,0,0,.4-1v-3.2a2.54,2.54,0,0,1-1.1,1.2,3,3,0,0,1-1.5.5h-.1Zm2.3-2.7a1.66,1.66,0,0,0,.5-1.2v-3.4a1.46,1.46,0,0,0-.5-1.2,1.61,1.61,0,0,0-1.1-.5H136c-.9,0-1.3.4-1.3,1.3v4.1c0,.9.4,1.3,1.3,1.3h.1A1.11,1.11,0,0,0,137.2,262.1Z"/><path class="cls-8" d="M145.6,266a3.45,3.45,0,0,1-3.7-3.7v-5a3.47,3.47,0,0,1,1-2.7,3.7,3.7,0,0,1,2.7-1h.7a3.62,3.62,0,0,1,2.7,1,3.7,3.7,0,0,1,1,2.7v2.9h-5.5v2.3a1.28,1.28,0,0,0,.4,1,1.16,1.16,0,0,0,1,.4h.2a1.16,1.16,0,0,0,1-.4,1.53,1.53,0,0,0,.4-1v-.7H150v.5a3.62,3.62,0,0,1-1,2.7,3.7,3.7,0,0,1-2.7,1Zm.2-10.3a1.16,1.16,0,0,0-1,.4,1.78,1.78,0,0,0-.4,1v1.7h3v-1.7a1.16,1.16,0,0,0-.4-1,1.78,1.78,0,0,0-1-.4Z"/><path class="cls-8" d="M157.1,265.8v-8.6c0-.9-.4-1.3-1.3-1.3h-.1a1.17,1.17,0,0,0-1.1.5,1.66,1.66,0,0,0-.5,1.2v8.3h-2.5v-12h2.5v1.5a2.94,2.94,0,0,1,1-1.2,3,3,0,0,1,1.5-.5h.2a2.72,2.72,0,0,1,2,.7,2.82,2.82,0,0,1,.7,2.1v9.3Z"/><path class="cls-8" d="M164.1,264.8a2.6,2.6,0,0,1-2.7-2.9v-5.3a2.82,2.82,0,0,1,.7-2.1,2.72,2.72,0,0,1,2-.7h.2a2.26,2.26,0,0,1,1.5.5,3.18,3.18,0,0,1,1.1,1.2V254h2.5v12.3a3,3,0,0,1-1,2.5,3.67,3.67,0,0,1-2.7.9H165a3.83,3.83,0,0,1-2.7-.9,3.38,3.38,0,0,1-1-2.5V266h2.5v.5a1.16,1.16,0,0,0,.4,1,1.53,1.53,0,0,0,1,.4h.2a1.16,1.16,0,0,0,1-.4,1.53,1.53,0,0,0,.4-1v-3.2a2.54,2.54,0,0,1-1.1,1.2,3,3,0,0,1-1.5.5h-.1Zm2.3-2.7a1.66,1.66,0,0,0,.5-1.2v-3.4a1.46,1.46,0,0,0-.5-1.2,1.61,1.61,0,0,0-1.1-.5h-.1c-.9,0-1.3.4-1.3,1.3v4.1c0,.9.4,1.3,1.3,1.3h.1A1.19,1.19,0,0,0,166.4,262.1Z"/><path class="cls-8" d="M173.8,266a2.6,2.6,0,0,1-2.7-2.9v-.8a3.83,3.83,0,0,1,.5-1.9,2.07,2.07,0,0,1,1.4-1l2.7-.7a1.18,1.18,0,0,0,.9-1.2v-.3a1.16,1.16,0,0,0-.4-1,1.78,1.78,0,0,0-1-.4H175a1.16,1.16,0,0,0-1,.4,1.78,1.78,0,0,0-.4,1v.4h-2.5v-.2a3.47,3.47,0,0,1,1-2.7,3.7,3.7,0,0,1,2.7-1h.7a3.62,3.62,0,0,1,2.7,1,3.7,3.7,0,0,1,1,2.7v8.5h-2.5v-1.5a2.54,2.54,0,0,1-1.1,1.2,3,3,0,0,1-1.5.5h-.3Zm2.3-2.6a1.37,1.37,0,0,0,.4-1.1v-2.7a1.27,1.27,0,0,1-.9.7l-1.2.3c-.6.2-.8.6-.8,1.3v.7c0,.9.4,1.3,1.3,1.3h.1A1.17,1.17,0,0,0,176.1,263.4Z"/><path class="cls-8" d="M183.4,266a2.6,2.6,0,0,1-2.7-2.9v-.8a3.83,3.83,0,0,1,.5-1.9,2.07,2.07,0,0,1,1.4-1l2.7-.7a1.18,1.18,0,0,0,.9-1.2v-.3a1.16,1.16,0,0,0-.4-1,1.78,1.78,0,0,0-1-.4h-.2a1.16,1.16,0,0,0-1,.4,1.78,1.78,0,0,0-.4,1v.4h-2.5v-.2a3.47,3.47,0,0,1,1-2.7,3.7,3.7,0,0,1,2.7-1h.7a3.62,3.62,0,0,1,2.7,1,3.7,3.7,0,0,1,1,2.7v8.5h-2.5v-1.5a2.54,2.54,0,0,1-1.1,1.2,3,3,0,0,1-1.5.5h-.3Zm2.4-2.6a1.37,1.37,0,0,0,.4-1.1v-2.7a1.27,1.27,0,0,1-.9.7l-1.2.3c-.6.2-.8.6-.8,1.3v.7c0,.9.4,1.3,1.3,1.3h.1A1.39,1.39,0,0,0,185.8,263.4Z"/><path class="cls-8" d="M196.1,265.8v-8.6c0-.9-.4-1.3-1.3-1.3h-.1a1.17,1.17,0,0,0-1.1.5,1.66,1.66,0,0,0-.5,1.2v8.3h-2.5v-12h2.5v1.5a2.94,2.94,0,0,1,1-1.2,3,3,0,0,1,1.5-.5h.2a2.72,2.72,0,0,1,2,.7,2.82,2.82,0,0,1,.7,2.1v9.3Z"/><path class="cls-8" d="M203.4,260.2a2.93,2.93,0,0,1,.4-1.6c.3-.5.5-1,.8-1.4a5.67,5.67,0,0,0,.8-1.3,2.42,2.42,0,0,0,.4-1.3v-2.1a1.05,1.05,0,0,0-.4-1,1.78,1.78,0,0,0-1-.4h-.1a1.16,1.16,0,0,0-1,.4,1.78,1.78,0,0,0-.4,1v2.9h-2.5v-2.9a3.47,3.47,0,0,1,1-2.7,3.7,3.7,0,0,1,2.7-1h.7a3.62,3.62,0,0,1,2.7,1,3.7,3.7,0,0,1,1,2.7v2.1a3.32,3.32,0,0,1-.5,1.6,5.26,5.26,0,0,1-1.1,1.4,15,15,0,0,0-1.1,1.3,2.65,2.65,0,0,0-.5,1.4h-1.9Zm-.4,5.6v-3.3h2.7v3.3Z"/><path class="cls-8" d="M214.1,265.8V249h5.3a3.62,3.62,0,0,1,2.7,1,3.7,3.7,0,0,1,1,2.7v9.5a3.62,3.62,0,0,1-1,2.7,3.7,3.7,0,0,1-2.7,1h-5.3Zm5.9-2.7a1.37,1.37,0,0,0,.4-1.1v-9a1.25,1.25,0,0,0-.4-1.1,1.37,1.37,0,0,0-1.1-.4h-2.1v12h2.1A1.82,1.82,0,0,0,220,263.1Z"/><path class="cls-8" d="M228.3,266a3.45,3.45,0,0,1-3.7-3.7v-5a3.47,3.47,0,0,1,1-2.7,3.7,3.7,0,0,1,2.7-1h.7a3.62,3.62,0,0,1,2.7,1,3.7,3.7,0,0,1,1,2.7v5a3.62,3.62,0,0,1-1,2.7,3.7,3.7,0,0,1-2.7,1Zm1.5-2.6a1.53,1.53,0,0,0,.4-1v-5.1a1.05,1.05,0,0,0-.4-1,1.78,1.78,0,0,0-1-.4h-.2a1.16,1.16,0,0,0-1,.4,1.78,1.78,0,0,0-.4,1v5.1a1.37,1.37,0,0,0,1.4,1.4h.2A1.78,1.78,0,0,0,229.8,263.4Z"/><path class="cls-8" d="M239.9,265.8v-8.6c0-.9-.4-1.3-1.3-1.3h-.1a1.17,1.17,0,0,0-1.1.5,1.66,1.66,0,0,0-.5,1.2v8.3h-2.5v-12h2.5v1.5a2.94,2.94,0,0,1,1-1.2,3,3,0,0,1,1.5-.5h.2a2.72,2.72,0,0,1,2,.7,2.82,2.82,0,0,1,.7,2.1v9.3Z"/><path class="cls-8" d="M247.7,266a3.45,3.45,0,0,1-3.7-3.7v-5a3.47,3.47,0,0,1,1-2.7,3.7,3.7,0,0,1,2.7-1h.7a3.62,3.62,0,0,1,2.7,1,3.7,3.7,0,0,1,1,2.7v2.9h-5.5v2.3a1.28,1.28,0,0,0,.4,1,1.16,1.16,0,0,0,1,.4h.2a1.16,1.16,0,0,0,1-.4,1.53,1.53,0,0,0,.4-1v-.7h2.5v.5a3.62,3.62,0,0,1-1,2.7,3.7,3.7,0,0,1-2.7,1Zm.3-10.3a1.16,1.16,0,0,0-1,.4,1.78,1.78,0,0,0-.4,1v1.7h3v-1.7a1.16,1.16,0,0,0-.4-1,1.78,1.78,0,0,0-1-.4Z"/><path class="cls-8" d="M257.2,266a3.45,3.45,0,0,1-3.7-3.7v-5a3.47,3.47,0,0,1,1-2.7,3.7,3.7,0,0,1,2.7-1h.7a3.62,3.62,0,0,1,2.7,1,3.7,3.7,0,0,1,1,2.7v2.9h-5.5v2.3a1.28,1.28,0,0,0,.4,1,1.16,1.16,0,0,0,1,.4h.2a1.16,1.16,0,0,0,1-.4,1.53,1.53,0,0,0,.4-1v-.7h2.5v.5a3.62,3.62,0,0,1-1,2.7,3.7,3.7,0,0,1-2.7,1Zm.3-10.3a1.16,1.16,0,0,0-1,.4,1.78,1.78,0,0,0-.4,1v1.7h3v-1.7a1.16,1.16,0,0,0-.4-1,1.78,1.78,0,0,0-1-.4Z"/><path class="cls-8" d="M263.3,265.8v-12h2.5v2q.45-2.1,1.8-2.1h.1a.9.9,0,0,1,.5.1v2.7a2.25,2.25,0,0,0-.7-.1h-.1a1.15,1.15,0,0,0-1.1.6,2.12,2.12,0,0,0-.4,1.4v7.5h-2.6Z"/><path class="cls-8" d="M276.8,266a3.45,3.45,0,0,1-3.7-3.7v-5a3.47,3.47,0,0,1,1-2.7,3.7,3.7,0,0,1,2.7-1h.7a3.62,3.62,0,0,1,2.7,1,3.7,3.7,0,0,1,1,2.7v5a3.62,3.62,0,0,1-1,2.7,3.7,3.7,0,0,1-2.7,1Zm1.4-2.6a1.53,1.53,0,0,0,.4-1v-5.1a1.05,1.05,0,0,0-.4-1,1.78,1.78,0,0,0-1-.4H277a1.16,1.16,0,0,0-1,.4,1.78,1.78,0,0,0-.4,1v5.1a1.37,1.37,0,0,0,1.4,1.4h.2A1.53,1.53,0,0,0,278.2,263.4Z"/><path class="cls-8" d="M283.8,265.8V256h-1.6v-2.2h1.6v-2.3a2.35,2.35,0,0,1,.7-1.9,3,3,0,0,1,2-.7h.3a8.08,8.08,0,0,1,1.6.1v2.1c-.3,0-.6-.1-1-.1h-.1a.9.9,0,0,0-1,1v1.8h2.1V256h-2.1v9.8Z"/><path class="cls-8" d="M296,266a2.6,2.6,0,0,1-2.7-2.9v-.8a3.83,3.83,0,0,1,.5-1.9,2.07,2.07,0,0,1,1.4-1l2.7-.7a1.18,1.18,0,0,0,.9-1.2v-.3a1.16,1.16,0,0,0-.4-1,1.78,1.78,0,0,0-1-.4h-.2a1.16,1.16,0,0,0-1,.4,1.78,1.78,0,0,0-.4,1v.4h-2.5v-.2a3.47,3.47,0,0,1,1-2.7,3.7,3.7,0,0,1,2.7-1h.7a3.62,3.62,0,0,1,2.7,1,3.7,3.7,0,0,1,1,2.7v8.5h-2.5v-1.5a2.54,2.54,0,0,1-1.1,1.2,3,3,0,0,1-1.5.5H296Zm2.3-2.6a1.37,1.37,0,0,0,.4-1.1v-2.7a1.27,1.27,0,0,1-.9.7l-1.2.3c-.6.2-.8.6-.8,1.3v.7c0,.9.4,1.3,1.3,1.3h.1A1.27,1.27,0,0,0,298.3,263.4Z"/><path class="cls-8" d="M305.6,266a2.6,2.6,0,0,1-2.7-2.9v-6.5a2.82,2.82,0,0,1,.7-2.1,2.72,2.72,0,0,1,2-.7h.2a2.26,2.26,0,0,1,1.5.5,3.18,3.18,0,0,1,1.1,1.2v-6.3h2.5V266h-2.5v-1.5a2.54,2.54,0,0,1-1.1,1.2,3,3,0,0,1-1.5.5h-.2Zm2.3-2.7a1.66,1.66,0,0,0,.5-1.2v-4.6a1.46,1.46,0,0,0-.5-1.2,1.61,1.61,0,0,0-1.1-.5h-.1c-.9,0-1.3.4-1.3,1.3v5.3c0,.9.4,1.3,1.3,1.3h.1A1.19,1.19,0,0,0,307.9,263.3Z"/><path class="cls-8" d="M316.2,266a3.45,3.45,0,0,1-3.7-3.7v-5a3.47,3.47,0,0,1,1-2.7,3.7,3.7,0,0,1,2.7-1h.7a3.62,3.62,0,0,1,2.7,1,3.7,3.7,0,0,1,1,2.7v5a3.62,3.62,0,0,1-1,2.7,3.7,3.7,0,0,1-2.7,1Zm1.5-2.6a1.53,1.53,0,0,0,.4-1v-5.1a1.05,1.05,0,0,0-.4-1,1.78,1.78,0,0,0-1-.4h-.2a1.16,1.16,0,0,0-1,.4,1.78,1.78,0,0,0-.4,1v5.1a1.37,1.37,0,0,0,1.4,1.4h.2A1.53,1.53,0,0,0,317.7,263.4Z"/><path class="cls-8" d="M327.3,266a2.26,2.26,0,0,1-1.5-.5,2.34,2.34,0,0,1-1-1.2v5.1h-2.5V253.8h2.5v1.5a2.94,2.94,0,0,1,1-1.2,3,3,0,0,1,1.5-.5h.2a2.72,2.72,0,0,1,2,.7,2.82,2.82,0,0,1,.7,2.1v6.5a2.6,2.6,0,0,1-2.7,2.9h-.2Zm.5-3.5v-5.3c0-.9-.4-1.3-1.3-1.3h-.1a1.17,1.17,0,0,0-1.1.5,1.66,1.66,0,0,0-.5,1.2v4.6a1.46,1.46,0,0,0,.5,1.2,1.43,1.43,0,0,0,1.1.5h.1A1.28,1.28,0,0,0,327.8,262.5Z"/><path class="cls-8" d="M335.3,266a2.09,2.09,0,0,1-2.4-2.3V256h-1.6v-2.2h1.6v-2.2h2.5v2.2h2.1V256h-2.1v6.8a.9.9,0,0,0,1,1h.1a3.08,3.08,0,0,0,1-.1v2.1a8.08,8.08,0,0,1-1.6.1h-.6Z"/><path class="cls-8" d="M342.5,266a3.45,3.45,0,0,1-3.7-3.7v-5a3.47,3.47,0,0,1,1-2.7,3.7,3.7,0,0,1,2.7-1h.7a3.62,3.62,0,0,1,2.7,1,3.7,3.7,0,0,1,1,2.7v2.9h-5.5v2.3a1.28,1.28,0,0,0,.4,1,1.16,1.16,0,0,0,1,.4h.2a1.16,1.16,0,0,0,1-.4,1.53,1.53,0,0,0,.4-1v-.7h2.5v.5a3.62,3.62,0,0,1-1,2.7,3.7,3.7,0,0,1-2.7,1Zm.2-10.3a1.16,1.16,0,0,0-1,.4,1.78,1.78,0,0,0-.4,1v1.7h3v-1.7a1.16,1.16,0,0,0-.4-1,1.78,1.78,0,0,0-1-.4Z"/><path class="cls-8" d="M352,266a3.45,3.45,0,0,1-3.7-3.7v-5a3.47,3.47,0,0,1,1-2.7,3.7,3.7,0,0,1,2.7-1h.7a3.62,3.62,0,0,1,2.7,1,3.7,3.7,0,0,1,1,2.7v2.9h-5.5v2.3a1.28,1.28,0,0,0,.4,1,1.16,1.16,0,0,0,1,.4h.2a1.16,1.16,0,0,0,1-.4,1.53,1.53,0,0,0,.4-1v-.7h2.5v.5a3.62,3.62,0,0,1-1,2.7,3.7,3.7,0,0,1-2.7,1Zm.2-10.3a1.16,1.16,0,0,0-1,.4,1.78,1.78,0,0,0-.4,1v1.7h3v-1.7a1.16,1.16,0,0,0-.4-1,1.78,1.78,0,0,0-1-.4Z"/><path class="cls-8" d="M358,265.8v-12h2.5v2q.45-2.1,1.8-2.1h.1a.9.9,0,0,1,.5.1v2.7a2.25,2.25,0,0,0-.7-.1h-.1a1.15,1.15,0,0,0-1.1.6,2.12,2.12,0,0,0-.4,1.4v7.5H358Z"/><path class="cls-8" d="M373.6,265.8v-8.6c0-.9-.4-1.3-1.3-1.3h-.1a1.17,1.17,0,0,0-1.1.5,1.66,1.66,0,0,0-.5,1.2v8.3h-2.5v-12h2.5v1.5a2.94,2.94,0,0,1,1-1.2,3,3,0,0,1,1.5-.5h.2a2.72,2.72,0,0,1,2,.7,2.82,2.82,0,0,1,.7,2.1v9.3Z"/><path class="cls-8" d="M380.8,266a2.6,2.6,0,0,1-2.7-2.9v-9.3h2.5v8.6c0,.9.4,1.3,1.3,1.3h.1a1.61,1.61,0,0,0,1.1-.5,1.66,1.66,0,0,0,.5-1.2v-8.3h2.5v12h-2.5v-1.5a2.54,2.54,0,0,1-1.1,1.2,3,3,0,0,1-1.5.5h-.2Z"/><path class="cls-8" d="M395.3,266a3.45,3.45,0,0,1-3.7-3.7v-5a3.47,3.47,0,0,1,1-2.7,3.7,3.7,0,0,1,2.7-1h.7a3.62,3.62,0,0,1,2.7,1,3.7,3.7,0,0,1,1,2.7v2.9h-5.5v2.3a1.28,1.28,0,0,0,.4,1,1.16,1.16,0,0,0,1,.4h.2a1.16,1.16,0,0,0,1-.4,1.53,1.53,0,0,0,.4-1v-.7h2.5v.5a3.62,3.62,0,0,1-1,2.7,3.7,3.7,0,0,1-2.7,1Zm.2-10.3a1.16,1.16,0,0,0-1,.4,1.78,1.78,0,0,0-.4,1v1.7h3v-1.7a1.16,1.16,0,0,0-.4-1,1.78,1.78,0,0,0-1-.4Z"/><path class="cls-8" d="M404.7,266a3.45,3.45,0,0,1-3.7-3.7v-5a3.47,3.47,0,0,1,1-2.7,3.7,3.7,0,0,1,2.7-1h.7a3.62,3.62,0,0,1,2.7,1,3.7,3.7,0,0,1,1,2.7v2.9h-5.5v2.3a1.28,1.28,0,0,0,.4,1,1.16,1.16,0,0,0,1,.4h.2a1.16,1.16,0,0,0,1-.4,1.53,1.53,0,0,0,.4-1v-.7h2.5v.5a3.62,3.62,0,0,1-1,2.7,3.7,3.7,0,0,1-2.7,1Zm.3-10.3a1.16,1.16,0,0,0-1,.4,1.78,1.78,0,0,0-.4,1v1.7h3v-1.7a1.16,1.16,0,0,0-.4-1,1.78,1.78,0,0,0-1-.4Z"/><path class="cls-8" d="M416.3,265.8v-8.6c0-.9-.4-1.3-1.3-1.3h-.1a1.17,1.17,0,0,0-1.1.5,1.66,1.66,0,0,0-.5,1.2v8.3h-2.5v-12h2.5v1.5a2.94,2.94,0,0,1,1-1.2,3,3,0,0,1,1.5-.5h.2a2.72,2.72,0,0,1,2,.7,2.82,2.82,0,0,1,.7,2.1v9.3Z"/><path class="cls-8" d="M428,266a4.34,4.34,0,0,1-2.7-.8,2.57,2.57,0,0,1-1-2.2v-1.2h2.5v1a1,1,0,0,0,.4.9,1.49,1.49,0,0,0,1,.3h.2c.9,0,1.4-.4,1.4-1.2V262a1.2,1.2,0,0,0-1-1.3l-2.3-.6c-1.5-.4-2.2-1.2-2.2-2.5v-1a2.57,2.57,0,0,1,1-2.2,4.14,4.14,0,0,1,2.7-.8h.7a4.55,4.55,0,0,1,2.7.8,2.87,2.87,0,0,1,1,2.2v.8h-2.5v-.7c0-.8-.5-1.2-1.4-1.2h-.2a1.49,1.49,0,0,0-1,.3,1.27,1.27,0,0,0-.4.9v.6c0,.6.3.9.9,1.1l2.3.6c1.5.4,2.2,1.2,2.2,2.5v1.4a2.57,2.57,0,0,1-1,2.2,4.14,4.14,0,0,1-2.7.8H428Z"/><path class="cls-8" d="M439.6,265.8v-8.6c0-.9-.4-1.3-1.3-1.3h-.1a1.17,1.17,0,0,0-1.1.5,1.66,1.66,0,0,0-.5,1.2v8.3h-2.5v-12h2.5v1.5a2.94,2.94,0,0,1,1-1.2,3,3,0,0,1,1.5-.5h.2a2.72,2.72,0,0,1,2,.7,2.82,2.82,0,0,1,.7,2.1v9.3Z"/><path class="cls-8" d="M447.5,266a3.45,3.45,0,0,1-3.7-3.7v-5a3.47,3.47,0,0,1,1-2.7,3.7,3.7,0,0,1,2.7-1h.7a3.62,3.62,0,0,1,2.7,1,3.7,3.7,0,0,1,1,2.7v2.9h-5.6v2.3a1.28,1.28,0,0,0,.4,1,1.16,1.16,0,0,0,1,.4h.2a1.16,1.16,0,0,0,1-.4,1.53,1.53,0,0,0,.4-1v-.7h2.5v.5a3.62,3.62,0,0,1-1,2.7,3.7,3.7,0,0,1-2.7,1Zm.2-10.3a1.16,1.16,0,0,0-1,.4,1.78,1.78,0,0,0-.4,1v1.7h3v-1.7a1.16,1.16,0,0,0-.4-1,1.78,1.78,0,0,0-1-.4Z"/><path class="cls-8" d="M456.9,266a3.45,3.45,0,0,1-3.7-3.7v-5a3.47,3.47,0,0,1,1-2.7,3.7,3.7,0,0,1,2.7-1h.7a3.62,3.62,0,0,1,2.7,1,3.7,3.7,0,0,1,1,2.7v2.9h-5.5v2.3a1.28,1.28,0,0,0,.4,1,1.16,1.16,0,0,0,1,.4h.2a1.16,1.16,0,0,0,1-.4,1.53,1.53,0,0,0,.4-1v-.7h2.5v.5a3.62,3.62,0,0,1-1,2.7,3.47,3.47,0,0,1-2.7,1Zm.3-10.3a1.16,1.16,0,0,0-1,.4,1.78,1.78,0,0,0-.4,1v1.7h3v-1.7a1.16,1.16,0,0,0-.4-1,1.78,1.78,0,0,0-1-.4Z"/><path class="cls-8" d="M465.8,266a2.6,2.6,0,0,1-2.7-2.9v-9.3h2.5v8.6c0,.9.4,1.3,1.3,1.3h.1a1.61,1.61,0,0,0,1.1-.5,1.66,1.66,0,0,0,.5-1.2v-8.3h2.5v12h-2.5v-1.5a2.54,2.54,0,0,1-1.1,1.2,3,3,0,0,1-1.5.5h-.2Z"/><path class="cls-8" d="M480.8,265.8l-1.6-7.6-1.7,7.6h-3l-2.5-12h2.5l1.8,9.2,1.6-9.2h2.2l1.6,9.2,1.8-9.2H486l-2.5,12Z"/><path class="cls-8" d="M487.4,265.8V249h2.5v16.8Z"/><path class="cls-8" d="M494.6,266a2.6,2.6,0,0,1-2.7-2.9v-9.3h2.5v8.6c0,.9.4,1.3,1.3,1.3h.1a1.61,1.61,0,0,0,1.1-.5,1.66,1.66,0,0,0,.5-1.2v-8.3h2.5v12h-2.5v-1.5a2.54,2.54,0,0,1-1.1,1.2,3,3,0,0,1-1.5.5h-.2Z"/><path class="cls-8" d="M501.8,252.4v-3.3h2.5v3.3Zm0,13.4v-12h2.5v12Z"/><path class="cls-8" d="M511.3,266a2.26,2.26,0,0,1-1.5-.5,2.34,2.34,0,0,1-1-1.2v5.1h-2.5V253.8h2.5v1.5a2.94,2.94,0,0,1,1-1.2,3,3,0,0,1,1.5-.5h.2a2.72,2.72,0,0,1,2,.7,2.82,2.82,0,0,1,.7,2.1v6.5a2.6,2.6,0,0,1-2.7,2.9h-.2Zm.5-3.5v-5.3c0-.9-.4-1.3-1.3-1.3h-.1a1.17,1.17,0,0,0-1.1.5,1.66,1.66,0,0,0-.5,1.2v4.6a1.46,1.46,0,0,0,.5,1.2,1.43,1.43,0,0,0,1.1.5h.1A1.28,1.28,0,0,0,511.8,262.5Z"/><path class="cls-8" d="M518.5,266a2.6,2.6,0,0,1-2.7-2.9v-.8a3.83,3.83,0,0,1,.5-1.9,2.07,2.07,0,0,1,1.4-1l2.7-.7a1.18,1.18,0,0,0,.9-1.2v-.3a1.16,1.16,0,0,0-.4-1,1.78,1.78,0,0,0-1-.4h-.2a1.16,1.16,0,0,0-1,.4,1.78,1.78,0,0,0-.4,1v.4h-2.5v-.2a3.47,3.47,0,0,1,1-2.7,3.7,3.7,0,0,1,2.7-1h.7a3.62,3.62,0,0,1,2.7,1,3.7,3.7,0,0,1,1,2.7v8.5h-2.5v-1.5a2.54,2.54,0,0,1-1.1,1.2,3,3,0,0,1-1.5.5h-.3Zm2.3-2.6a1.37,1.37,0,0,0,.4-1.1v-2.7a1.27,1.27,0,0,1-.9.7l-1.2.3c-.6.2-.8.6-.8,1.3v.7c0,.9.4,1.3,1.3,1.3h.1A1.17,1.17,0,0,0,520.8,263.4Z"/><path class="cls-8" d="M528.1,266a2.6,2.6,0,0,1-2.7-2.9v-.8a3.83,3.83,0,0,1,.5-1.9,2.07,2.07,0,0,1,1.4-1l2.7-.7a1.18,1.18,0,0,0,.9-1.2v-.3a1.16,1.16,0,0,0-.4-1,1.78,1.78,0,0,0-1-.4h-.2a1.16,1.16,0,0,0-1,.4,1.78,1.78,0,0,0-.4,1v.4h-2.5v-.2a3.47,3.47,0,0,1,1-2.7,3.7,3.7,0,0,1,2.7-1h.7a3.62,3.62,0,0,1,2.7,1,3.7,3.7,0,0,1,1,2.7v8.5H531v-1.5a2.54,2.54,0,0,1-1.1,1.2,3,3,0,0,1-1.5.5h-.3Zm2.4-2.6a1.37,1.37,0,0,0,.4-1.1v-2.7a1.27,1.27,0,0,1-.9.7l-1.2.3c-.6.2-.8.6-.8,1.3v.7c0,.9.4,1.3,1.3,1.3h.1A1.39,1.39,0,0,0,530.5,263.4Z"/><path class="cls-8" d="M535.3,265.8v-12h2.5v2q.45-2.1,1.8-2.1h.1a.9.9,0,0,1,.5.1v2.7a2.25,2.25,0,0,0-.7-.1h-.1a1.15,1.15,0,0,0-1.1.6,2.12,2.12,0,0,0-.4,1.4v7.5h-2.6Z"/><path class="cls-8" d="M544,266a2.6,2.6,0,0,1-2.7-2.9v-6.5a2.82,2.82,0,0,1,.7-2.1,2.72,2.72,0,0,1,2-.7h.2a2.26,2.26,0,0,1,1.5.5,3.18,3.18,0,0,1,1.1,1.2v-6.3h2.5V266h-2.5v-1.5a2.54,2.54,0,0,1-1.1,1.2,3,3,0,0,1-1.5.5H544Zm2.3-2.7a1.66,1.66,0,0,0,.5-1.2v-4.6a1.46,1.46,0,0,0-.5-1.2,1.61,1.61,0,0,0-1.1-.5h-.1c-.9,0-1.3.4-1.3,1.3v5.3c0,.9.4,1.3,1.3,1.3h.1A1.19,1.19,0,0,0,546.3,263.3Z"/><path class="cls-8" d="M556.6,265.8l-2.5-12h2.5l1.8,10.1,1.8-10.1h2.6l-2.5,12Z"/><path class="cls-8" d="M563.8,252.4v-3.3h2.5v3.3Zm0,13.4v-12h2.5v12Z"/><path class="cls-8" d="M570.8,266a2.6,2.6,0,0,1-2.7-2.9v-.8a3.83,3.83,0,0,1,.5-1.9,2.07,2.07,0,0,1,1.4-1l2.7-.7a1.18,1.18,0,0,0,.9-1.2v-.3a1.16,1.16,0,0,0-.4-1,1.78,1.78,0,0,0-1-.4H572a1.16,1.16,0,0,0-1,.4,1.78,1.78,0,0,0-.4,1v.4h-2.5v-.2a3.47,3.47,0,0,1,1-2.7,3.7,3.7,0,0,1,2.7-1h.7a3.62,3.62,0,0,1,2.7,1,3.7,3.7,0,0,1,1,2.7v8.5h-2.5v-1.5a2.54,2.54,0,0,1-1.1,1.2,3,3,0,0,1-1.5.5h-.3Zm2.3-2.6a1.37,1.37,0,0,0,.4-1.1v-2.7a1.27,1.27,0,0,1-.9.7l-1.2.3c-.6.2-.8.6-.8,1.3v.7c0,.9.4,1.3,1.3,1.3h.1A1.17,1.17,0,0,0,573.1,263.4Z"/><path class="cls-8" d="M587.3,265.8v-8.6c0-.9-.4-1.3-1.3-1.3h-.1a1.17,1.17,0,0,0-1.1.5,1.66,1.66,0,0,0-.5,1.2v8.3h-2.5V249.1h2.5v6.3a2.94,2.94,0,0,1,1-1.2,3,3,0,0,1,1.5-.5h.2a2.72,2.72,0,0,1,2,.7,2.82,2.82,0,0,1,.7,2.1v9.3Z"/><path class="cls-8" d="M595.1,266a3.45,3.45,0,0,1-3.7-3.7v-5a3.47,3.47,0,0,1,1-2.7,3.7,3.7,0,0,1,2.7-1h.7a3.62,3.62,0,0,1,2.7,1,3.7,3.7,0,0,1,1,2.7v2.9H594v2.3a1.28,1.28,0,0,0,.4,1,1.16,1.16,0,0,0,1,.4h.2a1.16,1.16,0,0,0,1-.4,1.53,1.53,0,0,0,.4-1v-.7h2.5v.5a3.62,3.62,0,0,1-1,2.7,3.7,3.7,0,0,1-2.7,1Zm.3-10.3a1.16,1.16,0,0,0-1,.4,1.78,1.78,0,0,0-.4,1v1.7h3v-1.7a1.16,1.16,0,0,0-.4-1,1.78,1.78,0,0,0-1-.4Z"/><path class="cls-8" d="M604.5,266a2.09,2.09,0,0,1-2.4-2.3V256h-1.6v-2.2h1.6v-2.2h2.5v2.2h2.1V256h-2.1v6.8a.9.9,0,0,0,1,1h.1a3.08,3.08,0,0,0,1-.1v2.1a8.08,8.08,0,0,1-1.6.1h-.6Z"/><path class="cls-8" d="M615.6,266a3.47,3.47,0,0,1-2.7-1,3.7,3.7,0,0,1-1-2.7v-2.6h2.7v2.5a1.25,1.25,0,0,0,.4,1.1,1.37,1.37,0,0,0,1.1.4h.6a1.25,1.25,0,0,0,1.1-.4,1.37,1.37,0,0,0,.4-1.1v-1.8a2.13,2.13,0,0,0-.3-1.2,2,2,0,0,0-1-.7l-2.9-1.2a3.25,3.25,0,0,1-1.7-1.2,3.56,3.56,0,0,1-.5-1.9v-1.7a3.47,3.47,0,0,1,1-2.7,3.7,3.7,0,0,1,2.7-1h1.7a3.62,3.62,0,0,1,2.7,1,3.7,3.7,0,0,1,1,2.7v1.8h-2.7v-1.8a1.25,1.25,0,0,0-.4-1.1,1.37,1.37,0,0,0-1.1-.4h-.6a1.25,1.25,0,0,0-1.1.4,1.37,1.37,0,0,0-.4,1.1v1.1a1.75,1.75,0,0,0,1.2,1.8l2.9,1.2a3.25,3.25,0,0,1,1.7,1.2,3.56,3.56,0,0,1,.5,1.9v2.5a3.62,3.62,0,0,1-1,2.7,3.7,3.7,0,0,1-2.7,1h-1.6Z"/><path class="cls-8" d="M628.2,265.8v-8.6c0-.9-.4-1.3-1.3-1.3h-.1a1.17,1.17,0,0,0-1.1.5,1.66,1.66,0,0,0-.5,1.2v8.3h-2.5v-12h2.5v1.5a2.94,2.94,0,0,1,1-1.2,3,3,0,0,1,1.5-.5h.2a2.72,2.72,0,0,1,2,.7,2.82,2.82,0,0,1,.7,2.1v9.3Z"/><path class="cls-8" d="M636.1,266a3.45,3.45,0,0,1-3.7-3.7v-5a3.47,3.47,0,0,1,1-2.7,3.7,3.7,0,0,1,2.7-1h.7a3.62,3.62,0,0,1,2.7,1,3.7,3.7,0,0,1,1,2.7v5a3.62,3.62,0,0,1-1,2.7,3.7,3.7,0,0,1-2.7,1Zm1.5-2.6a1.53,1.53,0,0,0,.4-1v-5.1a1.05,1.05,0,0,0-.4-1,1.78,1.78,0,0,0-1-.4h-.2a1.16,1.16,0,0,0-1,.4,1.78,1.78,0,0,0-.4,1v5.1a1.37,1.37,0,0,0,1.4,1.4h.2A1.78,1.78,0,0,0,637.6,263.4Z"/><path class="cls-8" d="M650,265.8l-1.6-7.6-1.7,7.6h-3l-2.5-12h2.5l1.8,9.2,1.6-9.2h2.2l1.6,9.2,1.8-9.2h2.5l-2.5,12Z"/><path class="cls-8" d="M656.5,265.8V249H659v16.8Z"/><path class="cls-8" d="M664.4,266a3.47,3.47,0,0,1-2.7-1,3.7,3.7,0,0,1-1-2.7v-5a3.47,3.47,0,0,1,1-2.7,3.7,3.7,0,0,1,2.7-1h.7a3.62,3.62,0,0,1,2.7,1,3.7,3.7,0,0,1,1,2.7v2.9h-5.5v2.3a1.28,1.28,0,0,0,.4,1,1.16,1.16,0,0,0,1,.4h.2a1.16,1.16,0,0,0,1-.4,1.53,1.53,0,0,0,.4-1v-.7h2.5v.5a3.62,3.62,0,0,1-1,2.7,3.7,3.7,0,0,1-2.7,1Zm.3-10.3a1.16,1.16,0,0,0-1,.4,1.78,1.78,0,0,0-.4,1v1.7h3v-1.7a1.16,1.16,0,0,0-.4-1,1.78,1.78,0,0,0-1-.4Z"/><path class="cls-8" d="M673.9,266a3.45,3.45,0,0,1-3.7-3.7v-5a3.47,3.47,0,0,1,1-2.7,3.7,3.7,0,0,1,2.7-1h.7a3.62,3.62,0,0,1,2.7,1,3.7,3.7,0,0,1,1,2.7v5a3.62,3.62,0,0,1-1,2.7,3.47,3.47,0,0,1-2.7,1Zm1.5-2.6a1.53,1.53,0,0,0,.4-1v-5.1a1.05,1.05,0,0,0-.4-1,1.78,1.78,0,0,0-1-.4h-.2a1.16,1.16,0,0,0-1,.4,1.78,1.78,0,0,0-.4,1v5.1a1.37,1.37,0,0,0,1.4,1.4h.2A1.78,1.78,0,0,0,675.4,263.4Z"/><path class="cls-8" d="M685,266a2.26,2.26,0,0,1-1.5-.5,2.34,2.34,0,0,1-1-1.2v5.1H680V253.8h2.5v1.5a2.94,2.94,0,0,1,1-1.2,3,3,0,0,1,1.5-.5h.2a2.72,2.72,0,0,1,2,.7,2.82,2.82,0,0,1,.7,2.1v6.5a2.6,2.6,0,0,1-2.7,2.9H685Zm.5-3.5v-5.3c0-.9-.4-1.3-1.3-1.3h-.1a1.17,1.17,0,0,0-1.1.5,1.66,1.66,0,0,0-.5,1.2v4.6a1.46,1.46,0,0,0,.5,1.2,1.43,1.43,0,0,0,1.1.5h.1A1.28,1.28,0,0,0,685.5,262.5Z"/><path class="cls-8" d="M692.2,266a2.6,2.6,0,0,1-2.7-2.9v-.8a3.83,3.83,0,0,1,.5-1.9,2.07,2.07,0,0,1,1.4-1l2.7-.7a1.18,1.18,0,0,0,.9-1.2v-.3a1.16,1.16,0,0,0-.4-1,1.78,1.78,0,0,0-1-.4h-.2a1.16,1.16,0,0,0-1,.4,1.78,1.78,0,0,0-.4,1v.4h-2.5v-.2a3.47,3.47,0,0,1,1-2.7,3.7,3.7,0,0,1,2.7-1h.7a3.62,3.62,0,0,1,2.7,1,3.7,3.7,0,0,1,1,2.7v8.5h-2.5v-1.5a2.54,2.54,0,0,1-1.1,1.2,3,3,0,0,1-1.5.5h-.3Zm2.3-2.6a1.37,1.37,0,0,0,.4-1.1v-2.7a1.27,1.27,0,0,1-.9.7l-1.2.3c-.6.2-.8.6-.8,1.3v.7c0,.9.4,1.3,1.3,1.3h.1A1.17,1.17,0,0,0,694.5,263.4Z"/><path class="cls-8" d="M699.3,265.8v-12h2.5v2q.45-2.1,1.8-2.1h.1a.9.9,0,0,1,.5.1v2.7a2.25,2.25,0,0,0-.7-.1h-.1a1.15,1.15,0,0,0-1.1.6,2.12,2.12,0,0,0-.4,1.4v7.5h-2.6Z"/><path class="cls-8" d="M708.1,266a2.6,2.6,0,0,1-2.7-2.9v-6.5a2.82,2.82,0,0,1,.7-2.1,2.72,2.72,0,0,1,2-.7h.2a2.26,2.26,0,0,1,1.5.5,3.18,3.18,0,0,1,1.1,1.2v-6.3h2.5V266h-2.5v-1.5a2.54,2.54,0,0,1-1.1,1.2,3,3,0,0,1-1.5.5h-.2Zm2.3-2.7a1.66,1.66,0,0,0,.5-1.2v-4.6a1.46,1.46,0,0,0-.5-1.2,1.61,1.61,0,0,0-1.1-.5h-.1c-.9,0-1.3.4-1.3,1.3v5.3c0,.9.4,1.3,1.3,1.3h.1C709.7,263.8,710,263.6,710.4,263.3Z"/><path class="cls-8" d="M721.4,265.8V251.4h-2.8V249h8.3v2.4h-2.8v14.4Z"/><path class="cls-8" d="M727.7,265.8v-12h2.5v2q.45-2.1,1.8-2.1h.1a.9.9,0,0,1,.5.1v2.7a2.25,2.25,0,0,0-.7-.1h-.1a1.15,1.15,0,0,0-1.1.6,2.12,2.12,0,0,0-.4,1.4v7.5h-2.6Z"/><path class="cls-8" d="M736.6,266a2.6,2.6,0,0,1-2.7-2.9v-9.3h2.5v8.6c0,.9.4,1.3,1.3,1.3h.1a1.61,1.61,0,0,0,1.1-.5,1.66,1.66,0,0,0,.5-1.2v-8.3h2.5v12h-2.5v-1.5a2.54,2.54,0,0,1-1.1,1.2,3,3,0,0,1-1.5.5h-.2Z"/><path class="cls-8" d="M747.3,266a4.34,4.34,0,0,1-2.7-.8,2.57,2.57,0,0,1-1-2.2v-1.2h2.5v1a1,1,0,0,0,.4.9,1.49,1.49,0,0,0,1,.3h.2c.9,0,1.4-.4,1.4-1.2V262a1.2,1.2,0,0,0-1-1.3l-2.3-.6c-1.5-.4-2.2-1.2-2.2-2.5v-1a2.57,2.57,0,0,1,1-2.2,4.14,4.14,0,0,1,2.7-.8h.7a4.55,4.55,0,0,1,2.7.8,2.87,2.87,0,0,1,1,2.2v.8h-2.5v-.7c0-.8-.5-1.2-1.4-1.2h-.2a1.49,1.49,0,0,0-1,.3,1.27,1.27,0,0,0-.4.9v.6c0,.6.3.9.9,1.1l2.3.6c1.5.4,2.2,1.2,2.2,2.5v1.4a2.57,2.57,0,0,1-1,2.2,4.14,4.14,0,0,1-2.7.8h-.6Z"/><path class="cls-8" d="M756.7,266a2.09,2.09,0,0,1-2.4-2.3V256h-1.6v-2.2h1.6v-2.2h2.5v2.2h2.1V256h-2.1v6.8a.9.9,0,0,0,1,1h.1a3.08,3.08,0,0,0,1-.1v2.1a8.08,8.08,0,0,1-1.6.1h-.6Z"/><path class="cls-8" d="M760.2,265.8v-3.3h2.7v3.3Z"/><path class="cls-8" d="M46.7,294.8a3.45,3.45,0,0,1-3.7-3.7v-9.8a3.47,3.47,0,0,1,1-2.7,3.7,3.7,0,0,1,2.7-1h1.7a3.62,3.62,0,0,1,2.7,1,3.7,3.7,0,0,1,1,2.7v9.8a3.62,3.62,0,0,1-1,2.7,3.7,3.7,0,0,1-2.7,1Zm2.2-2.8a1.37,1.37,0,0,0,.4-1.1v-9.3a1.25,1.25,0,0,0-.4-1.1,1.37,1.37,0,0,0-1.1-.4h-.6a1.25,1.25,0,0,0-1.1.4,1.37,1.37,0,0,0-.4,1.1v9.3a1.25,1.25,0,0,0,.4,1.1,1.37,1.37,0,0,0,1.1.4h.6A1.37,1.37,0,0,0,48.9,292Z"/><path class="cls-8" d="M54.7,294.6v-9.8H53.1v-2.2h1.6v-2.4a2.35,2.35,0,0,1,.7-1.9,3,3,0,0,1,2-.7h.3a8.08,8.08,0,0,1,1.6.1v2.1c-.3,0-.6-.1-1-.1h-.1a.9.9,0,0,0-1,1v1.8h2.1v2.2H57.2v9.8H54.7Z"/><path class="cls-8" d="M64.6,294.6V277.8h5.3a3.62,3.62,0,0,1,2.7,1,3.7,3.7,0,0,1,1,2.7V291a3.62,3.62,0,0,1-1,2.7,3.7,3.7,0,0,1-2.7,1H64.6Zm5.8-2.7a1.37,1.37,0,0,0,.4-1.1v-9a1.25,1.25,0,0,0-.4-1.1,1.37,1.37,0,0,0-1.1-.4H67.2v12.1h2.1A2.26,2.26,0,0,0,70.4,291.9Z"/><path class="cls-8" d="M78.7,294.8a3.45,3.45,0,0,1-3.7-3.7v-5a3.47,3.47,0,0,1,1-2.7,3.7,3.7,0,0,1,2.7-1h.7a3.62,3.62,0,0,1,2.7,1,3.7,3.7,0,0,1,1,2.7V289H77.6v2.3a1.28,1.28,0,0,0,.4,1,1.16,1.16,0,0,0,1,.4h.2a1.16,1.16,0,0,0,1-.4,1.53,1.53,0,0,0,.4-1v-.7h2.5v.5a3.62,3.62,0,0,1-1,2.7,3.7,3.7,0,0,1-2.7,1Zm.3-10.3a1.16,1.16,0,0,0-1,.4,1.78,1.78,0,0,0-.4,1v1.7h3v-1.7a1.16,1.16,0,0,0-.4-1,1.78,1.78,0,0,0-1-.4Z"/><path class="cls-8" d="M88.2,294.8a3.45,3.45,0,0,1-3.7-3.7v-5a3.47,3.47,0,0,1,1-2.7,3.7,3.7,0,0,1,2.7-1h.7a3.62,3.62,0,0,1,2.7,1,3.7,3.7,0,0,1,1,2.7V289H87.1v2.3a1.28,1.28,0,0,0,.4,1,1.16,1.16,0,0,0,1,.4h.2a1.16,1.16,0,0,0,1-.4,1.53,1.53,0,0,0,.4-1v-.7h2.5v.5a3.62,3.62,0,0,1-1,2.7,3.7,3.7,0,0,1-2.7,1Zm.3-10.3a1.16,1.16,0,0,0-1,.4,1.78,1.78,0,0,0-.4,1v1.7h3v-1.7a1.16,1.16,0,0,0-.4-1,1.78,1.78,0,0,0-1-.4Z"/><path class="cls-8" d="M94.3,294.6V277.8h2.5v16.8Z"/><path class="cls-8" d="M105.1,294.8a2.6,2.6,0,0,1-2.7-2.9v-6.5a2.82,2.82,0,0,1,.7-2.1,2.72,2.72,0,0,1,2-.7h.2a2.26,2.26,0,0,1,1.5.5,3.18,3.18,0,0,1,1.1,1.2V278h2.5v16.8h-2.5v-1.5a2.54,2.54,0,0,1-1.1,1.2,3,3,0,0,1-1.5.5h-.2Zm2.3-2.7a1.66,1.66,0,0,0,.5-1.2v-4.6a1.46,1.46,0,0,0-.5-1.2,1.61,1.61,0,0,0-1.1-.5h-.1c-.9,0-1.3.4-1.3,1.3v5.3c0,.9.4,1.3,1.3,1.3h.1A1.11,1.11,0,0,0,107.4,292.1Z"/><path class="cls-8" d="M112.3,281.2v-3.3h2.5v3.3Zm0,13.4v-12h2.5v12Z"/><path class="cls-8" d="M120.1,294.8a2.09,2.09,0,0,1-2.4-2.3v-7.7h-1.6v-2.2h1.6v-2.1h2.5v2.2h2.1v2.2h-2v6.8a.9.9,0,0,0,1,1h.1a3.08,3.08,0,0,0,1-.1v2.1a8.08,8.08,0,0,1-1.6.1Z"/><path class="cls-8" d="M133.2,294.6V286c0-.9-.4-1.3-1.3-1.3h-.1a1.17,1.17,0,0,0-1.1.5,1.66,1.66,0,0,0-.5,1.2v8.3h-2.5v-12h2.5v1.5a2.94,2.94,0,0,1,1-1.2,3,3,0,0,1,1.5-.5h.2a2.72,2.72,0,0,1,2,.7,2.82,2.82,0,0,1,.7,2.1v9.3Z"/><path class="cls-8" d="M140.4,294.8a2.6,2.6,0,0,1-2.7-2.9v-9.3h2.5v8.6c0,.9.4,1.3,1.3,1.3h.1a1.61,1.61,0,0,0,1.1-.5,1.66,1.66,0,0,0,.5-1.2v-8.3h2.5v12h-2.5V293a2.54,2.54,0,0,1-1.1,1.2,3,3,0,0,1-1.5.5h-.2Z"/><path class="cls-8" d="M162,294.6V286c0-.9-.4-1.3-1.2-1.3h-.1a1.39,1.39,0,0,0-1,.5,1.66,1.66,0,0,0-.5,1.2v8.3h-2.5v-8.6c0-.9-.4-1.3-1.2-1.3h-.1a1.39,1.39,0,0,0-1,.5,1.66,1.66,0,0,0-.5,1.2v8.3h-2.5v-12h2.5v1.5a2.94,2.94,0,0,1,1-1.2,3,3,0,0,1,1.5-.5h.1a2.46,2.46,0,0,1,2.5,1.6,2.54,2.54,0,0,1,1.1-1.2,3,3,0,0,1,1.6-.5h.1a2.56,2.56,0,0,1,1.9.8,2.82,2.82,0,0,1,.7,2.1v9.3H162Z"/><path class="cls-8" d="M169.9,294.8a3.45,3.45,0,0,1-3.7-3.7v-5a3.47,3.47,0,0,1,1-2.7,3.7,3.7,0,0,1,2.7-1h.7a3.62,3.62,0,0,1,2.7,1,3.7,3.7,0,0,1,1,2.7V289h-5.5v2.3a1.28,1.28,0,0,0,.4,1,1.16,1.16,0,0,0,1,.4h.2a1.16,1.16,0,0,0,1-.4,1.53,1.53,0,0,0,.4-1v-.7h2.5v.5a3.62,3.62,0,0,1-1,2.7,3.7,3.7,0,0,1-2.7,1Zm.2-10.3a1.16,1.16,0,0,0-1,.4,1.78,1.78,0,0,0-.4,1v1.7h3v-1.7a1.16,1.16,0,0,0-.4-1,1.78,1.78,0,0,0-1-.4Z"/><path class="cls-8" d="M179.3,294.8a2.09,2.09,0,0,1-2.4-2.3v-7.7h-1.6v-2.2h1.6v-2.1h2.5v2.2h2.1v2.2h-2.1v6.8a.9.9,0,0,0,1,1h.1a3.08,3.08,0,0,0,1-.1v2.1a8.08,8.08,0,0,1-1.6.1Z"/><path class="cls-8" d="M186.4,298.4a5.7,5.7,0,0,1-1.3-.1v-1.8a2.81,2.81,0,0,0,.8.1h.1a.9.9,0,0,0,1-1V282.7h2.5v13.2a2.35,2.35,0,0,1-.7,1.9,3,3,0,0,1-2,.7h-.4Zm.5-17.2v-3.3h2.5v3.3Z"/><path class="cls-8" d="M194.8,294.8a3.45,3.45,0,0,1-3.7-3.7v-5a3.47,3.47,0,0,1,1-2.7,3.7,3.7,0,0,1,2.7-1h.7a3.62,3.62,0,0,1,2.7,1,3.7,3.7,0,0,1,1,2.7v5a3.62,3.62,0,0,1-1,2.7,3.7,3.7,0,0,1-2.7,1Zm1.4-2.6a1.53,1.53,0,0,0,.4-1v-5.1a1.05,1.05,0,0,0-.4-1,1.78,1.78,0,0,0-1-.4H195a1.16,1.16,0,0,0-1,.4,1.78,1.78,0,0,0-.4,1v5.1a1.37,1.37,0,0,0,1.4,1.4h.2A1.53,1.53,0,0,0,196.2,292.2Z"/><path class="cls-8" d="M203.6,294.8a2.6,2.6,0,0,1-2.7-2.9v-9.3h2.5v8.6c0,.9.4,1.3,1.3,1.3h.1a1.61,1.61,0,0,0,1.1-.5,1.66,1.66,0,0,0,.5-1.2v-8.3h2.5v12h-2.6V293a2.54,2.54,0,0,1-1.1,1.2,3,3,0,0,1-1.5.5h-.1Z"/><path class="cls-8" d="M218.6,294.6,217,287l-1.7,7.6h-3l-2.5-12h2.5l1.8,9.2,1.6-9.2h2.2l1.6,9.2,1.8-9.2h2.5l-2.5,12Z"/><path class="cls-8" d="M230.6,294.6l-2.5-12h2.5l1.8,10.1,1.8-10.1h2.6l-2.5,12Z"/><path class="cls-8" d="M237.8,294.6v-12h2.5v2q.45-2.1,1.8-2.1h.1a.9.9,0,0,1,.5.1v2.7a2.25,2.25,0,0,0-.7-.1h-.1a1.15,1.15,0,0,0-1.1.6,2.12,2.12,0,0,0-.4,1.4v7.5h-2.6Z"/><path class="cls-8" d="M244,281.2v-3.3h2.5v3.3Zm0,13.4v-12h2.5v12Z"/><path class="cls-8" d="M251.9,294.8a3.45,3.45,0,0,1-3.7-3.7v-5a3.47,3.47,0,0,1,1-2.7,3.7,3.7,0,0,1,2.7-1h.7a3.62,3.62,0,0,1,2.7,1,3.7,3.7,0,0,1,1,2.7V289h-5.5v2.3a1.28,1.28,0,0,0,.4,1,1.16,1.16,0,0,0,1,.4h.2a1.16,1.16,0,0,0,1-.4,1.53,1.53,0,0,0,.4-1v-.7h2.5v.5a3.62,3.62,0,0,1-1,2.7,3.7,3.7,0,0,1-2.7,1Zm.2-10.3a1.16,1.16,0,0,0-1,.4,1.78,1.78,0,0,0-.4,1v1.7h3v-1.7a1.16,1.16,0,0,0-.4-1,1.78,1.78,0,0,0-1-.4Z"/><path class="cls-8" d="M263.5,294.6V286c0-.9-.4-1.3-1.3-1.3h-.1a1.17,1.17,0,0,0-1.1.5,1.66,1.66,0,0,0-.5,1.2v8.3H258v-12h2.5v1.5a2.94,2.94,0,0,1,1-1.2,3,3,0,0,1,1.5-.5h.2a2.72,2.72,0,0,1,2,.7,2.82,2.82,0,0,1,.7,2.1v9.3Z"/><path class="cls-8" d="M270.4,294.8a2.6,2.6,0,0,1-2.7-2.9v-6.5a2.82,2.82,0,0,1,.7-2.1,2.72,2.72,0,0,1,2-.7h.2a2.26,2.26,0,0,1,1.5.5,3.18,3.18,0,0,1,1.1,1.2V278h2.5v16.8h-2.5v-1.5a2.54,2.54,0,0,1-1.1,1.2,3,3,0,0,1-1.5.5h-.2Zm2.3-2.7a1.66,1.66,0,0,0,.5-1.2v-4.6a1.46,1.46,0,0,0-.5-1.2,1.61,1.61,0,0,0-1.1-.5h-.1c-.9,0-1.3.4-1.3,1.3v5.3c0,.9.4,1.3,1.3,1.3h.1A1.11,1.11,0,0,0,272.7,292.1Z"/><path class="cls-8" d="M281.1,294.8a3.45,3.45,0,0,1-3.7-3.7v-5a3.47,3.47,0,0,1,1-2.7,3.7,3.7,0,0,1,2.7-1h.7a3.62,3.62,0,0,1,2.7,1,3.7,3.7,0,0,1,1,2.7V289H280v2.3a1.28,1.28,0,0,0,.4,1,1.16,1.16,0,0,0,1,.4h.2a1.16,1.16,0,0,0,1-.4,1.53,1.53,0,0,0,.4-1v-.7h2.5v.5a3.62,3.62,0,0,1-1,2.7,3.7,3.7,0,0,1-2.7,1Zm.2-10.3a1.16,1.16,0,0,0-1,.4,1.78,1.78,0,0,0-.4,1v1.7h3v-1.7a1.16,1.16,0,0,0-.4-1,1.78,1.78,0,0,0-1-.4Z"/><path class="cls-8" d="M292.6,294.6V286c0-.9-.4-1.3-1.3-1.3h-.1a1.17,1.17,0,0,0-1.1.5,1.66,1.66,0,0,0-.5,1.2v8.3h-2.5v-12h2.5v1.5a2.94,2.94,0,0,1,1-1.2,3,3,0,0,1,1.5-.5h.2a2.72,2.72,0,0,1,2,.7,2.82,2.82,0,0,1,.7,2.1v9.3Z"/><path class="cls-8" d="M296.4,296h.8a.74.74,0,0,0,.8-.8v-.6h-1.1v-3.3h2.7v3.8a2.35,2.35,0,0,1-.6,1.7,2.71,2.71,0,0,1-1.9.6h-.7Z"/><path class="cls-8" d="M308.6,294.8a3.45,3.45,0,0,1-3.7-3.7v-5a3.47,3.47,0,0,1,1-2.7,3.7,3.7,0,0,1,2.7-1h.7a3.62,3.62,0,0,1,2.7,1,3.7,3.7,0,0,1,1,2.7v5a3.62,3.62,0,0,1-1,2.7,3.7,3.7,0,0,1-2.7,1Zm1.5-2.6a1.53,1.53,0,0,0,.4-1v-5.1a1.05,1.05,0,0,0-.4-1,1.78,1.78,0,0,0-1-.4h-.2a1.16,1.16,0,0,0-1,.4,1.78,1.78,0,0,0-.4,1v5.1a1.37,1.37,0,0,0,1.4,1.4h.2A1.78,1.78,0,0,0,310.1,292.2Z"/><path class="cls-8" d="M325.2,294.6V286c0-.9-.4-1.3-1.2-1.3h-.1a1.39,1.39,0,0,0-1,.5,1.66,1.66,0,0,0-.5,1.2v8.3h-2.5v-8.6c0-.9-.4-1.3-1.2-1.3h-.1a1.39,1.39,0,0,0-1,.5,1.66,1.66,0,0,0-.5,1.2v8.3h-2.5v-12h2.5v1.5a2.94,2.94,0,0,1,1-1.2,3,3,0,0,1,1.5-.5h.1a2.46,2.46,0,0,1,2.5,1.6,2.54,2.54,0,0,1,1.1-1.2,3,3,0,0,1,1.6-.5h.1a2.56,2.56,0,0,1,1.9.8,2.82,2.82,0,0,1,.7,2.1v9.3h-2.4Z"/><path class="cls-8" d="M339,294.6V286c0-.9-.4-1.3-1.3-1.3h-.1a1.17,1.17,0,0,0-1.1.5,1.66,1.66,0,0,0-.5,1.2v8.3h-2.5V277.9H336v6.3a2.94,2.94,0,0,1,1-1.2,3,3,0,0,1,1.5-.5h.2a2.72,2.72,0,0,1,2,.7,2.82,2.82,0,0,1,.7,2.1v9.3Z"/><path class="cls-8" d="M346.2,294.8a2.6,2.6,0,0,1-2.7-2.9v-9.3H346v8.6c0,.9.4,1.3,1.3,1.3h.1a1.61,1.61,0,0,0,1.1-.5,1.66,1.66,0,0,0,.5-1.2v-8.3h2.5v12H349V293a2.54,2.54,0,0,1-1.1,1.2,3,3,0,0,1-1.5.5h-.2Z"/><path class="cls-8" d="M358.9,294.6V286c0-.9-.4-1.3-1.3-1.3h-.1a1.17,1.17,0,0,0-1.1.5,1.66,1.66,0,0,0-.5,1.2v8.3h-2.5v-12h2.5v1.5a2.94,2.94,0,0,1,1-1.2,3,3,0,0,1,1.5-.5h.2a2.72,2.72,0,0,1,2,.7,2.82,2.82,0,0,1,.7,2.1v9.3Z"/><path class="cls-8" d="M370.6,294.8a3.45,3.45,0,0,1-3.7-3.7v-5a3.47,3.47,0,0,1,1-2.7,3.7,3.7,0,0,1,2.7-1h.7a3.62,3.62,0,0,1,2.7,1,3.7,3.7,0,0,1,1,2.7v5a3.62,3.62,0,0,1-1,2.7,3.7,3.7,0,0,1-2.7,1Zm1.5-2.6a1.53,1.53,0,0,0,.4-1v-5.1a1.05,1.05,0,0,0-.4-1,1.78,1.78,0,0,0-1-.4h-.2a1.16,1.16,0,0,0-1,.4,1.78,1.78,0,0,0-.4,1v5.1a1.37,1.37,0,0,0,1.4,1.4h.2A1.78,1.78,0,0,0,372.1,292.2Z"/><path class="cls-8" d="M380.1,294.8a3.45,3.45,0,0,1-3.7-3.7v-5a3.47,3.47,0,0,1,1-2.7,3.7,3.7,0,0,1,2.7-1h.7a3.62,3.62,0,0,1,2.7,1,3.7,3.7,0,0,1,1,2.7v5a3.62,3.62,0,0,1-1,2.7,3.7,3.7,0,0,1-2.7,1Zm1.5-2.6a1.53,1.53,0,0,0,.4-1v-5.1a1.05,1.05,0,0,0-.4-1,1.78,1.78,0,0,0-1-.4h-.3a1.16,1.16,0,0,0-1,.4,1.78,1.78,0,0,0-.4,1v5.1a1.37,1.37,0,0,0,1.4,1.4h.2A1.82,1.82,0,0,0,381.6,292.2Z"/><path class="cls-8" d="M391.8,294.6a3.58,3.58,0,0,1-.4-1.9V291a1.53,1.53,0,0,0-1.7-1.7h-1v5.3h-2.5V277.8h2.5v9.6h.9l2.4-4.8h2.5l-2.6,5.2a2.37,2.37,0,0,1,1.5.9,2.79,2.79,0,0,1,.6,1.8v2.3a9,9,0,0,0,.2,1.8Z"/><path class="cls-8" d="M403,294.8a2.09,2.09,0,0,1-2.4-2.3v-7.7H399v-2.2h1.6v-2.1h2.5v2.2h2.1v2.2h-2.1v6.8a.9.9,0,0,0,1,1h.1a3.08,3.08,0,0,0,1-.1v2.1a8.08,8.08,0,0,1-1.6.1Z"/><path class="cls-8" d="M410.2,294.8a3.45,3.45,0,0,1-3.7-3.7v-5a3.47,3.47,0,0,1,1-2.7,3.7,3.7,0,0,1,2.7-1h.7a3.62,3.62,0,0,1,2.7,1,3.7,3.7,0,0,1,1,2.7V289h-5.5v2.3a1.28,1.28,0,0,0,.4,1,1.16,1.16,0,0,0,1,.4h.2a1.16,1.16,0,0,0,1-.4,1.53,1.53,0,0,0,.4-1v-.7h2.5v.5a3.62,3.62,0,0,1-1,2.7,3.7,3.7,0,0,1-2.7,1Zm.2-10.3a1.16,1.16,0,0,0-1,.4,1.78,1.78,0,0,0-.4,1v1.7h3v-1.7a1.16,1.16,0,0,0-.4-1,1.78,1.78,0,0,0-1-.4Z"/><path class="cls-8" d="M420.1,281.2v-3.3h2.5v3.3Zm0,13.4v-12h2.5v12Z"/><path class="cls-8" d="M430.1,294.6V286c0-.9-.4-1.3-1.3-1.3h-.1a1.17,1.17,0,0,0-1.1.5,1.66,1.66,0,0,0-.5,1.2v8.3h-2.5v-12h2.5v1.5a2.94,2.94,0,0,1,1-1.2,3,3,0,0,1,1.5-.5h.2a2.72,2.72,0,0,1,2,.7,2.82,2.82,0,0,1,.7,2.1v9.3Z"/><path class="cls-8" d="M435.5,294.6v-9.8h-1.6v-2.2h1.6v-2.4a2.35,2.35,0,0,1,.7-1.9,3,3,0,0,1,2-.7h.3a8.08,8.08,0,0,1,1.6.1v2.1c-.3,0-.6-.1-1-.1H439a.9.9,0,0,0-1,1v1.8h2.1v2.2H438v9.8h-2.5Z"/><path class="cls-8" d="M444.8,294.8a3.45,3.45,0,0,1-3.7-3.7v-5a3.47,3.47,0,0,1,1-2.7,3.7,3.7,0,0,1,2.7-1h.7a3.62,3.62,0,0,1,2.7,1,3.7,3.7,0,0,1,1,2.7v5a3.62,3.62,0,0,1-1,2.7,3.47,3.47,0,0,1-2.7,1Zm1.4-2.6a1.53,1.53,0,0,0,.4-1v-5.1a1.05,1.05,0,0,0-.4-1,1.78,1.78,0,0,0-1-.4H445a1.16,1.16,0,0,0-1,.4,1.78,1.78,0,0,0-.4,1v5.1a1.37,1.37,0,0,0,1.4,1.4h.2A1.53,1.53,0,0,0,446.2,292.2Z"/><path class="cls-8" d="M450.8,294.6v-12h2.5v2q.45-2.1,1.8-2.1h.1a.9.9,0,0,1,.5.1v2.7a2.25,2.25,0,0,0-.7-.1h-.1a1.15,1.15,0,0,0-1.1.6,2.12,2.12,0,0,0-.4,1.4v7.5h-2.6Z"/><path class="cls-8" d="M467.6,294.6V286c0-.9-.4-1.3-1.2-1.3h-.1a1.39,1.39,0,0,0-1,.5,1.66,1.66,0,0,0-.5,1.2v8.3h-2.5v-8.6c0-.9-.4-1.3-1.2-1.3H461a1.39,1.39,0,0,0-1,.5,1.66,1.66,0,0,0-.5,1.2v8.3H457v-12h2.5v1.5a2.94,2.94,0,0,1,1-1.2,3,3,0,0,1,1.5-.5h.1a2.46,2.46,0,0,1,2.5,1.6,2.54,2.54,0,0,1,1.1-1.2,3,3,0,0,1,1.6-.5h.1a2.56,2.56,0,0,1,1.9.8,2.82,2.82,0,0,1,.7,2.1v9.3h-2.4Z"/><path class="cls-8" d="M475.5,294.8a3.45,3.45,0,0,1-3.7-3.7v-5a3.47,3.47,0,0,1,1-2.7,3.7,3.7,0,0,1,2.7-1h.7a3.62,3.62,0,0,1,2.7,1,3.7,3.7,0,0,1,1,2.7V289h-5.6v2.3a1.28,1.28,0,0,0,.4,1,1.16,1.16,0,0,0,1,.4h.2a1.16,1.16,0,0,0,1-.4,1.53,1.53,0,0,0,.4-1v-.7h2.5v.5a3.62,3.62,0,0,1-1,2.7,3.47,3.47,0,0,1-2.7,1Zm.2-10.3a1.16,1.16,0,0,0-1,.4,1.78,1.78,0,0,0-.4,1v1.7h3v-1.7a1.16,1.16,0,0,0-.4-1,1.78,1.78,0,0,0-1-.4Z"/><path class="cls-8" d="M481.5,294.6v-12H484v2q.45-2.1,1.8-2.1h.1a.9.9,0,0,1,.5.1v2.7a2.25,2.25,0,0,0-.7-.1h-.1a1.15,1.15,0,0,0-1.1.6,2.12,2.12,0,0,0-.4,1.4v7.5h-2.6Z"/><path class="cls-8" d="M491.2,294.8a3.45,3.45,0,0,1-3.7-3.7v-5a3.47,3.47,0,0,1,1-2.7,3.7,3.7,0,0,1,2.7-1h.7a3.62,3.62,0,0,1,2.7,1,3.7,3.7,0,0,1,1,2.7V289h-5.5v2.3a1.28,1.28,0,0,0,.4,1,1.16,1.16,0,0,0,1,.4h.2a1.16,1.16,0,0,0,1-.4,1.53,1.53,0,0,0,.4-1v-.7h2.5v.5a3.62,3.62,0,0,1-1,2.7,3.47,3.47,0,0,1-2.7,1Zm.2-10.3a1.16,1.16,0,0,0-1,.4,1.78,1.78,0,0,0-.4,1v1.7h3v-1.7a1.16,1.16,0,0,0-.4-1,1.78,1.78,0,0,0-1-.4Z"/><path class="cls-8" d="M502.7,294.6V286c0-.9-.4-1.3-1.3-1.3h-.1a1.17,1.17,0,0,0-1.1.5,1.66,1.66,0,0,0-.5,1.2v8.3h-2.5v-12h2.5v1.5a2.94,2.94,0,0,1,1-1.2,3,3,0,0,1,1.5-.5h.2a2.72,2.72,0,0,1,2,.7,2.82,2.82,0,0,1,.7,2.1v9.3Z"/><path class="cls-8" d="M514.4,294.8a3.45,3.45,0,0,1-3.7-3.7v-5a3.47,3.47,0,0,1,1-2.7,3.7,3.7,0,0,1,2.7-1h.7a3.62,3.62,0,0,1,2.7,1,3.7,3.7,0,0,1,1,2.7v5a3.62,3.62,0,0,1-1,2.7,3.47,3.47,0,0,1-2.7,1Zm1.5-2.6a1.53,1.53,0,0,0,.4-1v-5.1a1.05,1.05,0,0,0-.4-1,1.78,1.78,0,0,0-1-.4h-.2a1.16,1.16,0,0,0-1,.4,1.78,1.78,0,0,0-.4,1v5.1a1.37,1.37,0,0,0,1.4,1.4h.2A1.53,1.53,0,0,0,515.9,292.2Z"/><path class="cls-8" d="M522.1,294.6l-2.5-12h2.5l1.8,10.1,1.8-10.1h2.6l-2.5,12Z"/><path class="cls-8" d="M532.7,294.8a3.45,3.45,0,0,1-3.7-3.7v-5a3.47,3.47,0,0,1,1-2.7,3.7,3.7,0,0,1,2.7-1h.7a3.62,3.62,0,0,1,2.7,1,3.7,3.7,0,0,1,1,2.7V289h-5.5v2.3a1.28,1.28,0,0,0,.4,1,1.16,1.16,0,0,0,1,.4h.2a1.16,1.16,0,0,0,1-.4,1.53,1.53,0,0,0,.4-1v-.7h2.5v.5a3.62,3.62,0,0,1-1,2.7,3.47,3.47,0,0,1-2.7,1Zm.2-10.3a1.16,1.16,0,0,0-1,.4,1.78,1.78,0,0,0-.4,1v1.7h3v-1.7a1.16,1.16,0,0,0-.4-1,1.78,1.78,0,0,0-1-.4Z"/><path class="cls-8" d="M538.8,294.6v-12h2.5v2q.45-2.1,1.8-2.1h.1a.9.9,0,0,1,.5.1v2.7a2.25,2.25,0,0,0-.7-.1h-.1a1.15,1.15,0,0,0-1.1.6,2.12,2.12,0,0,0-.4,1.4v7.5h-2.6Z"/><path class="cls-8" d="M551.3,294.8a2.6,2.6,0,0,1-2.7-2.9v-6.5a2.82,2.82,0,0,1,.7-2.1,2.72,2.72,0,0,1,2-.7h.2a2.26,2.26,0,0,1,1.5.5,3.18,3.18,0,0,1,1.1,1.2V278h2.5v16.8h-2.5v-1.5a2.54,2.54,0,0,1-1.1,1.2,3,3,0,0,1-1.5.5h-.2Zm2.3-2.7a1.66,1.66,0,0,0,.5-1.2v-4.6a1.46,1.46,0,0,0-.5-1.2,1.61,1.61,0,0,0-1.1-.5h-.1c-.9,0-1.3.4-1.3,1.3v5.3c0,.9.4,1.3,1.3,1.3h.1A1.19,1.19,0,0,0,553.6,292.1Z"/><path class="cls-8" d="M561.9,294.8a3.45,3.45,0,0,1-3.7-3.7v-5a3.47,3.47,0,0,1,1-2.7,3.7,3.7,0,0,1,2.7-1h.7a3.62,3.62,0,0,1,2.7,1,3.7,3.7,0,0,1,1,2.7V289h-5.5v2.3a1.28,1.28,0,0,0,.4,1,1.16,1.16,0,0,0,1,.4h.2a1.16,1.16,0,0,0,1-.4,1.53,1.53,0,0,0,.4-1v-.7h2.5v.5a3.62,3.62,0,0,1-1,2.7,3.7,3.7,0,0,1-2.7,1Zm.3-10.3a1.16,1.16,0,0,0-1,.4,1.78,1.78,0,0,0-.4,1v1.7h3v-1.7a1.16,1.16,0,0,0-.4-1,1.78,1.78,0,0,0-1-.4Z"/><path class="cls-8" d="M576.9,294.8a2.26,2.26,0,0,1-1.5-.5,2.34,2.34,0,0,1-1-1.2v5.1h-2.5V282.6h2.5v1.5a2.94,2.94,0,0,1,1-1.2,3,3,0,0,1,1.5-.5h.2a2.72,2.72,0,0,1,2,.7,2.82,2.82,0,0,1,.7,2.1v6.5a2.6,2.6,0,0,1-2.7,2.9h-.2Zm.5-3.5V286c0-.9-.4-1.3-1.3-1.3H576a1.17,1.17,0,0,0-1.1.5,1.66,1.66,0,0,0-.5,1.2V291a1.46,1.46,0,0,0,.5,1.2,1.43,1.43,0,0,0,1.1.5h.1A1.34,1.34,0,0,0,577.4,291.3Z"/><path class="cls-8" d="M581.6,294.6v-12h2.5v2q.45-2.1,1.8-2.1h.1a.9.9,0,0,1,.5.1v2.7a2.25,2.25,0,0,0-.7-.1h-.1a1.15,1.15,0,0,0-1.1.6,2.12,2.12,0,0,0-.4,1.4v7.5h-2.6Z"/><path class="cls-8" d="M591.2,294.8a3.45,3.45,0,0,1-3.7-3.7v-5a3.47,3.47,0,0,1,1-2.7,3.7,3.7,0,0,1,2.7-1h.7a3.62,3.62,0,0,1,2.7,1,3.7,3.7,0,0,1,1,2.7v5a3.62,3.62,0,0,1-1,2.7,3.47,3.47,0,0,1-2.7,1Zm1.5-2.6a1.53,1.53,0,0,0,.4-1v-5.1a1.05,1.05,0,0,0-.4-1,1.78,1.78,0,0,0-1-.4h-.2a1.16,1.16,0,0,0-1,.4,1.78,1.78,0,0,0-.4,1v5.1a1.37,1.37,0,0,0,1.4,1.4h.2A1.78,1.78,0,0,0,592.7,292.2Z"/><path class="cls-8" d="M602.3,294.8a2.26,2.26,0,0,1-1.5-.5,2.34,2.34,0,0,1-1-1.2v1.5h-2.5V277.8h2.5v6.3a2.94,2.94,0,0,1,1-1.2,3,3,0,0,1,1.5-.5h.2a2.72,2.72,0,0,1,2,.7,2.82,2.82,0,0,1,.7,2.1v6.5a2.6,2.6,0,0,1-2.7,2.9h-.2Zm.5-3.5V286c0-.9-.4-1.3-1.3-1.3h-.1a1.17,1.17,0,0,0-1.1.5,1.66,1.66,0,0,0-.5,1.2V291a1.46,1.46,0,0,0,.5,1.2,1.43,1.43,0,0,0,1.1.5h.1A1.34,1.34,0,0,0,602.8,291.3Z"/><path class="cls-8" d="M607,294.6V277.8h2.5v16.8Z"/><path class="cls-8" d="M614.9,294.8a3.47,3.47,0,0,1-2.7-1,3.7,3.7,0,0,1-1-2.7v-5a3.47,3.47,0,0,1,1-2.7,3.7,3.7,0,0,1,2.7-1h.7a3.62,3.62,0,0,1,2.7,1,3.7,3.7,0,0,1,1,2.7V289h-5.5v2.3a1.28,1.28,0,0,0,.4,1,1.16,1.16,0,0,0,1,.4h.2a1.16,1.16,0,0,0,1-.4,1.53,1.53,0,0,0,.4-1v-.7h2.5v.5a3.62,3.62,0,0,1-1,2.7,3.47,3.47,0,0,1-2.7,1Zm.2-10.3a1.16,1.16,0,0,0-1,.4,1.78,1.78,0,0,0-.4,1v1.7h3v-1.7a1.16,1.16,0,0,0-.4-1,1.78,1.78,0,0,0-1-.4Z"/><path class="cls-8" d="M631.5,294.6V286c0-.9-.4-1.3-1.2-1.3h-.1a1.39,1.39,0,0,0-1,.5,1.66,1.66,0,0,0-.5,1.2v8.3h-2.5v-8.6c0-.9-.4-1.3-1.2-1.3h-.1a1.39,1.39,0,0,0-1,.5,1.66,1.66,0,0,0-.5,1.2v8.3h-2.5v-12h2.5v1.5a2.94,2.94,0,0,1,1-1.2,3,3,0,0,1,1.5-.5h.1a2.46,2.46,0,0,1,2.5,1.6,2.54,2.54,0,0,1,1.1-1.2,3,3,0,0,1,1.6-.5h.1a2.56,2.56,0,0,1,1.9.8,2.82,2.82,0,0,1,.7,2.1v9.3h-2.4Z"/><path class="cls-8" d="M639.4,294.8a3.45,3.45,0,0,1-3.7-3.7v-5a3.47,3.47,0,0,1,1-2.7,3.7,3.7,0,0,1,2.7-1h.7a3.62,3.62,0,0,1,2.7,1,3.7,3.7,0,0,1,1,2.7V289h-5.5v2.3a1.28,1.28,0,0,0,.4,1,1.16,1.16,0,0,0,1,.4h.2a1.16,1.16,0,0,0,1-.4,1.53,1.53,0,0,0,.4-1v-.7h2.5v.5a3.62,3.62,0,0,1-1,2.7,3.7,3.7,0,0,1-2.7,1Zm.2-10.3a1.16,1.16,0,0,0-1,.4,1.78,1.78,0,0,0-.4,1v1.7h3v-1.7a1.16,1.16,0,0,0-.4-1,1.78,1.78,0,0,0-1-.4Z"/><path class="cls-8" d="M650.9,294.6V286c0-.9-.4-1.3-1.3-1.3h-.1a1.17,1.17,0,0,0-1.1.5,1.66,1.66,0,0,0-.5,1.2v8.3h-2.5v-12h2.5v1.5a2.94,2.94,0,0,1,1-1.2,3,3,0,0,1,1.5-.5h.2a2.72,2.72,0,0,1,2,.7,2.82,2.82,0,0,1,.7,2.1v9.3Z"/><path class="cls-8" d="M655.2,294.6v-3.3h2.7v3.3Z"/><rect class="cls-2" x="65.3" y="352.7" width="234.5" height="73.6"/><rect class="cls-2" x="333.1" y="352.7" width="234.5" height="73.6"/></g></g></g></svg>