<svg xmlns="http://www.w3.org/2000/svg" viewBox="0 0 254.4 78.2"><defs><style>.cls-1{fill:#ba4c33;}.cls-2{fill:#fff;}.cls-3{fill:#f1b609;}</style></defs><g id="Layer_2" data-name="Layer 2"><g id="Layer_1-2" data-name="Layer 1"><g id="Donate"><path class="cls-1" d="M247.4,78.2H7a7,7,0,0,1-7-7V7A7,7,0,0,1,7,0H247.4a7,7,0,0,1,7,7V71.2A7,7,0,0,1,247.4,78.2Z"/><path class="cls-2" d="M40.5,23.1c0,10-1.4,12.9-8.5,12.9H25.4V11H32c7.1,0,8.5,2.9,8.5,12.9Zm-5.6.8c0-8.1-.6-8.4-4-8.4v16c3.4,0,4-.3,4-8.4Z"/><path class="cls-2" d="M58.8,23.5c0,9.4-.6,12.9-8.1,12.9s-8.1-3.5-8.1-12.9c0-9.1.6-13,8.1-13S58.8,14.4,58.8,23.5Zm-10.1,0c0,6.9.2,8,2,8s2-1.1,2-8-.2-8.1-2-8.1S48.7,16.7,48.7,23.5Z"/><path class="cls-2" d="M77.8,11V36H72.2L66.5,23.6V36H60.9V11h5.5l5.8,13.1V11Z"/><path class="cls-2" d="M85.4,20.8h4.3v4.9H85.4v5.5h6.1v4.9H79.9v-25H91.5V16H85.4Z"/><path class="cls-2" d="M99.1,26.6V36H93.5V11h5.6c6.5,0,8.8,2.4,8.8,7.6,0,2.9-.5,5-2.1,6,2.9,2.3,1.9,8.5,2.6,11.4h-5.6c-.5-2.5.5-7.2-1.7-9.4Zm0-3.7c2.7,0,3.3-.7,3.3-3.5s-.6-3.9-3.3-3.9Z"/><path class="cls-2" d="M116.1,20.8h4.3v4.9h-4.3v5.5h6.1v4.9H110.6v-25h11.6V16h-6.1Z"/><path class="cls-2" d="M141.1,11V36h-5.6l-5.7-12.4V36h-5.6V11h5.5l5.8,13.1V11Z"/><path class="cls-2" d="M165.4,11,158,36h-4.5l7.4-25Z"/><path class="cls-2" d="M36.6,41l5.6,25H36.6L36,62.2H31.6L31,66H25.4L31,41ZM32.4,57.7h2.9l-1.4-8.8Z"/><path class="cls-2" d="M59.4,53.1c0,10-1.4,12.9-8.5,12.9H44.3V41h6.6c7.1,0,8.5,2.9,8.5,12.9Zm-5.6.8c0-8.1-.6-8.4-4-8.4v16c3.4,0,4-.3,4-8.4Z"/><path class="cls-2" d="M77.6,53.5c0,9.4-.6,12.9-8.1,12.9s-8.1-3.5-8.1-12.9c0-9.1.6-13,8.1-13S77.6,44.4,77.6,53.5Zm-10,0c0,6.9.2,8,2,8s2-1.1,2-8-.2-8.1-2-8.1S67.6,46.7,67.6,53.5Z"/><path class="cls-2" d="M85.3,66H79.7V41h5.6c6.5,0,8.8,3.1,8.8,8.7,0,5.2-2.3,8.3-8.8,8.3Zm0-12.4c2.7,0,3.3-1,3.3-3.9s-.6-4.2-3.3-4.2Z"/><path class="cls-2" d="M106.8,66h-5.6V45.9h-5V41h15.6v4.9h-5Z"/><path class="cls-2" d="M119.5,50.8h4.3v4.9h-4.3v5.5h6.1v4.9H114v-25h11.6V46h-6.1Z"/><path class="cls-2" d="M133.2,56.6V66h-5.6V41h5.6c6.5,0,8.8,2.4,8.8,7.6,0,2.9-.5,5-2.1,6,2.9,2.3,1.9,8.5,2.6,11.4h-5.6c-.5-2.5.5-7.2-1.7-9.4Zm0-3.7c2.7,0,3.3-.7,3.3-3.5s-.6-3.9-3.3-3.9Z"/><path class="cls-2" d="M150.2,50.8h4.3v4.9h-4.3v5.5h6.1v4.9H144.7v-25h11.6V46h-6.1Z"/><path class="cls-2" d="M175.2,41V66h-5.6l-5.7-12.4V66h-5.6V41h5.5l5.8,13.1V41Z"/><circle class="cls-3" cx="216.2" cy="38.5" r="27.6"/><path class="cls-2" d="M204.3,34.1H207c.4-7.4,2.4-10.1,9.5-10.1a17.73,17.73,0,0,1,6.6,1.2l-1.6,5.4a10.56,10.56,0,0,0-4-.9c-2.1,0-3.1.6-3.5,4.4h7.7v3.2h-7.9v3h7.9v3.2h-7.8c.4,3.9,1.4,4.4,3.5,4.4a10.56,10.56,0,0,0,4-.9l1.6,5.4a17.1,17.1,0,0,1-6.6,1.2c-7.2,0-9.1-2.4-9.6-10h-2.6V40.4h2.6v-3h-2.6V34.1Z"/></g></g></g></svg>