<?xml version="1.0" encoding="utf-8"?>
<!-- Generator: Adobe Illustrator 25.4.1, SVG Export Plug-In . SVG Version: 6.00 Build 0)  -->
<svg version="1.1" id="Laag_1" xmlns="http://www.w3.org/2000/svg" xmlns:xlink="http://www.w3.org/1999/xlink" x="0px" y="0px"
	 viewBox="0 0 1021.2 224.5" style="enable-background:new 0 0 1021.2 224.5;" xml:space="preserve">
<style type="text/css">
	.st0{fill:#273973;}
	.st1{fill:#FFFFFF;}
	.st2{display:none;}
	.st3{display:inline;fill:#FFFFFF;}
</style>
<path class="st0" d="M12,0h997.2c6.6,0,12,5.4,12,12v90.4c0,6.6-5.4,12-12,12H12c-6.6,0-12-5.4-12-12V12C0,5.4,5.4,0,12,0z"/>
<g>
	<path class="st1" d="M378.4,57.9c0,17.2-2.3,22.1-14.5,22.1h-11.3V37.2h11.3c12.2,0,14.5,4.9,14.5,22.1V57.9z M368.9,59.3
		c0-13.9-1-14.4-6.8-14.4v27.3c5.8,0,6.8-0.5,6.8-14.4V59.3z"/>
	<path class="st1" d="M391.6,54h7.4v8.3h-7.4v9.3h10.4V80H382V37.2h19.9v8.3h-10.4V54z"/>
	<path class="st1" d="M415.1,54h7.4v8.3h-7.4v9.3h10.4V80h-19.9V37.2h19.9v8.3h-10.4V54z"/>
	<path class="st1" d="M438.6,71.6h9.8V80h-19.3V37.2h9.5V71.6z"/>
	<path class="st1" d="M499.3,37.2L489.1,80h-9.5l-10.2-42.8h10.1l4.8,28.7l4.9-28.7H499.3z"/>
	<path class="st1" d="M512.4,54h7.4v8.3h-7.4v9.3h10.4V80h-19.9V37.2h19.9v8.3h-10.4V54z"/>
	<path class="st1" d="M535.9,63.8V80h-9.5V37.2h9.5c11.2,0,15.1,4.1,15.1,13.1c0,4.9-0.9,8.5-3.7,10.2c5,3.9,3.2,14.6,4.5,19.6h-9.5
		c-0.8-4.2,0.8-12.4-2.9-16.1L535.9,63.8z M535.9,57.5c4.6,0,5.6-1.2,5.6-6s-1-6.6-5.6-6.6V57.5z"/>
	<path class="st1" d="M581,37.2V80h-9.5V63.2H565V80h-9.5V37.2h9.5v17.7h6.4V37.2H581z"/>
	<path class="st1" d="M603.7,37.2l9.6,42.8h-9.5l-1.1-6.5h-7.5l-1.1,6.5h-9.5l9.6-42.8H603.7z M596.5,65.7h4.9l-2.5-15.1L596.5,65.7
		z"/>
	<path class="st1" d="M636.1,37.2l9.6,42.8h-9.5l-1.1-6.5h-7.5l-1.1,6.5H617l9.6-42.8H636.1z M628.8,65.7h4.9l-2.5-15.1L628.8,65.7z
		"/>
	<path class="st1" d="M658.8,71.6h9.8V80h-19.3V37.2h9.5L658.8,71.6z"/>
</g>
<g class="st2">
	<path class="st3" d="M207.2,181v42.8h-9.5V181H207.2z"/>
	<path class="st3" d="M239.7,181v42.8h-9.6l-9.8-21.2v21.2h-9.5V181h9.5l9.9,22.4V181H239.7z"/>
	<path class="st3" d="M243.3,223.8V181h19.9v8.3h-10.4v8.8h7.4v8.3h-7.4v17.4L243.3,223.8z"/>
	<path class="st3" d="M294.6,202.4c0,16.1-1,22.1-13.9,22.1s-13.9-5.9-13.9-22.1c0-15.6,1-22.2,13.9-22.2S294.6,186.8,294.6,202.4z
		 M277.4,202.4c0,11.9,0.4,13.7,3.4,13.7s3.4-1.9,3.4-13.7c0-11.6-0.4-13.9-3.4-13.9S277.4,190.8,277.4,202.4z"/>
</g>
<image style="overflow:visible;enable-background:new    ;" width="513" height="513" id="Laag_1-2" xlink:href="FA352FE9.png"  transform="matrix(0.1397 0 0 0.1397 915.59 21.9)">
</image>
</svg>
